<svg xmlns="http://www.w3.org/2000/svg" viewBox="0 0 224.84 144.88">
  <defs>
    <style>
      .cls-1, .cls-6 {
        fill: #529f6f;
      }

      .cls-13, .cls-2 {
        fill: #00487b;
      }

      .cls-3 {
        fill: #fff;
      }

      .cls-4 {
        fill: #b2ce8a;
      }

      .cls-5 {
        fill: #0086a2;
      }

      .cls-6 {
        font-size: 13.61px;
        font-family: GenWanMinTW-M, GenWanMin TW;
        letter-spacing: -0.03em;
      }

      .cls-7 {
        letter-spacing: -0.02em;
      }

      .cls-8 {
        letter-spacing: -0.1em;
      }

      .cls-9 {
        letter-spacing: -0.04em;
      }

      .cls-10 {
        letter-spacing: -0.03em;
      }

      .cls-11 {
        letter-spacing: -0.01em;
      }

      .cls-12 {
        letter-spacing: -0.05em;
      }

      .cls-13 {
        font-size: 18.64px;
        font-family: GenWanMinTW-SB, GenWanMin TW;
        letter-spacing: 0.01em;
      }
    </style>
  </defs>
  <g id="圖層_2" data-name="圖層 2">
    <g id="圖層_1-2" data-name="圖層 1">
      <g>
        <g>
          <text/>          <path class="cls-1" d="M77,86.53a59.34,59.34,0,0,1-19.25,1.64,71.26,71.26,0,0,0,19.75,8.52,71.84,71.84,0,0,0,88.81-56.22c.13-.71.25-1.42.36-2.12A46.35,46.35,0,0,1,177.91,16a48,48,0,0,1,5.26-5C127.84,10.18,123.83,74.19,77,86.53Z"/>
          <g>
            <g>
              <g>
                <path class="cls-2" d="M14.21,74.41c-.14,0-.71-.15-1.72-.39s-1.67-.38-2.16-.47-1.26-.22-2.27-.37l-2.41-.37c-.09-.14-.18-.28-.26-.43a1.05,1.05,0,0,1,.11-1.27,1.15,1.15,0,0,1,1.08-.63h0a7.29,7.29,0,0,0,1,0,4.1,4.1,0,0,0,.71,0,8.67,8.67,0,0,0,1-1.13q2.43-3.25,4.84-6.56c.26-.35.44-.62.56-.81-.26-.07-.6-.13-1-.2l-.29,0a4.12,4.12,0,0,0-1.57.09,5.13,5.13,0,0,0-1.87,1A1.1,1.1,0,0,1,9.1,63a2,2,0,0,1-1.53-.79l-.36-.6c1.17-1.2,2.33-2.4,3.5-3.62l.52.2a8.62,8.62,0,0,0,1.66.51c.82.15,1.86.34,3.13.6s2.28.42,3.07.55,1.85.26,3.16.4l3.22.38.31,0a15.09,15.09,0,0,0,1.68,0L29,60.65l-2.5,4.81-.3.11a2.6,2.6,0,0,1-1,.09l-.75-.09c-.15-.16-.31-.32-.46-.49a.92.92,0,0,1-.06-.85.89.89,0,0,0,0-.63c-.08-.13-.39-.29-1-.37-.4-.06-.76-.1-1.07-.13a3.14,3.14,0,0,0-1.06,0,10.16,10.16,0,0,0-1.19,1.41q-2.4,3.34-4.82,6.64c-.2.28-.35.51-.46.7a2.37,2.37,0,0,0,.38.14l.49.1.27.48a1.12,1.12,0,0,1-.23,1.22,2.34,2.34,0,0,1-.45.48l-.26.2Z"/>
                <path class="cls-3" d="M11,59.05a10,10,0,0,0,1.83.55c.81.15,1.84.34,3.1.6s2.3.43,3.1.55,1.87.26,3.19.41,2.39.27,3.2.38l.35,0a16.73,16.73,0,0,0,1.77,0L25.9,64.74a1.65,1.65,0,0,1-.67.05l-.25,0c-.17,0-.25-.06-.22-.13.4-1.3-.18-2-1.75-2.27-.42-.06-.8-.1-1.12-.13-.86-.08-1.38,0-1.55.12A8.45,8.45,0,0,0,18.92,64q-2.4,3.33-4.82,6.62a5.49,5.49,0,0,0-.85,1.52c0,.09.17.23.57.42a3.9,3.9,0,0,0,.87.34c.08,0,0,.14-.14.36a1,1,0,0,1-.3.32c-.13,0-.68-.14-1.66-.37s-1.71-.4-2.21-.49l-2.31-.37-2-.3c0-.06,0-.16.11-.3s.31-.37.36-.36h.1a7.1,7.1,0,0,0,1.08,0,2.77,2.77,0,0,0,1.05-.13A7.71,7.71,0,0,0,10,69.93q2.42-3.25,4.83-6.57c.69-1,1-1.52,1-1.72a.39.39,0,0,0,0-.18,1.56,1.56,0,0,0-.53-.21,12.42,12.42,0,0,0-1.53-.33l-.34-.05a5.1,5.1,0,0,0-1.88.11,6,6,0,0,0-2.15,1.15.36.36,0,0,1-.29,0H9c-.41-.08-.67-.17-.73-.28.9-.94,1.81-1.88,2.71-2.83m-.61-2-.71.74c-.91.94-1.81,1.88-2.72,2.81l-.85.87.72,1.2a3,3,0,0,0,2.1,1.26H9l.12,0a1.82,1.82,0,0,0,1.52-.39,4.54,4.54,0,0,1,1.54-.84,3.69,3.69,0,0,1,1-.1q-2.28,3.12-4.57,6.18a6.72,6.72,0,0,1-.75.88H7.5a4.2,4.2,0,0,1-.82,0h0a1.88,1.88,0,0,0-1.89.89,1.92,1.92,0,0,0-.11,2.25l.51.85.93.14L7.58,74l.47.07c1,.15,1.73.26,2.22.36s1.19.25,2.12.47l.33.07c.84.2,1.33.3,1.46.32l.69.11.52-.39a3.24,3.24,0,0,0,.6-.62,2,2,0,0,0,.29-2.1l-.45-1q2.26-3.1,4.53-6.25a8.59,8.59,0,0,1,.93-1.13l.6,0,1,.12.12,0c-.07.17-.15.34-.23.52l.48.86a2.15,2.15,0,0,0,1.6,1l.35,0a3.18,3.18,0,0,0,1.35-.14l.59-.2.29-.56,1.64-3.16,1.43-2.76-3.16.13c-.67,0-1.2,0-1.59,0l-.25,0c-.83-.11-1.91-.24-3.26-.38s-2.34-.29-3.13-.41-1.81-.3-3-.54S13.77,58,13,57.88a8.79,8.79,0,0,1-1.5-.46l-1-.41Z"/>
              </g>
              <g>
                <path class="cls-2" d="M34.64,77.13c-1-.1-2.52-.27-4.63-.54l-5.12-.68c-1.56-.16-3.12-.34-4.68-.53L20,75a1.11,1.11,0,0,1,.1-1.32A1.3,1.3,0,0,1,21.17,73h.06a8.2,8.2,0,0,0,1,0A2.4,2.4,0,0,0,22.9,73s.38-.4,1.08-1.39c1.68-2.35,3.36-4.73,5.05-7.11.2-.3.35-.53.46-.71a3,3,0,0,0-.48-.16l-.49-.06c-.09-.16-.17-.32-.26-.47a1.17,1.17,0,0,1,.21-1.21,1.54,1.54,0,0,1,.74-.65l.2-.07.21,0c1.47.24,2.84.42,4.11.55.83.09,2.32.23,4.46.38s3.77.28,4.86.36l1.35.1-.63,1.19c-.08.17-.45,1.13-1.1,2.85l-.13.34-.33.14a2,2,0,0,1-.83.12h-.29A1.09,1.09,0,0,1,40,66.07h0s0-.27-.49-.64A2.75,2.75,0,0,0,38,64.89l-1.08-.1L36,64.73a3.65,3.65,0,0,0-.6,0,10.81,10.81,0,0,0-1,1.26l-1.28,1.83,1.22.13c.68.07,1.18.11,1.51.12h.16s.11-.12.24-.27a6.45,6.45,0,0,1,.65-.63,1.35,1.35,0,0,1,1-.3,1.67,1.67,0,0,1,1.37.55c.12.16.23.33.35.5l-3,4.34-.23.1a2,2,0,0,1-.75.09l-.3,0a1.36,1.36,0,0,1-.94-.44l-.25-.29v-.45l.1-.41c-.25,0-.69-.11-1.44-.18q-.79-.09-1.29-.12h-.31c-.62.89-1.24,1.77-1.87,2.65l-.28.43.63.09.74.08.63,0a10.53,10.53,0,0,0,2.68-.19,7,7,0,0,0,1.38-.48,8.41,8.41,0,0,0,1.55-.89,1.21,1.21,0,0,1,.9-.26c.87.08,1.34.2,1.61.61l.46.67-.62.49c-2.64,2.07-3.5,2.81-3.75,3.08l-.28.3Z"/>
                <path class="cls-3" d="M29.53,62c1.49.24,2.87.43,4.15.56.84.08,2.33.22,4.48.38l4.84.36c-.07.13-.45,1.11-1.15,3a1.19,1.19,0,0,1-.47,0h-.25c-.21,0-.31-.07-.31-.17a1.87,1.87,0,0,0-.85-1.4A3.64,3.64,0,0,0,38,64L37,63.92,36,63.86c-.63,0-1,0-1.12.13a10.57,10.57,0,0,0-1.18,1.48l-2.06,2.94c-.05.07.33.16,1.16.25l1.51.16q1,.11,1.56.12a1.82,1.82,0,0,0,.45,0A1.94,1.94,0,0,0,37,68.4a4.76,4.76,0,0,1,.56-.54.54.54,0,0,1,.43-.11h.1c.32,0,.51.08.56.15l-2.52,3.65a1.14,1.14,0,0,1-.41,0l-.25,0c-.25,0-.36-.09-.35-.2s.09-.34.12-.48,0-.23.06-.3a1.15,1.15,0,0,0,0-.19.64.64,0,0,0,0-.1s0,0-.08-.06a.18.18,0,0,1-.08-.06,7.24,7.24,0,0,0-2.13-.38c-.55-.06-1-.1-1.34-.12q-.76,0-.84.06l-2.06,2.92A3.84,3.84,0,0,0,28,74c0,.21.53.4,1.73.54l.75.08c.22,0,.44,0,.67.06a11.65,11.65,0,0,0,2.88-.2A8.34,8.34,0,0,0,35.56,74a8.9,8.9,0,0,0,1.71-1,.53.53,0,0,1,.37-.09h.11c.46,0,.72.11.78.2q-3.26,2.54-3.85,3.16c-1-.1-2.51-.27-4.61-.54L24.94,75c-1.42-.14-2.84-.3-4.27-.47,0-.06,0-.17.12-.34s.3-.36.38-.35h0l.13,0a8.77,8.77,0,0,0,1,0,2.26,2.26,0,0,0,1-.16,9.51,9.51,0,0,0,1.35-1.63q2.52-3.54,5.05-7.12a6,6,0,0,0,.86-1.5c0-.11-.18-.26-.6-.44a3.8,3.8,0,0,0-.94-.32c-.08,0,0-.12.13-.35a1,1,0,0,1,.33-.35m-.25-1.79-.4.13a2.3,2.3,0,0,0-1.12.94,2,2,0,0,0-.28,2.09c.16.31.31.62.46.93H28c-1.58,2.24-3.17,4.47-4.75,6.69a13.88,13.88,0,0,1-.88,1.12h-.25c-.37,0-.64,0-.83,0h-.13a2,2,0,0,0-1.82,1,2,2,0,0,0-.1,2.31l.5.77.88.1q2.13.26,4.26.48l5.06.67c2.11.27,3.66.44,4.64.54l.83.09.56-.6a42.66,42.66,0,0,1,3.65-3l1.24-1L40,72.15a2.24,2.24,0,0,0-1.5-.9l1.59-2.32.64-.93a1.86,1.86,0,0,0,.34,0l.35,0a2.81,2.81,0,0,0,1.18-.19l.67-.28.25-.67c.37-1,1-2.59,1.09-2.83.34-.76.68-1.52,1-2.28l-2.5-.23-4.87-.35c-2.14-.16-3.62-.3-4.46-.38-1.26-.13-2.63-.32-4.06-.55l-.43-.07Zm6.58,5.35H36l.82.06,1.1.09a1.9,1.9,0,0,1,1,.36l.11.09a4,4,0,0,0-.89-.18H38a2.2,2.2,0,0,0-1.63.54,8,8,0,0,0-.66.64l-.91-.08.42-.6c.3-.43.52-.72.69-.92Zm-5.18,7.35c.35-.5.7-1,1.06-1.51l1.08.1.49.06,0,.28.51.67.15.16-.36.1a9.68,9.68,0,0,1-2.46.17l-.44,0Z"/>
              </g>
              <g>
                <path class="cls-2" d="M48.27,78.3c-.53,0-1.05,0-1.55-.06-2.8-.19-4.77-1.14-5.85-2.79-.78-1.19-1.35-3.14.4-5.69a14.82,14.82,0,0,1,6.31-4.86,18.94,18.94,0,0,1,7.58-1.73c.31,0,.63,0,.94,0a36.34,36.34,0,0,1,6.34.85.9.9,0,0,1,.58.46c.22.45.08.86-.56,2.12-.47.94-.77,1.52-.91,1.73A1.76,1.76,0,0,1,60,69H59.8L59.37,69a1,1,0,0,1-.62-.4.91.91,0,0,1-.16-.69,1,1,0,0,0,0-.42,1.27,1.27,0,0,0-.25-.54,1.75,1.75,0,0,0-.86-.51,7.49,7.49,0,0,0-2.1-.35h-.47c-2.91,0-5.35,1.55-7.46,4.65-1,1.42-1.34,2.61-1.11,3.55.07.28.28,1.16,2.53,1.3h.42a8.72,8.72,0,0,0,3.58-.8,5.87,5.87,0,0,0,1-.58c.37-.28.68-.51.91-.7.42-.34.6-.5.95-.5,1.07,0,1.51.16,1.79.49a1,1,0,0,1,.23.7.84.84,0,0,1-.14.4A12.5,12.5,0,0,1,56,76.24c-1.26,1.21-1.7,1.48-2.08,1.55A31.7,31.7,0,0,1,48.27,78.3Z"/>
                <path class="cls-3" d="M55.16,64c.3,0,.59,0,.89,0a34.67,34.67,0,0,1,6.17.83c.09,0-.09.47-.53,1.36s-.73,1.43-.87,1.63-.38.27-.78.28h-.19l-.42-.08a1.7,1.7,0,0,0,0-.78,2.17,2.17,0,0,0-.4-.9,2.61,2.61,0,0,0-1.27-.82,8.59,8.59,0,0,0-2.34-.4h-.53q-4.79,0-8.18,5c-1.11,1.63-1.53,3-1.23,4.23s1.4,1.86,3.32,2h.47a9.51,9.51,0,0,0,3.92-.87,6.76,6.76,0,0,0,1.15-.68c.4-.29.72-.53,1-.73a3,3,0,0,1,.4-.3h0c.78,0,1.16.12,1.15.25a16.14,16.14,0,0,1-1.48,1.54,6.32,6.32,0,0,1-1.64,1.32,30.83,30.83,0,0,1-5.5.49c-.51,0-1,0-1.49-.06-2.53-.17-4.25-1-5.18-2.38s-.79-3,.4-4.72a13.89,13.89,0,0,1,5.95-4.57A17.8,17.8,0,0,1,55.16,64m0-1.74a19.71,19.71,0,0,0-7.94,1.81,15.52,15.52,0,0,0-6.67,5.15c-2,2.93-1.34,5.24-.4,6.66,1.23,1.89,3.43,3,6.52,3.19q.78,0,1.59.06a32.16,32.16,0,0,0,5.79-.52c.67-.13,1.26-.54,2.55-1.78A12.05,12.05,0,0,0,58.33,75a1.8,1.8,0,0,0,.29-.8,1.87,1.87,0,0,0-.44-1.35,3.11,3.11,0,0,0-2.36-.78h0a2.31,2.31,0,0,0-1.58.7c-.22.19-.51.4-.87.67a5.83,5.83,0,0,1-.84.49,8,8,0,0,1-3.22.72h-.37c-.37,0-1.61-.14-1.73-.63a4,4,0,0,1,1-2.86c1.93-2.85,4.14-4.24,6.74-4.27h.43a6.74,6.74,0,0,1,1.83.3,1.91,1.91,0,0,1,.49.24.64.64,0,0,1,.08.16A1.8,1.8,0,0,0,58,69a1.72,1.72,0,0,0,1.12.79,5.53,5.53,0,0,0,.63.1H60a2.56,2.56,0,0,0,2.23-1.08c.15-.23.37-.63,1-1.83s1-2,.57-2.89a1.77,1.77,0,0,0-1.24-.93,37.32,37.32,0,0,0-6.42-.85c-.33,0-.66,0-1,0Z"/>
              </g>
              <g>
                <path class="cls-2" d="M75,79.18c-.17,0-.73,0-1.68-.1S71.76,79,71.28,79,70,79,68.93,79l-2.41.07c-.11-.14-.21-.28-.32-.41a1.27,1.27,0,0,1,.22-1.38,1.41,1.41,0,0,1,1-.72h0a7.13,7.13,0,0,0,1-.14,2.92,2.92,0,0,0,.72-.19,16.13,16.13,0,0,0,1-1.34c.48-.73,1-1.46,1.43-2.19l-1.86,0-3,0-2,3c-.23.34-.39.61-.51.83a2.24,2.24,0,0,0,.39.09l.47,0c.09.14.19.28.28.43a1.13,1.13,0,0,1-.14,1.15,2.4,2.4,0,0,1-.58.69l-.26.2h-.31l-1.71-.13c-1.07-.09-1.82-.15-2.31-.16s-1.21,0-2.17,0l-2.37,0-.26-.39a1.13,1.13,0,0,1,.12-1.3c.26-.39.53-.79,1-.79h0a7.1,7.1,0,0,0,1-.1,3.17,3.17,0,0,0,.7-.15,12.44,12.44,0,0,0,1-1.36q2.55-3.82,5.1-7.68c.22-.33.37-.58.47-.76a3.54,3.54,0,0,0-.41-.08H64l-.26-.46A1.26,1.26,0,0,1,64,64.34a1.65,1.65,0,0,1,.67-.67l.2-.09,4.13.23c.45,0,1.86,0,4.19-.07h.71l.13.7a1.51,1.51,0,0,1-.34,1.07,1.38,1.38,0,0,1-1,.74h0a8.41,8.41,0,0,0-1,.14,4.69,4.69,0,0,0-.72.18A11.58,11.58,0,0,0,69.8,68l-1.09,1.66,2,.06H73.6c.57-.87,1.14-1.75,1.72-2.62.2-.32.35-.57.46-.76a1.7,1.7,0,0,0-.4-.08h-.49l-.26-.45a1.17,1.17,0,0,1,.16-1.19,2,2,0,0,1,.76-.77l.2-.1s4.19.16,4.39.15,1.59,0,3.92-.12l1,0-.19,1a1.92,1.92,0,0,1-.29.72,1.51,1.51,0,0,1-1.11.81h0a8.26,8.26,0,0,0-1,.16,3.41,3.41,0,0,0-.69.18,13.66,13.66,0,0,0-1.1,1.48q-2.49,3.84-5,7.65c-.22.34-.38.61-.5.83a1.9,1.9,0,0,0,.39.07h.5c.09.15.18.3.26.46a1.26,1.26,0,0,1-.25,1.28,3,3,0,0,1-.48.55l-.27.23Z"/>
                <path class="cls-3" d="M65,64.46c2.57.15,3.88.21,3.9.21.49,0,1.91,0,4.26-.06a.82.82,0,0,1-.19.43q-.23.33-.33.33h-.06a8.8,8.8,0,0,0-1.06.16,3.38,3.38,0,0,0-1,.3,8.6,8.6,0,0,0-1.36,1.72c-.63,1-1.26,1.92-1.9,2.88l0,.06c1.85.07,3,.1,3.41.11s1.64,0,3.38,0a.26.26,0,0,0,.11-.08l1.94-3A7.3,7.3,0,0,0,76.89,66c0-.12-.17-.23-.56-.36a3.07,3.07,0,0,0-.9-.19c-.08,0,0-.12.1-.34a1.13,1.13,0,0,1,.37-.42c2.58.1,4,.14,4.19.14s1.6,0,4-.12a1.19,1.19,0,0,1-.16.37c-.17.25-.3.39-.39.39h-.07c-.19,0-.54.07-1,.17a2.69,2.69,0,0,0-1,.33A10.44,10.44,0,0,0,80,67.66q-2.49,3.84-5,7.65a7.54,7.54,0,0,0-.91,1.74c0,.09.18.2.59.31a4.21,4.21,0,0,0,.88.17c.08,0,0,.15-.16.43a1.67,1.67,0,0,1-.32.35c-.17,0-.71,0-1.63-.1s-1.63-.1-2.12-.11-1.32,0-2.39,0L67,78.18H67c0-.06,0-.2.17-.42s.27-.33.35-.33h.09a7.62,7.62,0,0,0,1.09-.15,3,3,0,0,0,1.06-.34,9.58,9.58,0,0,0,1.23-1.6l2.23-3.4v-.08c-1.77,0-2.88-.08-3.33-.08-2,0-3.12,0-3.47,0h-.12l0,0-2.19,3.31a6.8,6.8,0,0,0-.9,1.71c0,.09.17.21.58.34a3.49,3.49,0,0,0,.86.21c.08,0,.06.1-.07.3a1.6,1.6,0,0,1-.36.45L62.49,78c-1.05-.09-1.81-.15-2.31-.16s-1.24,0-2.21,0l-1.91,0c0-.06,0-.17.12-.35a1.35,1.35,0,0,1,.32-.4h.11q.36,0,1.08-.12a2.75,2.75,0,0,0,1.05-.28A10.24,10.24,0,0,0,60,75.07q2.55-3.82,5.1-7.69A5.18,5.18,0,0,0,66,65.8c0-.15-.18-.28-.55-.4a3.54,3.54,0,0,0-.9-.19c-.07,0,0-.14.16-.4a1,1,0,0,1,.29-.35m-.28-1.76-.39.18a2.5,2.5,0,0,0-1.06,1,2.07,2.07,0,0,0-.3,2.15c.15.29.29.59.44.89-1.59,2.41-3.19,4.82-4.79,7.21a8.66,8.66,0,0,1-.81,1.08l-.32,0a7.88,7.88,0,0,1-.84.1h0a2.21,2.21,0,0,0-1.87,1.17,2,2,0,0,0-.12,2.29l.51.76H56l1.91,0c.94,0,1.65,0,2.13,0s1.22.06,2.22.15l1.79.14.64,0,.51-.4a3.15,3.15,0,0,0,.28-.25L66,80l1,0h0l2-.06,2.31,0c.47,0,1.14,0,2,.11s1.56.1,1.74.1h.68l.52-.46a3.48,3.48,0,0,0,.66-.74,2.12,2.12,0,0,0,.31-2.17l-.45-.87,4.74-7.27a9.77,9.77,0,0,1,.87-1.18l.31-.07a7.14,7.14,0,0,1,.8-.14h0a2.47,2.47,0,0,0,1.91-1.25,2.91,2.91,0,0,0,.42-1l.39-2-2.07.08c-2.3.09-3.6.13-3.88.13s-1.58,0-4.14-.14l-.45,0-.41.21a2.28,2.28,0,0,0-.5.33c0-.19-.07-.39-.1-.58l-1.43,0c-2.37.06-3.74.07-4.2.06-1.28-.06-2.57-.13-3.85-.21l-.43,0Zm7.86,4.41A2,2,0,0,0,74,66.46l.34.64-1.15,1.76H70.27l.25-.38a10.86,10.86,0,0,1,.84-1.15l.38-.08c.37-.07.64-.12.8-.13Zm-6.78,8.58c.49-.73,1-1.47,1.45-2.2l2.53,0h.35l-.6.9a11.35,11.35,0,0,1-.76,1.06l-.35.08a6.06,6.06,0,0,1-.82.12h0a2.23,2.23,0,0,0-1.45.63c-.11-.21-.22-.42-.34-.63Z"/>
              </g>
              <g>
                <path class="cls-2" d="M83.61,60.84l2-3h.49c.7,0,1.31,0,1.85-.06a7.45,7.45,0,0,0,2-.31,2.79,2.79,0,0,0,1.36-1.17,5.23,5.23,0,0,0,.37-.7,3.41,3.41,0,0,0,.2-.67c.52-2.11,1-4.22,1.55-6.34.74-3.15,1.47-6.3,2.21-9.45Q87.2,47,78.76,54.8c-.36.36-.69.69-1,1a8.11,8.11,0,0,0-.61.77c-.44.68-.39.92-.39.92s.3.32,1.93.33H80.8l-2,3q-6.94,0-13.88-.19l2-3h.74A5.77,5.77,0,0,0,70,57a15.72,15.72,0,0,0,3.32-2.4c11.19-10.1,22.38-20.49,33.56-30.94l5.69-.12-6.75,32.09c-.28,1.34-.08,1.66-.08,1.66s.39.23,1,.22l1.52,0c-.65,1-1.31,2.05-2,3.07C98.76,60.7,91.18,60.82,83.61,60.84Z"/>
                <path class="cls-3" d="M107.19,24.52l4.32-.08Q108.24,40,105,55.51a3.37,3.37,0,0,0,0,2.31,1.92,1.92,0,0,0,1.71.56l-.84,1.31c-6.9.13-13.8.25-20.7.28l.83-1.3c.71,0,1.35,0,1.9-.06a8.65,8.65,0,0,0,2.27-.36A3.72,3.72,0,0,0,92,56.7a5.67,5.67,0,0,0,.45-.84,4.94,4.94,0,0,0,.26-.86c.32-1.33.64-2.65,1-4h0c.19-.77.38-1.55.56-2.32.15-.6.29-1.21.43-1.82h0q1.22-5.16,2.41-10.31-5.5,5.18-11,10.3h0l-.26.24L84,48.79l-.63.59,0,0c-1.71,1.6-3.43,3.18-5.15,4.77-.4.38-.75.73-1,1a10,10,0,0,0-.69.88c-.58.89-.7,1.54-.34,2s1.19.62,2.55.62h.54L78.38,60c-4,0-7.91-.06-11.86-.16l.84-1.27h.29a6.48,6.48,0,0,0,2.72-.76,16.62,16.62,0,0,0,3.53-2.55c11.1-10,22.2-20.34,33.29-30.71m-.6-1.73-.53.5C95,33.65,83.86,44,72.77,54a15.22,15.22,0,0,1-3.13,2.27,4.81,4.81,0,0,1-2,.57h-.19l-1,0-.56.84-.83,1.27c-.58.86-1.15,1.72-1.72,2.59l3.06.08q5.92.13,11.86.15h1c.18-.29.37-.57.55-.85l.84-1.29,1.71-2.64H78.78a7.74,7.74,0,0,1-.79,0c.12-.16.26-.34.45-.55s.56-.6.92-1c1.71-1.57,3.42-3.16,5.12-4.74l.67-.63c.61-.55,1.21-1.11,1.81-1.67l.26-.25q3.47-3.22,6.94-6.48c-.39,1.66-.77,3.31-1.16,5-.14.61-.29,1.22-.43,1.83S92.2,50,92,50.71c-.32,1.33-.65,2.65-1,4a2.3,2.3,0,0,1-.18.59,2.77,2.77,0,0,1-.28.54,2,2,0,0,1-.89.8,7.39,7.39,0,0,1-1.77.25c-.53,0-1.12.05-1.8.06h-1l-.56.86-.84,1.29L82,61.72h3.06c6.9,0,13.8-.14,20.7-.27l1,0,.55-.87.84-1.3,1.71-2.67-3,.06h-.28a5.81,5.81,0,0,1,.13-.89l6.54-31.07.42-2-2,0-4.32.09Z"/>
              </g>
              <path class="cls-4" d="M144.93,3.48a68.74,68.74,0,0,1,24.32,4.46C146,11.76,128,30.78,116.65,47c-6.48,9.29-14.29,19.82-24.9,27l0,0,0,0a58.15,58.15,0,0,1-24.91,10A48.81,48.81,0,0,0,76.92,63.33l0-.15L77,63c.13-1,.39-2.17.64-3.3.12-.56.24-1.1.35-1.62a68.35,68.35,0,0,1,67-54.63m0-3.48A71.82,71.82,0,0,0,74.56,57.41c-.34,1.64-.82,3.51-1,5.17A45.13,45.13,0,0,1,62.79,83.41a46.59,46.59,0,0,1-5,4.76h1.1A60.69,60.69,0,0,0,93.71,76.94c10.68-7.27,18.44-17.39,25.8-27.93,13.5-19.26,33.55-38.27,58.16-38.27,1.44,0,2.89.06,4.35.19.72,0,1.15.07,1.15.07-1-.66-2.09-1.25-3.17-1.86a71.1,71.1,0,0,0-16.86-6.8A72,72,0,0,0,144.93,0Z"/>
              <g>
                <path class="cls-2" d="M94,79.14a1.43,1.43,0,0,1-1.32-.91q-2.13-4.49-4.27-9-2.11,3.29-4.25,6.56a7.84,7.84,0,0,0-.41.69l.07,0a4.9,4.9,0,0,0,1,.17h.49l.25.43a1.19,1.19,0,0,1-.18,1.21,2.31,2.31,0,0,1-.57.7l-.25.18h-.29c-.18,0-.74,0-1.69-.08S81,79,80.53,79s-1.06,0-1.78.06l-2.28.11-.26-.34a1.19,1.19,0,0,1,.15-1.37,1.41,1.41,0,0,1,1.06-.8h.28l.36,0a6,6,0,0,0,1-.2,3.09,3.09,0,0,0,.88-.37,4.55,4.55,0,0,0,1-1.24l5.24-8.08a4.18,4.18,0,0,0,.24-.4c-.48-.05-.84-.08-1.09-.08h-.48l-.27-.43a1.2,1.2,0,0,1,.13-1.18,1.94,1.94,0,0,1,.76-.81l.22-.1,2,.09c.85,0,1.53.06,2,.06l1.19-.05,1.65-.14.86-.09c0,.28,0,.57,0,.85a5.58,5.58,0,0,0,.52,1.73c.37.86.87,1.93,1.51,3.21.33.68.63,1.29.88,1.84l2.82-4.38a6.68,6.68,0,0,0,.34-.58l-.1,0a3.82,3.82,0,0,0-.82-.15l-.5,0-.27-.45a1.21,1.21,0,0,1,.14-1.17,2.08,2.08,0,0,1,.66-.77l.25-.15h.28c1.66.08,2.87.12,3.62.1.46,0,1.11,0,2-.11l2.35-.18.17.84a1.53,1.53,0,0,1-.28.89,1.57,1.57,0,0,1-1.11.84l-.42,0a4.76,4.76,0,0,0-2,.59,3.79,3.79,0,0,0-1,1.21l-5.07,7.88c-.32.49-.9,1.45-1.73,2.87l-.15.24-.25.13a2,2,0,0,1-.78.18Z"/>
                <path class="cls-3" d="M85.78,64.65l1.77.08c.87,0,1.55.06,2,.06.33,0,.74,0,1.23-.05s1-.08,1.69-.15a6.25,6.25,0,0,0,.59,2c.37.87.88,2,1.52,3.26S95.76,72.22,96.1,73a6.09,6.09,0,0,0,.61-.84l3.13-4.88c.51-.79.71-1.28.6-1.48s-.35-.29-.82-.4a4.43,4.43,0,0,0-1-.17c-.07,0,0-.12.08-.34A1.31,1.31,0,0,1,99,64.5c1.69.09,2.91.12,3.68.11.47,0,1.14,0,2-.12h0l1.65-.12a.69.69,0,0,1-.13.37c-.16.26-.3.39-.39.4h0l-.41,0a5.73,5.73,0,0,0-2.41.71,4.77,4.77,0,0,0-1.37,1.52l-5.07,7.89c-.32.49-.91,1.46-1.76,2.9a1.71,1.71,0,0,1-.43.08H94c-.23,0-.42-.15-.57-.47Q91,72.64,88.53,67.46l-5.12,7.9a3.75,3.75,0,0,0-.72,1.46c0,.23.31.41.85.54a6.65,6.65,0,0,0,1.25.19c.06,0,0,.12-.12.35a1.93,1.93,0,0,1-.33.43l-1.63-.08c-.93,0-1.63-.08-2.13-.08s-1.09,0-1.84.06h-.1l-.69,0-1,0s0-.16.16-.36.28-.39.34-.4h.28l.4,0a7.25,7.25,0,0,0,1.1-.23,4,4,0,0,0,1.15-.5,5.36,5.36,0,0,0,1.27-1.5q2.63-4,5.24-8.09c.47-.71.64-1.2.52-1.46q0-.15-.84-.24a7.76,7.76,0,0,0-1.19-.09c-.08,0,0-.12.07-.34a1.1,1.1,0,0,1,.36-.43m-.27-1.77-.42.22a2.74,2.74,0,0,0-1.18,1.2,2,2,0,0,0-.13,2l.46.83h.64L80.17,74.4a4.43,4.43,0,0,1-.74,1,2.23,2.23,0,0,1-.61.25,4.83,4.83,0,0,1-.8.17l-.32,0h-.19a2.38,2.38,0,0,0-1.88,1.23,2,2,0,0,0-.12,2.37l.51.68.88,0,1,0,.69,0h0c.81,0,1.39-.07,1.84-.07s1.13,0,2,.08,1.56.08,1.74.08h.6l.48-.36a3.24,3.24,0,0,0,.82-1,2.08,2.08,0,0,0,.21-2.09l-.47-.86h-.74c1-1.59,2.07-3.18,3.1-4.78l3.61,7.62A2.22,2.22,0,0,0,93.9,80h.45a2.88,2.88,0,0,0,1.13-.28l.5-.25.29-.49c.82-1.4,1.39-2.34,1.71-2.83l5.07-7.89a3.2,3.2,0,0,1,.72-.89,3.75,3.75,0,0,1,1.62-.47h.32a2.54,2.54,0,0,0,1.94-1.29,2.45,2.45,0,0,0,.42-1.43c0-.56,0-1.11-.07-1.67l-1.67.13-.28,0-1.36.1c-.84.06-1.48.1-1.93.11s-1.55,0-3.55-.1l-.56,0-.5.31a3.07,3.07,0,0,0-1,1.11,2,2,0,0,0-.16,2c.14.27.29.54.43.82l.62,0-1.61,2.49L96.2,69c-.61-1.22-1.11-2.29-1.49-3.17a4.83,4.83,0,0,1-.45-1.44l-.09-1.7-1.7.17c-.63.06-1.17.11-1.64.14s-.83,0-1.13,0c-.47,0-1.13,0-2-.06l-1.51-.07H86l-.47,0Z"/>
              </g>
              <g>
                <path class="cls-2" d="M104.25,60.59c.66-1,1.31-2,2-3.05l.76,0a8.57,8.57,0,0,0,4-1.17,11.43,11.43,0,0,0,3.34-3.62Q121.57,41.35,128.85,30c1.44-2.24,1.3-3,1.25-3.09-.1-.3-.77-.63-2.33-.66l-1.46,0c.64-1,1.29-2,1.93-3,8.1-.14,16.19-.22,24.28-.16-.66,1-1.32,2-2,3l-.49,0a8.86,8.86,0,0,0-4.27,1.1,11.16,11.16,0,0,0-3.3,3.53Q135.21,42,127.93,53.33c-1.44,2.24-1.31,3-1.26,3.07.1.3.77.63,2.35.68l1.44,0c-.64,1-1.28,2-1.93,3C120.44,60.25,112.35,60.44,104.25,60.59Z"/>
                <path class="cls-3" d="M128.69,24.1c7.42-.12,14.84-.2,22.25-.16l-.85,1.31h-.21a9.6,9.6,0,0,0-4.51,1.23,11.88,11.88,0,0,0-3.6,3.83q-7.29,11.24-14.56,22.57c-1.18,1.83-1.63,3.11-1.37,3.86s1.3,1.14,3.09,1.2l-.84,1.3c-7.42.13-14.84.3-22.26.44l.84-1.31.31,0a9.43,9.43,0,0,0,4.39-1.31A12.48,12.48,0,0,0,115,53.13q7.27-11.34,14.56-22.67c1.17-1.82,1.63-3.11,1.36-3.86s-1.3-1.16-3.08-1.19l.84-1.31m-.89-1.73c-.19.29-.37.58-.56.86-.27.44-.55.87-.83,1.31l-1.65,2.55,2.92.06a4.49,4.49,0,0,1,1.57.23,8.15,8.15,0,0,1-1.12,2.21q-7.29,11.33-14.56,22.68a10.86,10.86,0,0,1-3,3.32,7.63,7.63,0,0,1-3.55,1l-.27,0-.95,0c-.18.28-.35.56-.53.83l-.84,1.31-1.71,2.66,3-.05c7.42-.15,14.84-.32,22.26-.44l1,0,.55-.86.84-1.3L132,56.29l-2.89-.09a4.59,4.59,0,0,1-1.59-.24,9,9,0,0,1,1.13-2.2q7.28-11.31,14.56-22.55a10.17,10.17,0,0,1,3-3.24,7.83,7.83,0,0,1,3.67-1h.19l.93,0c.18-.27.36-.54.53-.81.29-.43.57-.87.86-1.31l1.71-2.62-3.06,0c-7.42,0-14.84,0-22.25.16Z"/>
              </g>
              <g>
                <path class="cls-5" d="M155.69,59.89c-1.22.06-2.46.08-3.74.07-7.46-.05-14.92,0-22.38.14l2.1-3.26.84,0a9,9,0,0,0,4.3-1.33,14.22,14.22,0,0,0,3.87-4.23q8.46-13.08,16.93-26c1.64-2.5,1.64-3.43,1.55-3.72-.13-.48-1-.81-2.49-.89l-1.46-.08,2.07-3.16c7.74.12,15.47.39,23.2.89s12.65,3,14.6,7.12.73,9.32-3.61,15.57a41.16,41.16,0,0,1-9.58,9.74,53.22,53.22,0,0,1-13,6.87,36.47,36.47,0,0,1-7.65,1.8C159.45,59.65,157.6,59.81,155.69,59.89Z"/>
                <path class="cls-3" d="M157.73,18.29c7.57.12,15.14.39,22.7.88S192.49,22,194.3,25.76s.62,8.7-3.55,14.72A40.45,40.45,0,0,1,181.37,50a52.22,52.22,0,0,1-12.81,6.76,36.46,36.46,0,0,1-7.45,1.75c-1.73.24-3.53.4-5.42.48-1.2.06-2.43.08-3.69.07-6.95-.05-13.9,0-20.85.11l1-1.51.38,0a9.89,9.89,0,0,0,4.74-1.47,15.17,15.17,0,0,0,4.15-4.52q8.46-13.08,16.93-26c1.37-2.08,1.92-3.56,1.67-4.44s-1.33-1.4-3.25-1.5l1-1.49m-.89-1.75-.56.84-1,1.49-1.64,2.5c1,0,1.94.1,2.91.15a4,4,0,0,1,1.74.35,7.64,7.64,0,0,1-1.43,2.93q-8.47,12.9-16.93,26a13.25,13.25,0,0,1-3.59,4,8.14,8.14,0,0,1-3.86,1.18h-.34l-.95.05-.54.83-1,1.51c-.57.89-1.14,1.78-1.72,2.67l3.06,0c6.95-.11,13.9-.17,20.85-.12,1.29,0,2.56,0,3.79-.07,1.94-.08,3.82-.25,5.6-.49a39,39,0,0,0,7.84-1.85,54.78,54.78,0,0,0,13.28-7,42.1,42.1,0,0,0,9.78-9.94c4.52-6.5,5.76-12,3.67-16.42s-7.25-7.13-15.33-7.65c-7.57-.49-15.14-.76-22.71-.88Z"/>
              </g>
              <g>
                <path class="cls-2" d="M43.29,59.57l2.09-3.06h.8a13.38,13.38,0,0,0,2.94-.19,1.64,1.64,0,0,0,1-.61,1.85,1.85,0,0,0,.25-.55A6.52,6.52,0,0,0,50.54,54q.27-6.12.56-12.23l-1.79,1.09q-3,4.46-6,8.87c-1.69,2.46-1.79,3.42-1.75,3.72.06.55,1.09.78,1.7.87l1.39.19c-.66,1-1.32,2-2,3-8.35-.65-16.71-1.59-25.07-2.92l2.1-2.9.84.09a7.83,7.83,0,0,0,4.3-.66,11.35,11.35,0,0,0,3.87-3.71Q37.13,37.42,45.6,25c1.64-2.42,1.64-3.35,1.56-3.64-.14-.49-1-.86-2.5-1l-1.46-.16,2.07-3c8.4.59,16.79.9,25.19,1l-2.12,3.21h-.47a7.51,7.51,0,0,0-4,1.14,14.93,14.93,0,0,0-3.68,4.11l-6.05,9.05c6-3.73,11.93-7.6,17.9-11.54a22,22,0,0,0,2-1.44,6.06,6.06,0,0,0,.92-.94,6.63,6.63,0,0,0-2.29-.3l-1.53,0,2.13-3.24c5.36.06,10.72.05,16.07,0l-2.12,3.28h-1l-.59,0a11.44,11.44,0,0,0-3.29.72,22.55,22.55,0,0,0-4.52,2.46q-5.59,3.74-11.17,7.38Q66.31,43.22,66,54.37a5.12,5.12,0,0,0,.43,2.35,1.45,1.45,0,0,0,1.09.75l1.26.23-2,3C58.94,60.52,51.11,60.17,43.29,59.57Z"/>
                <path class="cls-3" d="M45.72,18c7.72.54,15.44.84,23.16,1-.33.51-.66,1-1,1.51h-.12a8.15,8.15,0,0,0-4.33,1.28,15.42,15.42,0,0,0-3.94,4.36q-4.16,6.24-8.32,12.41c7.11-4.41,14.23-9,21.35-13.71a20.55,20.55,0,0,0,2.07-1.51,6.06,6.06,0,0,0,1.16-1.23A.68.68,0,0,0,75.47,21a6.89,6.89,0,0,0-2.74-.41l1-1.52c4.69.06,9.37.05,14.06,0-.34.51-.67,1-1,1.54h-.49l-.64,0a12.16,12.16,0,0,0-3.55.77A22.77,22.77,0,0,0,77.38,24q-5.79,3.87-11.57,7.63l-.72,22.75a5.82,5.82,0,0,0,.54,2.79,2.24,2.24,0,0,0,1.67,1.17l-1,1.48c-7.15-.17-14.3-.48-21.45-1l1-1.43h.34a13.79,13.79,0,0,0,3.15-.22,2.43,2.43,0,0,0,1.54-1,2.54,2.54,0,0,0,.37-.8,6.85,6.85,0,0,0,.16-1.34q.33-6.95.64-13.88l-3.34,2q-3.08,4.53-6.14,9c-1.37,2-2,3.43-1.9,4.31s.93,1.43,2.47,1.65l-1,1.43C34.5,58,26.82,57.16,19.14,56l1-1.36.38,0a8.66,8.66,0,0,0,4.74-.74,12.12,12.12,0,0,0,4.15-4q8.46-12,16.93-24.48c1.37-2,1.92-3.46,1.67-4.36s-1.33-1.44-3.25-1.66l1-1.43m-.89-1.81-.56.81-1,1.43-1.64,2.39,2.91.34a4.18,4.18,0,0,1,1.74.45,7.23,7.23,0,0,1-1.43,2.85Q36.4,36.89,28,48.88a10.58,10.58,0,0,1-3.59,3.47,7.12,7.12,0,0,1-3.86.57l-.33,0-1-.12-.54.74-1,1.35L16,57.22,19,57.7c7.56,1.17,15.11,2,22.67,2.62h0l.85.07.53,0,1.68.13c7.15.51,14.3.82,21.45,1l1,0c.19-.28.37-.56.55-.84l1-1.48c.48-.73,1-1.46,1.45-2.19l-2.53-.44a.64.64,0,0,1-.51-.34,4.27,4.27,0,0,1-.32-2l.69-21.76Q72.91,29,78.29,25.42a21.57,21.57,0,0,1,4.33-2.37,10.71,10.71,0,0,1,3-.66l.54,0h1.48l.55-.85c.34-.51.67-1,1-1.54l1.71-2.65-3.06,0q-7,0-14.05,0h-1l-.56.85-1,1.51-1.72,2.61,3.06,0,.5,0c-.42.32-.92.67-1.52,1.06q-7.23,4.77-14.46,9.37l3.78-5.68a13.85,13.85,0,0,1,3.43-3.86,6.46,6.46,0,0,1,3.4-1l.93,0,.64-.8,1-1.51c.57-.87,1.14-1.74,1.72-2.61l-3.06,0c-7.72-.14-15.44-.44-23.17-1l-1-.07Zm5.1,27.3.22-.13L49.67,54a5.42,5.42,0,0,1-.11,1,.83.83,0,0,1-.13.3.89.89,0,0,1-.52.25,12,12,0,0,1-2.73.17h-.32l-.94,0,0,0-1.55-.21a3.09,3.09,0,0,1-.93-.24,9.71,9.71,0,0,1,1.59-3q3-4.35,5.93-8.73Z"/>
              </g>
              <g>
                <path class="cls-5" d="M177,60.69a.88.88,0,0,1-.73-.48.9.9,0,0,1,.06-.87l.84-1.25a.89.89,0,0,1,.72-.38h.31a8.14,8.14,0,0,0,4-.84,10.1,10.1,0,0,0,3.34-3.31q7.27-10.62,14.56-20.94c1.44-2,1.3-2.79,1.25-2.91-.1-.32-.77-.75-2.33-1a.94.94,0,0,1-.71-.54.86.86,0,0,1,.07-.85l.84-1.19a.78.78,0,0,1,.72-.34c0-.27,22.31,3.31,22.3,3.6a1,1,0,0,1,.73.59.85.85,0,0,1,0,.86L222,32a.74.74,0,0,1-.72.28h0a8.06,8.06,0,0,0-4.28.28,8.55,8.55,0,0,0-3.3,3q-7.27,9.95-14.56,20.29c-1.44,2.05-1.31,2.78-1.26,2.91.1.3.78.72,2.35,1a1,1,0,0,1,.7.54.86.86,0,0,1-.07.85L200,62.27a.83.83,0,0,1-.72.34C199.27,62.38,177,60.49,177,60.69Z"/>
                <path class="cls-3" d="M199.89,26.67c7.42.9,14.84,2.07,22.25,3.59l-.85,1.14-.21,0a8.51,8.51,0,0,0-4.51.37,9.08,9.08,0,0,0-3.6,3.19l-.72,1q-6.93,9.49-13.84,19.34c-1.18,1.66-1.63,2.89-1.37,3.67s1.3,1.31,3.09,1.62l-.84,1.19c-7.42-.89-14.84-1.5-22.26-1.92l.84-1.24h.31a9,9,0,0,0,4.39-.94,10.9,10.9,0,0,0,3.64-3.57q3.16-4.64,6.34-9.2,4.11-5.91,8.22-11.72c1.17-1.66,1.63-2.88,1.36-3.67s-1.3-1.34-3.08-1.62l.84-1.19m0-1.74a1.6,1.6,0,0,0-1.44.67l-.84,1.2a1.69,1.69,0,0,0-.13,1.71,1.88,1.88,0,0,0,1.4,1.07,4.93,4.93,0,0,1,1.57.44,6.9,6.9,0,0,1-1.12,2.06q-4.11,5.84-8.22,11.76-3.17,4.59-6.34,9.22a9.49,9.49,0,0,1-3,3,7.44,7.44,0,0,1-3.56.73h-.31a1.76,1.76,0,0,0-1.44.77l-.84,1.24a1.77,1.77,0,0,0-.12,1.75,1.74,1.74,0,0,0,1.47,1c7.41.41,14.83,1,22.25,1.91h.1a1.63,1.63,0,0,0,1.44-.68l.84-1.18a1.72,1.72,0,0,0,.14-1.7,1.9,1.9,0,0,0-1.4-1.09,5.31,5.31,0,0,1-1.59-.46,7.56,7.56,0,0,1,1.13-2q6.92-9.8,13.84-19.27l.72-1a7.76,7.76,0,0,1,3-2.7,7,7,0,0,1,3.67-.26l.19,0h0a1.5,1.5,0,0,0,1.44-.55l.86-1.14a1.69,1.69,0,0,0,.11-1.73,2.07,2.07,0,0,0-1.46-1.18c-7.42-1.53-14.83-2.7-22.25-3.6Z"/>
              </g>
              <path class="cls-3" d="M174.6,46.08c-11.46,8.3-27.82,10.19-27.82,10.21A37.87,37.87,0,0,1,160.46,34.9c11.46-8.81,27.82-9.5,27.81-9.43A35.67,35.67,0,0,1,174.6,46.08Z"/>
              <path class="cls-5" d="M144.94,56.42c10.16-7.51,20.32-14.84,30.48-21.8-9.7,7.59-19.41,15.5-29.12,23.6l-1.36-1.8Z"/>
            </g>
            <g>
              <g>
                <path class="cls-2" d="M108.94,79l-.85,0c-2.81.06-4.78-.71-5.86-2.27s-1-3.62.49-5.88A16.31,16.31,0,0,1,109,65.48a19,19,0,0,1,7.36-2.26c.29,0,.58,0,.87,0,2.8-.05,4.77.71,5.85,2.28.78,1.13,1.33,3.07-.48,5.89a16.16,16.16,0,0,1-6.28,5.36A19.16,19.16,0,0,1,108.94,79Zm6.71-12.85a5.92,5.92,0,0,0-2.33.72,9.79,9.79,0,0,0-2.41,1.82,16.33,16.33,0,0,0-2,2.52,10.13,10.13,0,0,0-1,1.9,6.31,6.31,0,0,0-.41,1.75,1,1,0,0,0,.33.89,2.19,2.19,0,0,0,1.52.37h.28a6.39,6.39,0,0,0,3.41-1.44A14.27,14.27,0,0,0,116.42,71a13.4,13.4,0,0,0,1.08-2,5.93,5.93,0,0,0,.42-1.71.83.83,0,0,0-.31-.8,2.62,2.62,0,0,0-1.67-.35Z"/>
                <path class="cls-3" d="M116.35,64.09c.28,0,.55,0,.82,0Q121,64,122.34,66c.94,1.35.77,3-.47,4.93a15.19,15.19,0,0,1-5.91,5,18.27,18.27,0,0,1-7,2.15l-.81,0c-2.52.05-4.24-.6-5.17-1.93s-.76-3,.49-4.92a15.16,15.16,0,0,1,5.9-5,18,18,0,0,1,7-2.16m-6.68,12.85a7.33,7.33,0,0,0,3.9-1.63,15.23,15.23,0,0,0,3.58-3.91,14,14,0,0,0,1.15-2.17,6.67,6.67,0,0,0,.49-2,1.65,1.65,0,0,0-.61-1.51,3.41,3.41,0,0,0-2.19-.52l-.33,0a6.8,6.8,0,0,0-2.7.83,10.67,10.67,0,0,0-2.66,2,17.28,17.28,0,0,0-2.09,2.67,10.83,10.83,0,0,0-1.07,2.08,7.23,7.23,0,0,0-.47,2,1.78,1.78,0,0,0,.6,1.57,3,3,0,0,0,2.07.57l.33,0m6.68-14.59h0a19.85,19.85,0,0,0-7.71,2.37A17.18,17.18,0,0,0,102,70.41c-2.08,3.24-1.42,5.51-.5,6.85,1.25,1.79,3.44,2.68,6.54,2.61.3,0,.6,0,.9,0a20,20,0,0,0,7.72-2.36,17,17,0,0,0,6.65-5.7c2.08-3.24,1.42-5.51.49-6.85-1.24-1.8-3.44-2.68-6.53-2.62-.3,0-.61,0-.92.05ZM109.67,75.2h-.24a1.67,1.67,0,0,1-1-.16c-.06-.06-.08-.07-.07-.23a5.43,5.43,0,0,1,.35-1.49,9.5,9.5,0,0,1,.89-1.73,14.87,14.87,0,0,1,1.86-2.37,8.81,8.81,0,0,1,2.18-1.63,4.8,4.8,0,0,1,2-.62l.23,0c.89,0,1.13.17,1.14.18a4.06,4.06,0,0,1-.34,1.54,11.3,11.3,0,0,1-1,1.85A13.24,13.24,0,0,1,112.59,74a5.52,5.52,0,0,1-2.92,1.25Z"/>
              </g>
              <g>
                <path class="cls-2" d="M133,78.37l-5.09,0c-2.28,0-3.84,0-4.66,0l-4.69.23-.25-.36a1.13,1.13,0,0,1,.12-1.32,1.61,1.61,0,0,1,1.1-.86h.08c.32,0,.61-.08,1-.15a3.45,3.45,0,0,0,.66-.17c0-.09.42-.53,1.09-1.57l5.1-7.93c.18-.29.31-.51.4-.67a2.06,2.06,0,0,0-.41-.07H127c-.09-.15-.18-.3-.26-.45a1.23,1.23,0,0,1,.21-1.22,2,2,0,0,1,.71-.76l.2-.09,4.27.06,4-.18,1-.05c-.07.35-.13.69-.2,1a2,2,0,0,1-.29.71,1.47,1.47,0,0,1-1.08.82h0a10,10,0,0,0-1,.17,4.13,4.13,0,0,0-.71.19,13.32,13.32,0,0,0-1,1.39q-2.53,3.92-5.06,7.85l-.3.49h1.37l.63,0a11.89,11.89,0,0,0,2.67-.52,8.3,8.3,0,0,0,1.39-.65,9.06,9.06,0,0,0,1.54-1.06,1.57,1.57,0,0,1,.94-.35c.82,0,1.3.06,1.57.44l.47.63-.63.55A51,51,0,0,0,133.73,78l-.28.33Z"/>
                <path class="cls-3" d="M128,63.94,132,64l4.09-.18a1.24,1.24,0,0,1-.16.38c-.16.25-.29.39-.36.39h-.07c-.19,0-.55.08-1.08.19a2.63,2.63,0,0,0-1,.33,10.28,10.28,0,0,0-1.28,1.66l-5.05,7.86a4.77,4.77,0,0,0-.74,1.49q-.08.33,1.74.3h.74c.23,0,.45,0,.67,0a12.73,12.73,0,0,0,2.89-.56A9.76,9.76,0,0,0,134,75.1a10.19,10.19,0,0,0,1.7-1.17.65.65,0,0,1,.4-.13h.09c.45,0,.71,0,.77.12q-3.24,2.86-3.84,3.57c-1.09,0-2.78,0-5.08,0l-4.67,0-4.26.21s0-.17.11-.35.31-.41.38-.42h.15a8.93,8.93,0,0,0,1-.15,2.76,2.76,0,0,0,1-.33,12.49,12.49,0,0,0,1.35-1.84l5.1-7.93A4,4,0,0,0,129,65.2c0-.11-.22-.22-.58-.33a3.23,3.23,0,0,0-.87-.16c-.07,0,0-.12.12-.35a1.55,1.55,0,0,1,.32-.42m-.27-1.75-.4.19a2.83,2.83,0,0,0-1.09,1.11,2,2,0,0,0-.27,2.1l.45.87-4.73,7.36a13.41,13.41,0,0,1-.87,1.26l-.25,0a6.87,6.87,0,0,1-.82.13h-.15a2.53,2.53,0,0,0-1.82,1.29,2,2,0,0,0-.12,2.3l.5.71.9,0,4.27-.21,4.6,0,5.09,0h.84l.56-.67A48.66,48.66,0,0,1,138,75.19l1.26-1.11-.94-1.26a2.42,2.42,0,0,0-2.09-.77h-.19a2.45,2.45,0,0,0-1.51.61,9.27,9.27,0,0,1-1.35.92,6.79,6.79,0,0,1-1.22.57,10.79,10.79,0,0,1-2.47.48l-.43,0q2.25-3.51,4.52-7a10.18,10.18,0,0,1,.78-1.08,2.21,2.21,0,0,1,.32-.07,6.94,6.94,0,0,1,.84-.15h0a2.48,2.48,0,0,0,1.88-1.28,2.86,2.86,0,0,0,.42-1c.13-.69.25-1.37.38-2.05l-2.06.09-4,.18-4-.06Z"/>
              </g>
              <g>
                <path class="cls-2" d="M146,78.4c-.29,0-.57,0-.86,0-2.8,0-4.77-.78-5.85-2.36-.78-1.13-1.32-3.07.49-5.87A15.79,15.79,0,0,1,146,64.93a18.27,18.27,0,0,1,7.38-2.09l.85,0c2.8,0,4.76.88,5.85,2.49.78,1.16,1.33,3.12-.48,5.87a15.63,15.63,0,0,1-6.28,5.15A19.42,19.42,0,0,1,146,78.4Zm6.72-12.69a5.79,5.79,0,0,0-2.34.66A9.59,9.59,0,0,0,148,68.13a16.4,16.4,0,0,0-2,2.48,9.49,9.49,0,0,0-1,1.89,6.16,6.16,0,0,0-.41,1.74,1,1,0,0,0,.33.9,2.28,2.28,0,0,0,1.51.39h.29a6.27,6.27,0,0,0,3.41-1.36,13.9,13.9,0,0,0,3.34-3.57,12.29,12.29,0,0,0,1.08-2,5.81,5.81,0,0,0,.42-1.69.88.88,0,0,0-.31-.81,2.61,2.61,0,0,0-1.67-.39Z"/>
                <path class="cls-3" d="M153.42,63.71l.8,0q3.78,0,5.17,2.12t-.47,4.91A14.66,14.66,0,0,1,153,75.55a18.16,18.16,0,0,1-7,2q-.41,0-.81,0c-2.52,0-4.25-.66-5.17-2s-.76-3,.48-4.91a14.72,14.72,0,0,1,5.91-4.94,17.35,17.35,0,0,1,7-2m-6.7,12.68a7.23,7.23,0,0,0,3.9-1.53A15,15,0,0,0,154.19,71a14.26,14.26,0,0,0,1.16-2.13,6.77,6.77,0,0,0,.49-2,1.67,1.67,0,0,0-.62-1.52,3.4,3.4,0,0,0-2.18-.59h-.33a6.56,6.56,0,0,0-2.71.76,10.35,10.35,0,0,0-2.65,1.94,15.9,15.9,0,0,0-2.09,2.63,10.41,10.41,0,0,0-1.07,2.06,7.15,7.15,0,0,0-.47,2,1.82,1.82,0,0,0,.59,1.57,3,3,0,0,0,2.07.6h.34M153.42,62h0a19.22,19.22,0,0,0-7.74,2.18,16.67,16.67,0,0,0-6.63,5.61c-2.08,3.22-1.42,5.5-.5,6.84,1.24,1.8,3.44,2.7,6.53,2.7.3,0,.61,0,.91,0a19.89,19.89,0,0,0,7.72-2.17,16.48,16.48,0,0,0,6.65-5.46c2.08-3.16,1.41-5.46.49-6.84C159.6,63,157.41,62,154.32,62c-.3,0-.6,0-.9,0Zm-6.7,12.68h-.24a1.69,1.69,0,0,1-1-.18c-.05,0-.07-.07-.06-.22a5.22,5.22,0,0,1,.35-1.5,9,9,0,0,1,.89-1.7,14.59,14.59,0,0,1,1.85-2.33,8.74,8.74,0,0,1,2.18-1.59,4.87,4.87,0,0,1,2-.56h.23c.89,0,1.13.19,1.14.2a4.1,4.1,0,0,1-.34,1.54,11.92,11.92,0,0,1-1,1.82,12.73,12.73,0,0,1-3.12,3.33,5.33,5.33,0,0,1-2.91,1.18Z"/>
              </g>
              <g>
                <path class="cls-2" d="M166.71,78.65q-.84,0-1.74,0c-2.81-.08-4.76-.92-5.81-2.52-.76-1.15-1.3-3.07.45-5.72A15.26,15.26,0,0,1,166,65.25a18.18,18.18,0,0,1,7.56-1.87l.89,0a31.78,31.78,0,0,1,6.34,1,1,1,0,0,1,.58.48c.21.43.11.79-.62,2.27-.52,1-.85,1.65-1,1.85a1.42,1.42,0,0,1-1.21.52,3.18,3.18,0,0,1-1.38-.27.87.87,0,0,1-.42-1,1.29,1.29,0,0,0,0-.48,1.94,1.94,0,0,0-.24-.62,1.53,1.53,0,0,0-.77-.51,6.71,6.71,0,0,0-2-.37h-.5c-2.92,0-5.35,1.58-7.44,4.73a7.82,7.82,0,0,0-1.17,2.53,1.7,1.7,0,0,0,.32,1.58,3.25,3.25,0,0,0,2.28.74h.44a4,4,0,0,0,1.26-.2.57.57,0,0,0,.28-.25l.85-1.26c.26-.4.44-.7.57-.92l-.51,0a.92.92,0,0,1-.76-.47,1.17,1.17,0,0,1,.16-1.18,1.82,1.82,0,0,1,.79-.76.88.88,0,0,1,.32-.07l2.91.23,1.33.08c.29,0,1.59,0,3.92.1a.88.88,0,0,1,.84,1,1.78,1.78,0,0,1-.32.74,1.36,1.36,0,0,1-1.07.73h-.06a6.35,6.35,0,0,0-1.47.18h0a4.21,4.21,0,0,0-1,1.18l-.78,1.15a1.33,1.33,0,0,0-.15.27,1.55,1.55,0,0,1-.17.48,2.45,2.45,0,0,1-1.51.91c-.89.22-1.58.39-2.05.48a22.88,22.88,0,0,1-2.45.32C168,78.6,167.36,78.64,166.71,78.65Z"/>
                <path class="cls-3" d="M173.52,64.25l.84,0a30.11,30.11,0,0,1,6.17,1c.09,0-.11.52-.6,1.5s-.8,1.58-.92,1.77a.64.64,0,0,1-.48.13h-.15a2.15,2.15,0,0,1-.82-.15,2.12,2.12,0,0,0,.06-.8,2.7,2.7,0,0,0-.34-.94,2.35,2.35,0,0,0-1.21-.9,7.2,7.2,0,0,0-2.31-.43h-.55c-3.2,0-5.92,1.75-8.16,5.13a8.69,8.69,0,0,0-1.3,2.83,2.56,2.56,0,0,0,.48,2.3,3.75,3.75,0,0,0,2.92,1.06h.49a4.55,4.55,0,0,0,1.55-.26,1.52,1.52,0,0,0,.72-.59l.84-1.25.09-.14a6.52,6.52,0,0,0,.83-1.55c.08-.37-.42-.57-1.53-.62q-.12,0,.09-.33a1,1,0,0,1,.37-.41l1.33.11,1.52.12,1.34.08c.29,0,1.6,0,4,.1a1.06,1.06,0,0,1-.18.4c-.15.23-.27.35-.35.35H178a6.73,6.73,0,0,0-1.55.22c-.37.09-.88.6-1.51,1.54l-.77,1.15a2,2,0,0,0-.28.54.77.77,0,0,1-.06.23,1.68,1.68,0,0,1-1,.53c-.88.22-1.55.38-2,.47a21.8,21.8,0,0,1-2.35.3c-.58.06-1.18.09-1.81.1s-1.11,0-1.69,0c-2.52-.07-4.23-.78-5.13-2.15s-.76-2.95.44-4.76a14.18,14.18,0,0,1,6-4.83,17,17,0,0,1,7.2-1.79m0-1.74h0a18.78,18.78,0,0,0-7.92,2A16.25,16.25,0,0,0,158.88,70c-2,3.06-1.35,5.32-.45,6.68,1.2,1.84,3.39,2.8,6.49,2.89.62,0,1.21,0,1.79,0s1.32-.06,1.94-.12a24.2,24.2,0,0,0,2.56-.33c.47-.09,1.17-.26,2.09-.49a3.24,3.24,0,0,0,2-1.24,2.12,2.12,0,0,0,.29-.7l0-.07.78-1.15a5.33,5.33,0,0,1,.67-.87,4.61,4.61,0,0,1,.94-.12h.18a2.2,2.2,0,0,0,1.8-1.12,2.85,2.85,0,0,0,.45-1.07,1.74,1.74,0,0,0-.38-1.4,1.69,1.69,0,0,0-.87-.57,2,2,0,0,0,1.22-.8,18,18,0,0,0,1.06-2c.66-1.33,1.06-2.14.62-3a1.8,1.8,0,0,0-1.24-1,32.09,32.09,0,0,0-6.41-1c-.32,0-.63,0-.94,0ZM167.64,75h-.39c-1,0-1.5-.24-1.65-.43a.84.84,0,0,1-.16-.83,7,7,0,0,1,1.05-2.25c1.92-2.88,4.11-4.31,6.72-4.33h.45a5.57,5.57,0,0,1,1.76.31,1.27,1.27,0,0,1,.39.21,1.72,1.72,0,0,1,.09.24.49.49,0,0,1,0,.11,1.73,1.73,0,0,0,.84,2,2.2,2.2,0,0,0,.47.19l-2.3-.05c-.43,0-.87,0-1.3-.09l-1.5-.12-1.35-.1h-.15A1.8,1.8,0,0,0,170,70a2.67,2.67,0,0,0-1.2,1.11,2,2,0,0,0-.19,2,1.74,1.74,0,0,0,.65.67c-.23.36-.47.72-.71,1.07a3.3,3.3,0,0,1-.86.11Z"/>
              </g>
              <g>
                <path class="cls-2" d="M187.42,79.69c-1-.14-1.68-.22-2.16-.26s-1.27-.07-2.27-.1l-2,0a.92.92,0,0,1-.76-.45,1.13,1.13,0,0,1,.14-1.23c.23-.34.54-.8,1.09-.79h0a7.17,7.17,0,0,0,1-.09,3.12,3.12,0,0,0,.71-.14,12.24,12.24,0,0,0,1-1.33c.71-1,1.43-2.1,2.15-3.14,0-.14,0-.4-.07-.9-.1-.78-.2-1.54-.31-2.28l-.18-1.09a2.35,2.35,0,0,0-.22-1,1.94,1.94,0,0,0-.86-.23,1,1,0,0,1-.77-.52,1.14,1.14,0,0,1,.21-1.18,1.77,1.77,0,0,1,.75-.69.92.92,0,0,1,.36-.07l2.78.33,1.25.13c.44,0,1.82.12,4.15.27a.93.93,0,0,1,.85.83,1.39,1.39,0,0,1-.4,1,1.23,1.23,0,0,1-1,.63h-.15a4.75,4.75,0,0,0-.77,0h0c.1.77.21,1.53.31,2.3l2.59-1.5.93-.55a1,1,0,0,1-.53-.47,1.17,1.17,0,0,1,.16-1.17,1.67,1.67,0,0,1,.76-.69.72.72,0,0,1,.36-.06h.09c1.64.26,2.76.44,3.34.51s1.58.15,3.28.3a.92.92,0,0,1,.66.36,1,1,0,0,1,.19.73,1.76,1.76,0,0,1-.29.66,1.22,1.22,0,0,1-1.07.66h-.1a6.07,6.07,0,0,0-1.05,0,3.87,3.87,0,0,0-1.17.31c-.8.38-2.43,1.22-4.89,2.57a39.83,39.83,0,0,0-3.72,2.17l-2,3c-.24.35-.41.62-.54.85a1.76,1.76,0,0,0,.38.11,1,1,0,0,1,.76.53,1.17,1.17,0,0,1-.23,1.23,2.91,2.91,0,0,1-.45.51.84.84,0,0,1-.57.19Z"/>
                <path class="cls-3" d="M185.36,65.06l1.25.15,1.45.17,1.28.14,4.18.27a1.15,1.15,0,0,1-.23.4c-.15.2-.26.31-.32.3h-.22a7.66,7.66,0,0,0-.81,0,1.19,1.19,0,0,0-.77.25.62.62,0,0,0-.06.45c.16,1.22.33,2.45.5,3.68a.11.11,0,0,0,.1.05.57.57,0,0,0,.21-.06c.93-.49,2.08-1.14,3.46-1.93a12.1,12.1,0,0,0,2.28-1.49c.2-.28-.32-.49-1.54-.63-.08,0,0-.12.09-.33a1,1,0,0,1,.37-.38c1.67.27,2.8.45,3.39.52s1.61.15,3.32.3a.88.88,0,0,1-.15.35c-.16.22-.28.33-.36.32h0l-.19,0a6.13,6.13,0,0,0-1.1,0,4.31,4.31,0,0,0-1.42.38c-.81.38-2.46,1.23-4.94,2.6a30.3,30.3,0,0,0-3.9,2.32L189.11,76a6.61,6.61,0,0,0-.93,1.7c0,.1.17.22.57.38a4,4,0,0,0,.87.26c.08,0,0,.14-.14.38a1.79,1.79,0,0,1-.3.34l-1.66-.23c-1-.13-1.71-.22-2.21-.26s-1.29-.07-2.31-.09l-2,0c0-.06,0-.17.11-.33s.31-.4.36-.4h.1a8.6,8.6,0,0,0,1.08-.1,2.55,2.55,0,0,0,1-.26A8.62,8.62,0,0,0,185,75.77l2.27-3.31a3.93,3.93,0,0,0,0-1.31c-.09-.79-.19-1.56-.31-2.31l-.18-1.1c-.08-.84-.28-1.36-.57-1.54a2.71,2.71,0,0,0-1.32-.42c-.08,0,0-.11.11-.32a1.05,1.05,0,0,1,.39-.4m0-1.74a1.68,1.68,0,0,0-.7.13,2.62,2.62,0,0,0-1.13,1,1.93,1.93,0,0,0-.27,2.06,1.85,1.85,0,0,0,1.52,1l.19,0a1.94,1.94,0,0,1,.05.33c.06.4.13.8.19,1.21q.16,1.06.3,2.22c0,.24.05.42.06.55l-2,2.91a11.72,11.72,0,0,1-.81,1.06l-.33,0a6.64,6.64,0,0,1-.83.08h0a2.21,2.21,0,0,0-1.89,1.15,2,2,0,0,0-.18,2.18,1.77,1.77,0,0,0,1.51.88l1.94,0c1,0,1.73.05,2.24.09s1.16.12,2.1.25l1.74.23h.12a1.63,1.63,0,0,0,1.13-.38,3.24,3.24,0,0,0,.6-.66,2,2,0,0,0,.3-2.13,1.9,1.9,0,0,0-.6-.69l1.93-2.79c.26-.17,1.07-.69,3.48-2,3-1.65,4.32-2.28,4.87-2.55a3.29,3.29,0,0,1,.9-.23,5,5,0,0,1,.8,0l.19,0a2,2,0,0,0,1.81-1,2.68,2.68,0,0,0,.41-1,1.85,1.85,0,0,0-.36-1.46,1.88,1.88,0,0,0-1.33-.74c-1.73-.15-2.79-.24-3.23-.29s-1.67-.25-3.31-.51l-.19,0a1.92,1.92,0,0,0-.71.11,2.24,2.24,0,0,0-.8.58,1.86,1.86,0,0,0-1.51-1c-2.32-.15-3.69-.23-4.12-.27s-.82-.08-1.23-.13l-.54-.06-.9-.11-1.22-.15ZM193,68.23h0v0Z"/>
              </g>
            </g>
          </g>
        </g>
        <g>
          <text class="cls-6" transform="translate(12.2 139.28) scale(1 0.75)">K<tspan class="cls-7" x="9.49" y="0">ai Di R&amp;D </tspan><tspan class="cls-8" x="74.66" y="0">T</tspan><tspan class="cls-7" x="82.28" y="0">e</tspan><tspan class="cls-9" x="89.51" y="0">c</tspan><tspan class="cls-7" x="96.29" y="0">hn</tspan><tspan class="cls-10" x="113.64" y="0">o</tspan><tspan class="cls-7" x="121.37" y="0">lo</tspan><tspan class="cls-11" x="133.35" y="0">g</tspan><tspan class="cls-7" x="140.87" y="0">y C</tspan><tspan class="cls-12" x="160.37" y="0">o</tspan><tspan class="cls-7" x="167.89" y="0">., </tspan><tspan x="179.31" y="0">L</tspan><tspan class="cls-7" x="187.67" y="0">td</tspan></text>
          <text class="cls-13" transform="translate(0 125.22) scale(1 0.9)">愷迪研發<tspan class="cls-5" x="74.95" y="0">科技股份有限公司</tspan></text>
        </g>
      </g>
    </g>
  </g>
</svg>
