<svg xmlns="http://www.w3.org/2000/svg" viewBox="0 0 219.53 106.93">
  <defs>
    <style>
      .cls-1 {
        fill: #529f6f;
      }

      .cls-2 {
        fill: #00487b;
      }

      .cls-3 {
        fill: #fff;
      }

      .cls-4 {
        fill: #b2ce8a;
      }

      .cls-5 {
        fill: #0086a2;
      }
    </style>
  </defs>
  <g id="圖層_2" data-name="圖層 2">
    <g id="圖層_1-2" data-name="圖層 1">
      <g>
        <text/>        <path class="cls-1" d="M72.68,86.53a59.29,59.29,0,0,1-19.25,1.64,71.32,71.32,0,0,0,19.76,8.52A71.82,71.82,0,0,0,162,40.47c.14-.71.26-1.42.37-2.12A46.26,46.26,0,0,1,173.56,16a47,47,0,0,1,5.25-5C123.48,10.18,119.47,74.19,72.68,86.53Z"/>
        <g>
          <g>
            <g>
              <path class="cls-2" d="M9.85,74.41c-.13,0-.71-.15-1.71-.39S6.46,73.64,6,73.55s-1.27-.22-2.28-.37l-2.41-.37L1,72.38a1.07,1.07,0,0,1,.11-1.27,1.17,1.17,0,0,1,1.09-.63h0a7.38,7.38,0,0,0,1,0,4.35,4.35,0,0,0,.72,0,9.54,9.54,0,0,0,1-1.13q2.42-3.25,4.83-6.56c.26-.35.44-.62.57-.81-.27-.07-.6-.13-1-.2l-.29,0a4.09,4.09,0,0,0-1.57.09,5.24,5.24,0,0,0-1.88,1,1.1,1.1,0,0,1-.88.19,2,2,0,0,1-1.53-.79l-.36-.6C4,60.45,5.18,59.25,6.35,58l.53.2a8.57,8.57,0,0,0,1.65.51c.82.15,1.86.34,3.13.6s2.28.42,3.08.55,1.84.26,3.16.4l3.22.38.3,0a15.09,15.09,0,0,0,1.68,0l1.58-.06c-.83,1.61-1.67,3.21-2.5,4.81l-.3.11a2.58,2.58,0,0,1-1,.09l-.75-.09-.46-.49a1,1,0,0,1-.06-.85,1,1,0,0,0,0-.63,1.57,1.57,0,0,0-1-.37c-.41-.06-.77-.1-1.08-.13a3,3,0,0,0-1.05,0,8.84,8.84,0,0,0-1.19,1.41q-2.41,3.34-4.82,6.64a7.12,7.12,0,0,0-.47.7,1.89,1.89,0,0,0,.39.14l.48.1.28.48a1.14,1.14,0,0,1-.23,1.22,2.65,2.65,0,0,1-.45.48l-.27.2Z"/>
              <path class="cls-3" d="M6.66,59.05a9.52,9.52,0,0,0,1.83.55c.8.15,1.83.34,3.1.6s2.29.43,3.1.55,1.86.26,3.19.41,2.38.27,3.19.38l.36,0a16.51,16.51,0,0,0,1.76,0l-1.64,3.16a1.7,1.7,0,0,1-.68.05l-.25,0c-.17,0-.25-.06-.22-.13.41-1.3-.18-2-1.74-2.27-.43-.06-.8-.1-1.13-.13-.86-.08-1.37,0-1.55.12A8.13,8.13,0,0,0,14.57,64q-2.41,3.33-4.83,6.62a5.76,5.76,0,0,0-.85,1.52c0,.09.17.23.58.42a3.56,3.56,0,0,0,.87.34c.07,0,0,.14-.14.36a1.35,1.35,0,0,1-.3.32c-.14,0-.69-.14-1.67-.37s-1.71-.4-2.21-.49l-2.31-.37L1.76,72c0-.06,0-.16.1-.3s.31-.37.37-.36h.09a7.27,7.27,0,0,0,1.08,0,2.77,2.77,0,0,0,1.05-.13,7.34,7.34,0,0,0,1.23-1.35q2.42-3.25,4.83-6.57c.69-1,1-1.52,1-1.72a.4.4,0,0,0,0-.18,1.81,1.81,0,0,0-.54-.21,12.17,12.17,0,0,0-1.52-.33l-.34-.05A5.15,5.15,0,0,0,7.18,61,6.05,6.05,0,0,0,5,62.13a.34.34,0,0,1-.28,0H4.68c-.42-.08-.67-.17-.74-.28l2.72-2.83M6,57c-.23.25-.47.49-.71.74-.9.94-1.81,1.88-2.72,2.81l-.84.87c.24.4.48.8.71,1.2a3,3,0,0,0,2.1,1.26h0l.12,0a1.83,1.83,0,0,0,1.52-.39,4.45,4.45,0,0,1,1.54-.84,3.62,3.62,0,0,1,1-.1Q6.52,65.7,4.24,68.76a6.7,6.7,0,0,1-.76.88H3.14a4.29,4.29,0,0,1-.82,0h0a1.9,1.9,0,0,0-1.9.89,1.94,1.94,0,0,0-.11,2.25l.51.85.93.14L3.22,74l.48.07c1,.15,1.72.26,2.22.36s1.18.25,2.12.47l.32.07c.85.2,1.33.3,1.46.32l.69.11L11,75a3,3,0,0,0,.6-.62,2,2,0,0,0,.29-2.1l-.45-1q2.28-3.1,4.54-6.25a8.76,8.76,0,0,1,.92-1.13l.6,0,1,.12.11,0c-.07.17-.15.34-.22.52l.48.86a2.12,2.12,0,0,0,1.59,1l.35,0a3.18,3.18,0,0,0,1.35-.14l.59-.2c.1-.19.2-.37.29-.56l1.65-3.16,1.42-2.76L23,59.84c-.66,0-1.2,0-1.58,0l-.26,0c-.82-.11-1.9-.24-3.25-.38s-2.35-.29-3.13-.41-1.81-.3-3-.54-2.33-.46-3.15-.6a8.52,8.52,0,0,1-1.49-.46L6,57Z"/>
            </g>
            <g>
              <path class="cls-2" d="M30.28,77.13c-1-.1-2.52-.27-4.63-.54l-5.12-.68c-1.56-.16-3.12-.34-4.67-.53L15.61,75a1.08,1.08,0,0,1,.1-1.32,1.27,1.27,0,0,1,1.1-.67h.06a8.23,8.23,0,0,0,1,0,2.4,2.4,0,0,0,.67-.07,17,17,0,0,0,1.08-1.39c1.68-2.35,3.37-4.73,5.05-7.11.21-.3.36-.53.47-.71a3.47,3.47,0,0,0-.48-.16l-.5-.06-.25-.47a1.13,1.13,0,0,1,.21-1.21,1.46,1.46,0,0,1,.74-.65l.19-.07.22,0c1.46.24,2.83.42,4.1.55.84.09,2.32.23,4.46.38s3.77.28,4.86.36l1.35.1-.63,1.19c-.08.17-.44,1.13-1.1,2.85l-.13.34-.33.14a2,2,0,0,1-.83.12h-.29a1.09,1.09,0,0,1-1.13-1.12h0s0-.27-.5-.64a2.75,2.75,0,0,0-1.47-.54l-1.08-.1-.88-.06a3.68,3.68,0,0,0-.6,0,12.07,12.07,0,0,0-1,1.26l-1.28,1.83L30,68c.68.07,1.18.11,1.51.12h.17a1.86,1.86,0,0,1,.23-.27,6.45,6.45,0,0,1,.65-.63,1.36,1.36,0,0,1,1-.3,1.67,1.67,0,0,1,1.37.55l.36.5-3,4.34-.23.1a2,2,0,0,1-.75.09l-.3,0a1.38,1.38,0,0,1-.94-.44l-.24-.29v-.45l.09-.41c-.25,0-.69-.11-1.44-.18q-.8-.09-1.29-.12h-.31l-1.86,2.65c-.12.17-.21.31-.28.43l.63.09.73.08.63,0a10.53,10.53,0,0,0,2.68-.19,7,7,0,0,0,1.38-.48,8.86,8.86,0,0,0,1.56-.89,1.19,1.19,0,0,1,.9-.26c.87.08,1.33.2,1.61.61l.45.67-.62.49c-2.64,2.07-3.49,2.81-3.75,3.08l-.27.3Z"/>
              <path class="cls-3" d="M25.18,62c1.48.24,2.86.43,4.14.56.84.08,2.33.22,4.48.38l4.84.36c-.07.13-.44,1.11-1.14,3a1.22,1.22,0,0,1-.48,0h-.24c-.22,0-.32-.07-.31-.17a1.88,1.88,0,0,0-.86-1.4A3.61,3.61,0,0,0,33.68,64l-1.08-.1-.93-.06c-.63,0-1,0-1.11.13a10.48,10.48,0,0,0-1.19,1.48l-2.05,2.94c-.06.07.33.16,1.15.25l1.52.16c.69.07,1.21.11,1.55.12a1.82,1.82,0,0,0,.45,0,1.94,1.94,0,0,0,.62-.53,4.68,4.68,0,0,1,.55-.54.56.56,0,0,1,.43-.11h.1c.33,0,.51.08.57.15l-2.53,3.65a1.08,1.08,0,0,1-.4,0l-.26,0c-.25,0-.36-.09-.35-.2s.09-.34.12-.48a1.73,1.73,0,0,0,.06-.3.59.59,0,0,0,0-.19c0-.05,0-.09,0-.1s0,0-.07-.06-.08,0-.08-.06a7.35,7.35,0,0,0-2.14-.38c-.55-.06-1-.1-1.34-.12q-.76,0-.84.06c-.68,1-1.37,2-2.05,2.92A3.91,3.91,0,0,0,23.61,74c-.05.21.53.4,1.73.54l.75.08c.22,0,.45,0,.67.06a11.76,11.76,0,0,0,2.89-.2A9.56,9.56,0,0,0,32.91,73a.53.53,0,0,1,.37-.09h.11c.46,0,.72.11.78.2-2.17,1.69-3.44,2.74-3.84,3.16-1-.1-2.52-.27-4.62-.54L20.58,75c-1.42-.14-2.84-.3-4.26-.47,0-.06,0-.17.11-.34s.3-.36.38-.35h0l.13,0a8.79,8.79,0,0,0,1,0,2.2,2.2,0,0,0,1-.16,9.06,9.06,0,0,0,1.35-1.63q2.54-3.54,5.05-7.12a6.54,6.54,0,0,0,.87-1.5c0-.11-.19-.26-.61-.44a3.8,3.8,0,0,0-.94-.32c-.07,0,0-.12.13-.35s.25-.32.34-.35m-.25-1.79-.41.13a2.35,2.35,0,0,0-1.12.94,2,2,0,0,0-.27,2.09c.15.31.3.62.46.93h.06Q21.28,67.7,18.9,71c-.42.58-.7.92-.87,1.12h-.25c-.38,0-.65,0-.84,0h-.13a2,2,0,0,0-1.82,1,2,2,0,0,0-.1,2.31c.17.26.34.51.5.77l.88.1q2.13.26,4.26.48l5.06.67c2.11.27,3.66.44,4.64.54l.83.09.56-.6a45,45,0,0,1,3.65-3l1.24-1-.91-1.35a2.24,2.24,0,0,0-1.5-.9c.53-.77,1.06-1.55,1.6-2.32l.64-.93a1.74,1.74,0,0,0,.34,0l.34,0a2.79,2.79,0,0,0,1.18-.19l.67-.28c.08-.22.17-.45.26-.67.36-1,1-2.59,1.08-2.83.35-.76.69-1.52,1-2.28l-2.5-.23-4.87-.35c-2.13-.16-3.62-.3-4.45-.38-1.27-.13-2.63-.32-4.06-.55l-.43-.07Zm6.57,5.35h.17l.83.06,1.09.09a1.93,1.93,0,0,1,1,.36l.1.09A3.9,3.9,0,0,0,33.8,66h-.21a2.21,2.21,0,0,0-1.63.54,6.55,6.55,0,0,0-.65.64l-.92-.08.43-.6c.29-.43.52-.72.68-.92Zm-5.18,7.35,1.06-1.51,1.08.1.49.06,0,.28.51.67.15.16-.35.1a9.79,9.79,0,0,1-2.47.17l-.44,0Z"/>
            </g>
            <g>
              <path class="cls-2" d="M43.91,78.3c-.53,0-1,0-1.55-.06-2.8-.19-4.77-1.14-5.85-2.79-.78-1.19-1.35-3.14.4-5.69a14.88,14.88,0,0,1,6.31-4.86,19,19,0,0,1,7.58-1.73c.32,0,.63,0,.94,0a36.34,36.34,0,0,1,6.34.85.92.92,0,0,1,.59.46c.21.45.07.86-.57,2.12-.46.94-.77,1.52-.91,1.73a1.74,1.74,0,0,1-1.51.68h-.24L55,69a1,1,0,0,1-.63-.4,1,1,0,0,1-.16-.69,1,1,0,0,0,0-.42A1.5,1.5,0,0,0,54,66.9a1.75,1.75,0,0,0-.86-.51A7.41,7.41,0,0,0,51,66h-.48c-2.91,0-5.35,1.55-7.46,4.65-1,1.42-1.34,2.61-1.11,3.55.07.28.29,1.16,2.54,1.3h.41a8.69,8.69,0,0,0,3.58-.8,5.87,5.87,0,0,0,1-.58c.38-.28.68-.51.91-.7.42-.34.61-.5.95-.5,1.07,0,1.51.16,1.79.49a1,1,0,0,1,.23.7.84.84,0,0,1-.14.4,11.87,11.87,0,0,1-1.6,1.69c-1.26,1.21-1.71,1.48-2.09,1.55A31.61,31.61,0,0,1,43.91,78.3Z"/>
              <path class="cls-3" d="M50.8,64c.3,0,.59,0,.89,0a34.91,34.91,0,0,1,6.18.83c.08,0-.09.47-.54,1.36s-.73,1.43-.86,1.63-.38.27-.79.28h-.19l-.42-.08a1.85,1.85,0,0,0,0-.78,2.47,2.47,0,0,0-.4-.9,2.71,2.71,0,0,0-1.27-.82,8.67,8.67,0,0,0-2.35-.4h-.53q-4.79,0-8.18,5-1.66,2.44-1.23,4.23c.29,1.19,1.4,1.86,3.33,2h.46a9.59,9.59,0,0,0,3.93-.87A7.11,7.11,0,0,0,50,74.86c.4-.29.73-.53,1-.73a2.64,2.64,0,0,1,.39-.3h0c.79,0,1.17.12,1.16.25A16.92,16.92,0,0,1,51,75.62a6.15,6.15,0,0,1-1.64,1.32,30.75,30.75,0,0,1-5.5.49c-.5,0-1,0-1.49-.06-2.53-.17-4.25-1-5.17-2.38s-.8-3,.39-4.72a13.86,13.86,0,0,1,6-4.57A17.72,17.72,0,0,1,50.8,64m0-1.74a19.63,19.63,0,0,0-7.93,1.81,15.55,15.55,0,0,0-6.68,5.15c-2,2.93-1.33,5.24-.4,6.66,1.24,1.89,3.43,3,6.52,3.19q.78,0,1.59.06a32.16,32.16,0,0,0,5.79-.52c.67-.13,1.26-.54,2.55-1.78A13.3,13.3,0,0,0,54,75a1.79,1.79,0,0,0,.28-.8,1.87,1.87,0,0,0-.44-1.35,3.1,3.1,0,0,0-2.35-.78h0a2.31,2.31,0,0,0-1.59.7c-.21.19-.51.4-.87.67a5.83,5.83,0,0,1-.84.49,7.91,7.91,0,0,1-3.22.72h-.37c-.37,0-1.61-.14-1.73-.63a4.09,4.09,0,0,1,1-2.86c1.94-2.85,4.14-4.24,6.74-4.27H51a6.74,6.74,0,0,1,1.83.3,1.91,1.91,0,0,1,.49.24.64.64,0,0,1,.08.16,1.8,1.8,0,0,0,.2,1.38,1.72,1.72,0,0,0,1.12.79,5.86,5.86,0,0,0,.64.1h.33a2.56,2.56,0,0,0,2.23-1.08c.15-.23.37-.63,1-1.83s1-2,.57-2.89a1.77,1.77,0,0,0-1.24-.93,37.19,37.19,0,0,0-6.42-.85c-.33,0-.66,0-1,0Z"/>
            </g>
            <g>
              <path class="cls-2" d="M70.67,79.18c-.17,0-.73,0-1.68-.1S67.4,79,66.92,79s-1.29,0-2.34,0l-2.41.07-.33-.41a1.27,1.27,0,0,1,.22-1.38,1.43,1.43,0,0,1,1-.72h0a7.13,7.13,0,0,0,1-.14,2.92,2.92,0,0,0,.72-.19,16.13,16.13,0,0,0,1-1.34L67.3,72.7l-1.87,0-3,0-2,3c-.22.34-.38.61-.5.83a2.63,2.63,0,0,0,.38.09l.47,0,.29.43A1.15,1.15,0,0,1,61,78.11a2.59,2.59,0,0,1-.59.69l-.25.2h-.32l-1.71-.13c-1.07-.09-1.82-.15-2.3-.16s-1.22,0-2.18,0l-2.37,0L51,78.31A1.1,1.1,0,0,1,51.1,77c.26-.39.52-.79,1-.79h0a7.35,7.35,0,0,0,1-.1,2.75,2.75,0,0,0,.69-.15,12.44,12.44,0,0,0,1-1.36q2.55-3.82,5.1-7.68c.22-.33.37-.58.48-.76a3.53,3.53,0,0,0-.42-.08h-.5l-.25-.46a1.26,1.26,0,0,1,.24-1.27,1.65,1.65,0,0,1,.67-.67l.2-.09,4.13.23c.45,0,1.86,0,4.19-.07h.72l.12.7a1.5,1.5,0,0,1-.33,1.07,1.43,1.43,0,0,1-1.05.74h0a8.41,8.41,0,0,0-1,.14,5.91,5.91,0,0,0-.72.18A13,13,0,0,0,65.44,68c-.36.56-.73,1.11-1.09,1.66l2,.06h2.93c.58-.87,1.15-1.75,1.72-2.62.2-.32.35-.57.46-.76a1.7,1.7,0,0,0-.4-.08h-.49l-.26-.45a1.17,1.17,0,0,1,.16-1.19,2,2,0,0,1,.76-.77l.2-.1s4.19.16,4.4.15,1.58,0,3.91-.12l1,0-.18,1a2.13,2.13,0,0,1-.3.72,1.51,1.51,0,0,1-1.11.81h0a8.61,8.61,0,0,0-1,.16,3.73,3.73,0,0,0-.69.18,13.93,13.93,0,0,0-1.09,1.48l-5,7.65a9.55,9.55,0,0,0-.5.83,1.78,1.78,0,0,0,.38.07h.5l.27.46a1.26,1.26,0,0,1-.26,1.28,2.66,2.66,0,0,1-.48.55l-.26.23Z"/>
              <path class="cls-3" d="M60.6,64.46c2.58.15,3.88.21,3.9.21.5,0,1.91,0,4.26-.06a.82.82,0,0,1-.19.43q-.21.33-.33.33h-.06a9.1,9.1,0,0,0-1.06.16,3.19,3.19,0,0,0-1,.3,8.55,8.55,0,0,0-1.37,1.72l-1.89,2.88v.06c1.86.07,3,.1,3.41.11s1.65,0,3.38,0c.06,0,.1,0,.11-.08.65-1,1.3-2,1.94-3A6.89,6.89,0,0,0,72.53,66c0-.12-.17-.23-.56-.36a3,3,0,0,0-.89-.19c-.08,0,0-.12.09-.34a1.23,1.23,0,0,1,.37-.42c2.58.1,4,.14,4.19.14s1.6,0,4-.12a1,1,0,0,1-.16.37c-.16.25-.29.39-.39.39h-.07c-.19,0-.54.07-1,.17a2.69,2.69,0,0,0-1,.33,10.45,10.45,0,0,0-1.36,1.74l-5,7.65a6.81,6.81,0,0,0-.91,1.74c0,.09.17.2.59.31a4.1,4.1,0,0,0,.88.17c.08,0,0,.15-.17.43a1.59,1.59,0,0,1-.31.35c-.17,0-.72,0-1.64-.1s-1.62-.1-2.12-.11-1.31,0-2.38,0l-1.94.05h-.06q-.06-.09.18-.42c.15-.22.27-.33.34-.33h.09a7.71,7.71,0,0,0,1.1-.15,3,3,0,0,0,1-.34,9.58,9.58,0,0,0,1.23-1.6c.74-1.13,1.49-2.26,2.23-3.4v-.08c-1.78,0-2.89-.08-3.33-.08q-2.94,0-3.48,0h-.12l0,0-2.19,3.31a7.55,7.55,0,0,0-.9,1.71c0,.09.17.21.58.34a3.64,3.64,0,0,0,.87.21c.07,0,0,.1-.07.3a1.81,1.81,0,0,1-.37.45L58.13,78c-1-.09-1.81-.15-2.31-.16s-1.23,0-2.21,0l-1.91,0c0-.06,0-.17.12-.35a1.35,1.35,0,0,1,.32-.4h.12q.35,0,1.08-.12a2.74,2.74,0,0,0,1-.28,9.69,9.69,0,0,0,1.28-1.62q2.55-3.82,5.1-7.69a4.73,4.73,0,0,0,.84-1.58c0-.15-.18-.28-.54-.4a3.54,3.54,0,0,0-.9-.19c-.08,0,0-.14.15-.4a1.18,1.18,0,0,1,.29-.35m-.28-1.76-.39.18a2.5,2.5,0,0,0-1.06,1,2.11,2.11,0,0,0-.3,2.15l.45.89c-1.6,2.41-3.2,4.82-4.8,7.21a10,10,0,0,1-.8,1.08l-.33,0a7.76,7.76,0,0,1-.83.1h0a2.18,2.18,0,0,0-1.87,1.17,2,2,0,0,0-.13,2.29l.52.76h.92l1.91,0c.94,0,1.64,0,2.12,0s1.22.06,2.22.15l1.8.14.63,0,.51-.4a2.18,2.18,0,0,0,.28-.25l.45.73,1,0h0l2-.06,2.31,0c.47,0,1.14,0,2,.11s1.57.1,1.75.1h.67l.53-.46a4.13,4.13,0,0,0,.66-.74,2.15,2.15,0,0,0,.3-2.17c-.15-.29-.3-.58-.44-.87l4.73-7.27A9.61,9.61,0,0,1,78,67.37l.3-.07a7.56,7.56,0,0,1,.8-.14h0A2.46,2.46,0,0,0,81,65.91a2.91,2.91,0,0,0,.42-1l.39-2-2.06.08c-2.31.09-3.61.13-3.89.13s-1.58,0-4.14-.14l-.45,0-.41.21a2.55,2.55,0,0,0-.5.33c0-.19-.06-.39-.1-.58l-1.43,0c-2.37.06-3.74.07-4.2.06l-3.85-.21-.43,0Zm7.87,4.41a2,2,0,0,0,1.41-.65l.34.64-1.15,1.76H65.92l.24-.38A10.4,10.4,0,0,1,67,67.32l.38-.08c.37-.07.64-.12.79-.13Zm-6.78,8.58c.48-.73,1-1.47,1.45-2.2l2.53,0h.34c-.2.3-.4.6-.59.9a10.88,10.88,0,0,1-.77,1.06l-.34.08a6.29,6.29,0,0,1-.83.12h0a2.18,2.18,0,0,0-1.45.63c-.12-.21-.23-.42-.34-.63Z"/>
            </g>
            <g>
              <path class="cls-2" d="M79.25,60.84c.66-1,1.32-2,2-3h.5c.69,0,1.31,0,1.84-.06a7.36,7.36,0,0,0,2-.31,2.75,2.75,0,0,0,1.36-1.17,4.28,4.28,0,0,0,.37-.7,3.41,3.41,0,0,0,.2-.67q.78-3.16,1.55-6.34,1.11-4.72,2.21-9.45Q82.84,47,74.4,54.8c-.36.36-.69.69-1,1a6.57,6.57,0,0,0-.6.77c-.44.68-.4.92-.4.92s.3.32,1.94.33h2.06l-2,3q-6.93,0-13.88-.19l2-3h.73A5.77,5.77,0,0,0,65.65,57,16,16,0,0,0,69,54.6c11.18-10.1,22.37-20.49,33.56-30.94l5.68-.12-6.75,32.09c-.28,1.34-.08,1.66-.07,1.66s.38.23,1,.22l1.53,0-2,3.07C94.4,60.7,86.83,60.82,79.25,60.84Z"/>
              <path class="cls-3" d="M102.84,24.52l4.32-.08-6.54,31.07a3.29,3.29,0,0,0,0,2.31c.27.39.83.58,1.7.56l-.84,1.31c-6.9.13-13.8.25-20.7.28l.84-1.3q1.06,0,1.89-.06a8.65,8.65,0,0,0,2.27-.36,3.72,3.72,0,0,0,1.83-1.55,4.87,4.87,0,0,0,.45-.84,4.21,4.21,0,0,0,.26-.86c.32-1.33.65-2.65,1-4h0l.57-2.32.42-1.82h0q1.22-5.16,2.42-10.31-5.52,5.18-11,10.3h0l-.26.24-1.8,1.68-.64.59,0,0-5.16,4.77c-.4.38-.74.73-1,1a10,10,0,0,0-.69.88c-.58.89-.69,1.54-.34,2s1.2.62,2.56.62h.53L74,60c-4,0-7.91-.06-11.86-.16L63,58.54h.29A6.56,6.56,0,0,0,66,57.78a16.59,16.59,0,0,0,3.52-2.55c11.1-10,22.2-20.34,33.3-30.71m-.6-1.73-.54.5C90.61,33.65,79.51,44,68.41,54a15.47,15.47,0,0,1-3.12,2.27,4.89,4.89,0,0,1-2,.57H63.1l-1,0-.55.84-.84,1.27L59,61.48l3.06.08q5.94.13,11.86.15h1c.18-.29.37-.57.55-.85l.84-1.29L78,56.94h-3.6c-.32,0-.58,0-.79,0,.12-.16.27-.34.45-.55s.56-.6.92-1l5.13-4.74L80.8,50l1.8-1.67.26-.25q3.48-3.22,6.94-6.48-.57,2.49-1.16,5c-.14.61-.28,1.22-.43,1.83s-.37,1.53-.56,2.29c-.32,1.33-.65,2.65-1,4a2.83,2.83,0,0,1-.17.59,3.5,3.5,0,0,1-.29.54,1.91,1.91,0,0,1-.89.8,7.39,7.39,0,0,1-1.77.25c-.52,0-1.12.05-1.79.06h-1l-.55.86-.84,1.29-1.72,2.64h3.06c6.9,0,13.8-.14,20.7-.27l1,0,.55-.87.84-1.3,1.72-2.67-3.06.06h-.28a5.81,5.81,0,0,1,.13-.89l6.54-31.07.42-2-2,0-4.32.09Z"/>
            </g>
            <path class="cls-4" d="M140.57,3.48a68.74,68.74,0,0,1,24.32,4.46C141.61,11.76,123.68,30.78,112.3,47c-6.49,9.29-14.3,19.82-24.91,27l0,0,0,0a58.15,58.15,0,0,1-24.91,10A48.82,48.82,0,0,0,72.57,63.33l0-.15,0-.15c.13-1,.39-2.17.64-3.3.12-.56.24-1.1.35-1.62a68.35,68.35,0,0,1,67-54.63m0-3.48A71.82,71.82,0,0,0,70.2,57.41c-.33,1.64-.81,3.51-1,5.17A45.13,45.13,0,0,1,58.43,83.41a45.67,45.67,0,0,1-5,4.76h1.1A60.64,60.64,0,0,0,89.35,76.94C100,69.67,107.8,59.55,115.15,49c13.5-19.26,33.55-38.27,58.17-38.27,1.43,0,2.88.06,4.35.19.72,0,1.14.07,1.14.07-1.05-.66-2.09-1.25-3.16-1.86a71.17,71.17,0,0,0-16.87-6.8A72,72,0,0,0,140.57,0Z"/>
            <g>
              <path class="cls-2" d="M89.61,79.14a1.43,1.43,0,0,1-1.32-.91q-2.13-4.49-4.27-9L79.78,75.8c-.2.31-.33.53-.42.69l.08,0a4.73,4.73,0,0,0,1,.17H81l.25.43A1.19,1.19,0,0,1,81,78.32a2.17,2.17,0,0,1-.57.7l-.24.18h-.3c-.17,0-.74,0-1.68-.08S76.66,79,76.17,79s-1,0-1.78.06l-2.28.11-.25-.34A1.19,1.19,0,0,1,72,77.5a1.41,1.41,0,0,1,1.06-.8h.28l.36,0a6,6,0,0,0,1-.2,3.09,3.09,0,0,0,.88-.37,4.34,4.34,0,0,0,1-1.24l5.25-8.08a3.81,3.81,0,0,0,.23-.4c-.48-.05-.84-.08-1.08-.08h-.49l-.26-.43a1.2,1.2,0,0,1,.13-1.18,1.82,1.82,0,0,1,.76-.81l.21-.1,2,.09c.86,0,1.53.06,2,.06.31,0,.71,0,1.18-.05l1.65-.14.86-.09c0,.28,0,.57,0,.85a5.58,5.58,0,0,0,.52,1.73c.37.86.87,1.93,1.51,3.21.33.68.63,1.29.88,1.84l2.83-4.38a6.08,6.08,0,0,0,.33-.58l-.1,0a3.72,3.72,0,0,0-.82-.15l-.5,0-.26-.45a1.22,1.22,0,0,1,.13-1.17,2.09,2.09,0,0,1,.67-.77l.24-.15h.28c1.66.08,2.87.12,3.62.1.46,0,1.12,0,2-.11l2.35-.18.17.84a1.52,1.52,0,0,1-.27.89,1.61,1.61,0,0,1-1.12.84L101,66a4.81,4.81,0,0,0-2,.59,3.82,3.82,0,0,0-1,1.21L92.9,75.71c-.32.49-.89,1.45-1.73,2.87l-.14.24-.25.13a2.09,2.09,0,0,1-.79.18Z"/>
              <path class="cls-3" d="M81.43,64.65l1.76.08c.87,0,1.56.06,2.06.06.32,0,.73,0,1.22-.05s1-.08,1.69-.15a6.52,6.52,0,0,0,.59,2c.38.87.88,2,1.52,3.26s1.14,2.35,1.47,3.17a4.71,4.71,0,0,0,.61-.84c1-1.63,2.09-3.25,3.14-4.88.5-.79.7-1.28.59-1.48s-.35-.29-.81-.4a4.51,4.51,0,0,0-1-.17c-.08,0,0-.12.07-.34a1.19,1.19,0,0,1,.34-.43c1.68.09,2.91.12,3.67.11.47,0,1.14,0,2-.12h0l1.65-.12a.6.6,0,0,1-.12.37c-.17.26-.3.39-.4.4h0l-.41,0a5.69,5.69,0,0,0-2.41.71,4.66,4.66,0,0,0-1.38,1.52l-5.07,7.89c-.32.49-.91,1.46-1.75,2.9a1.93,1.93,0,0,1-.44.08h-.34c-.22,0-.42-.15-.57-.47q-2.46-5.16-4.91-10.34l-5.12,7.9a3.92,3.92,0,0,0-.72,1.46c0,.23.31.41.86.54a6.46,6.46,0,0,0,1.24.19c.06,0,0,.12-.12.35a1.67,1.67,0,0,1-.33.43l-1.63-.08c-.93,0-1.63-.08-2.12-.08s-1.1,0-1.84.06h-.11l-.68,0-1,0s0-.16.16-.36.28-.39.34-.4h.28l.4,0a7.25,7.25,0,0,0,1.1-.23A4,4,0,0,0,76,76.8a5.55,5.55,0,0,0,1.26-1.5l5.25-8.09c.46-.71.63-1.2.51-1.46q0-.15-.84-.24A7.68,7.68,0,0,0,81,65.42c-.08,0,0-.12.08-.34a1,1,0,0,1,.36-.43m-.27-1.77-.43.22a2.72,2.72,0,0,0-1.17,1.2,2,2,0,0,0-.14,2l.47.83h.64L75.82,74.4a4.9,4.9,0,0,1-.74,1,2.21,2.21,0,0,1-.62.25,4.83,4.83,0,0,1-.8.17l-.32,0h-.18a2.36,2.36,0,0,0-1.88,1.23,1.94,1.94,0,0,0-.13,2.37c.18.22.35.45.52.68l.87,0,1.06,0,.69,0h0c.8,0,1.38-.07,1.84-.07s1.12,0,2,.08,1.57.08,1.75.08h.59l.49-.36a3.35,3.35,0,0,0,.81-1A2.06,2.06,0,0,0,82,76.65l-.47-.86h-.74q1.56-2.39,3.1-4.78l3.62,7.62a2.2,2.2,0,0,0,2,1.37H90a2.88,2.88,0,0,0,1.13-.28l.5-.25.29-.49c.83-1.4,1.4-2.34,1.71-2.83q2.53-3.95,5.08-7.89a3.11,3.11,0,0,1,.71-.89A3.79,3.79,0,0,1,101,66.9h.31a2.52,2.52,0,0,0,1.94-1.29,2.38,2.38,0,0,0,.42-1.43l-.06-1.67-1.67.13-.29,0-1.36.1c-.84.06-1.48.1-1.93.11s-1.54,0-3.55-.1l-.56,0L93.8,63a3.11,3.11,0,0,0-1,1.11,2,2,0,0,0-.16,2l.44.82.61,0-1.6,2.49L91.84,69c-.6-1.22-1.1-2.29-1.48-3.17a4.72,4.72,0,0,1-.46-1.44c0-.57-.06-1.13-.08-1.7l-1.71.17c-.62.06-1.17.11-1.64.14l-1.12,0c-.48,0-1.14,0-2-.06l-1.51-.07h-.25l-.46,0Z"/>
            </g>
            <g>
              <path class="cls-2" d="M99.9,60.59l2-3.05.76,0a8.61,8.61,0,0,0,4-1.17,11.53,11.53,0,0,0,3.33-3.62Q117.21,41.35,124.49,30c1.44-2.24,1.3-3,1.26-3.09-.11-.3-.78-.63-2.34-.66l-1.46,0,1.94-3c8.09-.14,16.18-.22,24.28-.16l-2,3-.48,0a8.9,8.9,0,0,0-4.28,1.1,11.16,11.16,0,0,0-3.3,3.53Q130.86,42,123.57,53.33c-1.44,2.24-1.3,3-1.26,3.07.1.3.78.63,2.35.68l1.45,0c-.65,1-1.29,2-1.93,3C116.08,60.25,108,60.44,99.9,60.59Z"/>
              <path class="cls-3" d="M124.33,24.1c7.42-.12,14.84-.2,22.26-.16-.29.44-.57.88-.86,1.31h-.2A9.64,9.64,0,0,0,141,26.49a12,12,0,0,0-3.6,3.83q-7.28,11.24-14.56,22.57c-1.17,1.83-1.63,3.11-1.36,3.86s1.29,1.14,3.08,1.2l-.84,1.3c-7.42.13-14.84.3-22.25.44l.84-1.31.3,0a9.47,9.47,0,0,0,4.4-1.31,12.35,12.35,0,0,0,3.63-3.92q7.29-11.34,14.56-22.67,1.77-2.73,1.36-3.86c-.27-.76-1.3-1.16-3.08-1.19l.84-1.31m-.89-1.73-.55.86-.84,1.31c-.55.85-1.1,1.7-1.64,2.55l2.92.06a4.6,4.6,0,0,1,1.57.23,8.75,8.75,0,0,1-1.13,2.21q-7.27,11.33-14.56,22.68a10.73,10.73,0,0,1-3,3.32,7.71,7.71,0,0,1-3.56,1l-.27,0-.95,0c-.17.28-.35.56-.53.83L100,58.83l-1.71,2.66,3.06-.05c7.42-.15,14.84-.32,22.25-.44l1,0,.56-.86.83-1.3c.55-.84,1.09-1.68,1.63-2.53l-2.89-.09a4.59,4.59,0,0,1-1.59-.24,9,9,0,0,1,1.13-2.2q7.29-11.31,14.56-22.55a10.17,10.17,0,0,1,3-3.24,7.88,7.88,0,0,1,3.68-1h.18l.94,0,.52-.81c.29-.43.57-.87.86-1.31l1.71-2.62-3.05,0c-7.42,0-14.84,0-22.26.16Z"/>
            </g>
            <g>
              <path class="cls-5" d="M151.33,59.89c-1.21.06-2.46.08-3.74.07-7.46-.05-14.92,0-22.37.14l2.1-3.26.83,0a9,9,0,0,0,4.3-1.33,14,14,0,0,0,3.87-4.23q8.46-13.08,16.93-26c1.65-2.5,1.64-3.43,1.56-3.72-.14-.48-1.05-.81-2.5-.89l-1.45-.08,2.06-3.16c7.74.12,15.47.39,23.21.89s12.65,3,14.59,7.12.73,9.32-3.61,15.57a41,41,0,0,1-9.58,9.74,53,53,0,0,1-13,6.87,36.47,36.47,0,0,1-7.65,1.8C155.09,59.65,153.24,59.81,151.33,59.89Z"/>
              <path class="cls-3" d="M153.37,18.29c7.57.12,15.14.39,22.71.88s12,2.78,13.86,6.59.62,8.7-3.55,14.72A40.45,40.45,0,0,1,177,50a52.33,52.33,0,0,1-12.8,6.76,36.73,36.73,0,0,1-7.46,1.75c-1.72.24-3.53.4-5.42.48-1.19.06-2.43.08-3.69.07-6.95-.05-13.9,0-20.85.11l1-1.51.38,0a9.89,9.89,0,0,0,4.74-1.47A15,15,0,0,0,137,51.68q8.47-13.08,16.93-26,2.06-3.12,1.68-4.44c-.25-.89-1.34-1.4-3.26-1.5l1-1.49m-.89-1.75-.55.84-1,1.49-1.64,2.5c1,0,1.94.1,2.91.15a4,4,0,0,1,1.75.35,8,8,0,0,1-1.44,2.93q-8.46,12.9-16.93,26a13.37,13.37,0,0,1-3.58,4,8.14,8.14,0,0,1-3.87,1.18h-.33l-1,.05c-.18.27-.35.55-.53.83l-1,1.51L123.64,61l3,0c6.95-.11,13.9-.17,20.85-.12,1.29,0,2.57,0,3.79-.07,1.94-.08,3.83-.25,5.6-.49a38.79,38.79,0,0,0,7.84-1.85,54.6,54.6,0,0,0,13.28-7,41.72,41.72,0,0,0,9.78-9.94c4.53-6.5,5.76-12,3.68-16.42s-7.25-7.13-15.33-7.65c-7.57-.49-15.14-.76-22.71-.88Z"/>
            </g>
            <g>
              <path class="cls-2" d="M38.93,59.57,41,56.51h.8a13.38,13.38,0,0,0,2.94-.19,1.61,1.61,0,0,0,1-.61,1.85,1.85,0,0,0,.25-.55A5,5,0,0,0,46.18,54q.28-6.12.56-12.23L45,42.87q-3,4.46-6,8.87c-1.68,2.46-1.79,3.42-1.75,3.72.06.55,1.1.78,1.71.87l1.39.19c-.67,1-1.33,2-2,3-8.36-.65-16.72-1.59-25.07-2.92l2.1-2.9.83.09a7.83,7.83,0,0,0,4.3-.66,11.18,11.18,0,0,0,3.87-3.71q8.46-12,16.93-24.44c1.65-2.42,1.64-3.35,1.56-3.64-.14-.49-1-.86-2.5-1l-1.46-.16,2.07-3c8.4.59,16.8.9,25.19,1L64,21.37h-.48a7.47,7.47,0,0,0-4,1.14,14.78,14.78,0,0,0-3.69,4.11q-3,4.55-6.05,9.05c6-3.73,11.93-7.6,17.9-11.54a22,22,0,0,0,2-1.44,5.26,5.26,0,0,0,.92-.94,6.58,6.58,0,0,0-2.29-.3l-1.52,0,2.12-3.24c5.36.06,10.72.05,16.08,0l-2.13,3.28h-1l-.6,0a11.52,11.52,0,0,0-3.29.72,22.55,22.55,0,0,0-4.52,2.46q-5.58,3.74-11.17,7.38Q62,43.22,61.6,54.37A5.12,5.12,0,0,0,62,56.72a1.47,1.47,0,0,0,1.09.75l1.26.23c-.65,1-1.31,2-2,3C54.58,60.52,46.76,60.17,38.93,59.57Z"/>
              <path class="cls-3" d="M41.36,18c7.72.54,15.44.84,23.16,1l-1,1.51H63.4a8.18,8.18,0,0,0-4.33,1.28,15.42,15.42,0,0,0-3.94,4.36Q51,32.4,46.81,38.57c7.12-4.41,14.23-9,21.35-13.71a20.83,20.83,0,0,0,2.08-1.51,6.26,6.26,0,0,0,1.15-1.23A.68.68,0,0,0,71.11,21a6.89,6.89,0,0,0-2.74-.41l1-1.52c4.68.06,9.37.05,14,0l-1,1.54h-.48l-.65,0a12.23,12.23,0,0,0-3.55.77A23,23,0,0,0,73,24q-5.77,3.87-11.56,7.63Q61.09,43,60.73,54.37a5.82,5.82,0,0,0,.54,2.79,2.24,2.24,0,0,0,1.67,1.17l-1,1.48c-7.16-.17-14.31-.48-21.46-1l1-1.43h.34A13.79,13.79,0,0,0,45,57.17a2.45,2.45,0,0,0,1.55-1,2.76,2.76,0,0,0,.36-.8,6.69,6.69,0,0,0,.17-1.34q.31-6.95.64-13.88l-3.35,2q-3.08,4.53-6.14,9c-1.37,2-2,3.43-1.9,4.31s.93,1.43,2.47,1.65c-.31.48-.63,1-1,1.43-7.68-.61-15.36-1.46-23-2.64l1-1.36.38,0a8.64,8.64,0,0,0,4.74-.74A12,12,0,0,0,25,50Q33.5,37.93,42,25.47c1.37-2,1.93-3.46,1.68-4.36s-1.34-1.44-3.26-1.66l1-1.43m-.89-1.81-.55.81c-.33.48-.65,1-1,1.43l-1.63,2.39,2.9.34a4.26,4.26,0,0,1,1.75.45,7.55,7.55,0,0,1-1.44,2.85q-8.46,12.4-16.93,24.4A10.57,10.57,0,0,1,20,52.35a7.14,7.14,0,0,1-3.87.57l-.33,0-1-.12c-.18.25-.35.5-.53.74l-1,1.35-1.71,2.36,3.06.48c7.55,1.17,15.11,2,22.66,2.62h0l.85.07.53,0,1.68.13c7.15.51,14.3.82,21.46,1l1,0,.56-.84c.32-.49.65-1,1-1.48.49-.73,1-1.46,1.45-2.19l-2.53-.44a.62.62,0,0,1-.5-.34,4.21,4.21,0,0,1-.33-2q.35-10.89.7-21.76Q68.56,29,73.93,25.42a21.61,21.61,0,0,1,4.34-2.37,10.57,10.57,0,0,1,3-.66l.55,0h1.47l.56-.85,1-1.54c.57-.88,1.14-1.77,1.72-2.65l-3.06,0q-7,0-14,0h-1c-.19.28-.37.56-.55.85-.34.5-.67,1-1,1.51l-1.71,2.61,3,0,.5,0c-.41.32-.92.67-1.51,1.06Q60,28.18,52.79,32.78l3.78-5.68A14,14,0,0,1,60,23.24a6.46,6.46,0,0,1,3.4-1l.94,0,.63-.8c.33-.5.66-1,1-1.51l1.71-2.61-3.06,0c-7.72-.14-15.44-.44-23.16-1l-1-.07Zm5.1,27.3.23-.13q-.25,5.29-.49,10.6a5,5,0,0,1-.1,1,1,1,0,0,1-.14.3.86.86,0,0,1-.52.25,12,12,0,0,1-2.73.17H41.5l-.94,0,0,0L39,55.47a3.18,3.18,0,0,1-.93-.24,9.71,9.71,0,0,1,1.59-3q3-4.35,5.93-8.73Z"/>
            </g>
            <g>
              <path class="cls-5" d="M172.63,60.69a.86.86,0,0,1-.73-.48.85.85,0,0,1,.06-.87l.83-1.25a.92.92,0,0,1,.73-.38h.3a8.15,8.15,0,0,0,4-.84,10.18,10.18,0,0,0,3.33-3.31q7.29-10.62,14.56-20.94c1.45-2,1.3-2.79,1.26-2.91-.11-.32-.78-.75-2.34-1a.94.94,0,0,1-.7-.54.86.86,0,0,1,.06-.85l.84-1.19a.78.78,0,0,1,.72-.34c0-.27,22.31,3.31,22.31,3.6a1.06,1.06,0,0,1,.73.59.82.82,0,0,1-.06.86L217.65,32a.74.74,0,0,1-.72.28h0a8.06,8.06,0,0,0-4.28.28,8.55,8.55,0,0,0-3.3,3q-7.28,9.95-14.56,20.29c-1.44,2.05-1.3,2.78-1.26,2.91.1.3.78.72,2.35,1a1,1,0,0,1,.7.54.83.83,0,0,1-.07.85l-.84,1.19a.83.83,0,0,1-.72.34C194.92,62.38,172.63,60.49,172.63,60.69Z"/>
              <path class="cls-3" d="M195.53,26.67c7.42.9,14.84,2.07,22.26,3.59l-.86,1.14-.2,0a8.54,8.54,0,0,0-4.52.37,9.21,9.21,0,0,0-3.6,3.19l-.72,1Q201,45.42,194.05,55.26c-1.17,1.66-1.63,2.89-1.36,3.67s1.29,1.31,3.08,1.62l-.84,1.19c-7.42-.89-14.83-1.5-22.25-1.92l.84-1.24h.3a9,9,0,0,0,4.4-.94,10.88,10.88,0,0,0,3.63-3.57q3.18-4.64,6.35-9.2,4.11-5.91,8.21-11.72c1.18-1.66,1.63-2.88,1.36-3.67s-1.3-1.34-3.08-1.62l.84-1.19m0-1.74a1.6,1.6,0,0,0-1.44.67l-.84,1.2a1.74,1.74,0,0,0-.13,1.71,1.89,1.89,0,0,0,1.41,1.07,5.13,5.13,0,0,1,1.57.44A7.07,7.07,0,0,1,195,32.08q-4.11,5.84-8.21,11.76-3.18,4.59-6.35,9.22a9.4,9.4,0,0,1-3,3,7.41,7.41,0,0,1-3.56.73h-.3a1.76,1.76,0,0,0-1.45.77l-.84,1.24a1.74,1.74,0,0,0-.11,1.75,1.72,1.72,0,0,0,1.46,1c7.42.41,14.84,1,22.26,1.91h.09a1.66,1.66,0,0,0,1.45-.68l.84-1.18a1.71,1.71,0,0,0,.13-1.7,1.9,1.9,0,0,0-1.4-1.09,5.1,5.1,0,0,1-1.58-.46,7.06,7.06,0,0,1,1.12-2q6.93-9.8,13.84-19.27l.72-1a7.83,7.83,0,0,1,3-2.7,7,7,0,0,1,3.68-.26l.18,0h0a1.5,1.5,0,0,0,1.44-.55l.86-1.14a1.69,1.69,0,0,0,.12-1.73,2.11,2.11,0,0,0-1.46-1.18c-7.42-1.53-14.84-2.7-22.26-3.6Z"/>
            </g>
            <path class="cls-3" d="M170.24,46.08c-11.46,8.3-27.82,10.19-27.82,10.21A37.87,37.87,0,0,1,156.1,34.9c11.46-8.81,27.82-9.5,27.82-9.43A35.72,35.72,0,0,1,170.24,46.08Z"/>
            <path class="cls-5" d="M140.58,56.42c10.16-7.51,20.32-14.84,30.49-21.8-9.71,7.59-19.42,15.5-29.13,23.6l-1.36-1.8Z"/>
          </g>
          <g>
            <g>
              <path class="cls-2" d="M104.58,79l-.85,0c-2.8.06-4.77-.71-5.85-2.27s-1-3.62.49-5.88a16.23,16.23,0,0,1,6.27-5.37A18.9,18.9,0,0,1,112,63.22c.29,0,.58,0,.86,0,2.8-.05,4.77.71,5.85,2.28.79,1.13,1.34,3.07-.48,5.89A16.08,16.08,0,0,1,112,76.7,19.11,19.11,0,0,1,104.58,79Zm6.72-12.85a5.87,5.87,0,0,0-2.33.72,9.66,9.66,0,0,0-2.42,1.82,16.33,16.33,0,0,0-2,2.52,10.13,10.13,0,0,0-1,1.9,6.27,6.27,0,0,0-.4,1.75,1,1,0,0,0,.32.89,2.21,2.21,0,0,0,1.52.37h.28a6.39,6.39,0,0,0,3.41-1.44A14.49,14.49,0,0,0,112.07,71a12.46,12.46,0,0,0,1.07-2,6,6,0,0,0,.43-1.71.85.85,0,0,0-.32-.8,2.61,2.61,0,0,0-1.66-.35Z"/>
              <path class="cls-3" d="M112,64.09c.27,0,.54,0,.81,0Q116.59,64,118,66t-.48,4.93a15,15,0,0,1-5.91,5,18.27,18.27,0,0,1-7,2.15l-.81,0c-2.53.05-4.25-.6-5.18-1.93s-.76-3,.49-4.92a15.16,15.16,0,0,1,5.9-5,18,18,0,0,1,7-2.16m-6.69,12.85a7.39,7.39,0,0,0,3.91-1.63,15.37,15.37,0,0,0,3.57-3.91,14,14,0,0,0,1.15-2.17,6.67,6.67,0,0,0,.49-2,1.65,1.65,0,0,0-.61-1.51,3.36,3.36,0,0,0-2.18-.52l-.34,0a6.85,6.85,0,0,0-2.7.83,10.62,10.62,0,0,0-2.65,2,16.73,16.73,0,0,0-2.1,2.67,11.43,11.43,0,0,0-1.07,2.08,7.2,7.2,0,0,0-.46,2,1.77,1.77,0,0,0,.59,1.57A3,3,0,0,0,105,77l.33,0M112,62.35h0a19.89,19.89,0,0,0-7.72,2.37,17.07,17.07,0,0,0-6.63,5.69c-2.08,3.24-1.42,5.51-.5,6.85,1.24,1.79,3.44,2.68,6.53,2.61.3,0,.6,0,.91,0a20,20,0,0,0,7.72-2.36,17,17,0,0,0,6.64-5.7c2.09-3.24,1.42-5.51.49-6.85-1.24-1.8-3.44-2.68-6.53-2.62-.3,0-.61,0-.91.05ZM105.31,75.2h-.23a1.69,1.69,0,0,1-1-.16c-.06-.06-.08-.07-.07-.23a5.43,5.43,0,0,1,.35-1.49,9.5,9.5,0,0,1,.89-1.73,15.47,15.47,0,0,1,1.86-2.37,9,9,0,0,1,2.18-1.63,4.85,4.85,0,0,1,2-.62l.24,0c.88,0,1.12.17,1.13.18a4.25,4.25,0,0,1-.33,1.54,13.07,13.07,0,0,1-1,1.85A13.45,13.45,0,0,1,108.23,74a5.49,5.49,0,0,1-2.92,1.25Z"/>
            </g>
            <g>
              <path class="cls-2" d="M128.68,78.37l-5.09,0c-2.29,0-3.85,0-4.66,0l-4.69.23-.25-.36c-.18-.25-.29-.68.12-1.32a1.56,1.56,0,0,1,1.1-.86h.07a10,10,0,0,0,1-.15,4.26,4.26,0,0,0,.67-.17c0-.09.42-.53,1.08-1.57l5.1-7.93.41-.67a2.21,2.21,0,0,0-.42-.07h-.5l-.26-.45a1.23,1.23,0,0,1,.21-1.22,2,2,0,0,1,.71-.76l.2-.09,4.27.06,4-.18,1-.05c-.06.35-.13.69-.2,1a1.81,1.81,0,0,1-.29.71,1.47,1.47,0,0,1-1.08.82h0c-.24,0-.55.08-1,.17a5.2,5.2,0,0,0-.71.19,15.08,15.08,0,0,0-1,1.39q-2.54,3.92-5.06,7.85c-.12.19-.22.35-.29.49h1.36l.63,0a11.89,11.89,0,0,0,2.67-.52,8,8,0,0,0,1.39-.65,8.77,8.77,0,0,0,1.55-1.06,1.54,1.54,0,0,1,.93-.35c.82,0,1.3.06,1.58.44l.47.63-.63.55A50.16,50.16,0,0,0,129.37,78l-.28.33Z"/>
              <path class="cls-3" d="M123.61,63.94l4.07.06,4.09-.18a.89.89,0,0,1-.16.38c-.16.25-.29.39-.36.39h-.07c-.19,0-.55.08-1.08.19a2.7,2.7,0,0,0-1,.33,9.77,9.77,0,0,0-1.27,1.66q-2.53,3.93-5.06,7.86a4.68,4.68,0,0,0-.73,1.49c-.05.22.53.32,1.73.3h.74c.23,0,.45,0,.68,0a12.75,12.75,0,0,0,2.88-.56,9,9,0,0,0,1.56-.72,10.19,10.19,0,0,0,1.7-1.17.7.7,0,0,1,.4-.13h.09c.45,0,.72,0,.78.12q-3.25,2.86-3.85,3.57c-1.08,0-2.78,0-5.07,0l-4.67,0-4.27.21s0-.17.12-.35.3-.41.38-.42h.14a8.63,8.63,0,0,0,1-.15,2.76,2.76,0,0,0,1-.33,12.49,12.49,0,0,0,1.35-1.84l5.1-7.93a4,4,0,0,0,.77-1.55c0-.11-.22-.22-.58-.33a3.11,3.11,0,0,0-.86-.16c-.08,0,0-.12.11-.35a1.49,1.49,0,0,1,.33-.42m-.28-1.75-.39.19a2.79,2.79,0,0,0-1.1,1.11,2,2,0,0,0-.26,2.1l.45.87-4.73,7.36a15,15,0,0,1-.88,1.26l-.25,0a6.87,6.87,0,0,1-.82.13h-.14a2.48,2.48,0,0,0-1.82,1.29,2,2,0,0,0-.13,2.3c.17.24.34.47.5.71l.91,0,4.26-.21,4.6,0,5.09,0h.84l.56-.67c.19-.22.9-1,3.65-3.37l1.26-1.11L134,72.82a2.44,2.44,0,0,0-2.1-.77h-.19a2.47,2.47,0,0,0-1.51.61,8.75,8.75,0,0,1-1.35.92,6.79,6.79,0,0,1-1.22.57,10.6,10.6,0,0,1-2.46.48l-.44,0,4.52-7a10.18,10.18,0,0,1,.78-1.08,2.21,2.21,0,0,1,.32-.07,6.94,6.94,0,0,1,.84-.15h0a2.46,2.46,0,0,0,1.87-1.28,2.86,2.86,0,0,0,.42-1l.39-2.05-2.06.09-4,.18-4-.06Z"/>
            </g>
            <g>
              <path class="cls-2" d="M141.63,78.4c-.29,0-.57,0-.86,0-2.8,0-4.77-.78-5.85-2.36-.77-1.13-1.32-3.07.5-5.87a15.69,15.69,0,0,1,6.26-5.27,18.32,18.32,0,0,1,7.38-2.09l.85,0c2.8,0,4.77.88,5.85,2.49.78,1.16,1.33,3.12-.48,5.87A15.56,15.56,0,0,1,149,76.33,19.37,19.37,0,0,1,141.63,78.4Zm6.72-12.69a5.79,5.79,0,0,0-2.34.66,9.53,9.53,0,0,0-2.41,1.76,15.85,15.85,0,0,0-2,2.48,10.68,10.68,0,0,0-1,1.89,6.16,6.16,0,0,0-.41,1.74,1,1,0,0,0,.33.9,2.3,2.3,0,0,0,1.51.39h.3a6.24,6.24,0,0,0,3.4-1.36,13.93,13.93,0,0,0,3.35-3.57,13,13,0,0,0,1.07-2,5.51,5.51,0,0,0,.42-1.69.85.85,0,0,0-.31-.81,2.61,2.61,0,0,0-1.67-.39Z"/>
              <path class="cls-3" d="M149.06,63.71l.8,0q3.78,0,5.18,2.12t-.48,4.91a14.69,14.69,0,0,1-5.91,4.83,18.21,18.21,0,0,1-7,2q-.4,0-.81,0c-2.52,0-4.24-.66-5.17-2s-.76-3,.49-4.91A14.61,14.61,0,0,1,142,65.7a17.39,17.39,0,0,1,7-2m-6.69,12.68a7.29,7.29,0,0,0,3.9-1.53A15,15,0,0,0,149.84,71,13.3,13.3,0,0,0,151,68.91a6.77,6.77,0,0,0,.49-2,1.68,1.68,0,0,0-.61-1.52,3.43,3.43,0,0,0-2.19-.59h-.33a6.56,6.56,0,0,0-2.7.76A10.41,10.41,0,0,0,143,67.54a16.44,16.44,0,0,0-2.09,2.63,10.41,10.41,0,0,0-1.07,2.06,6.79,6.79,0,0,0-.46,2A1.79,1.79,0,0,0,140,75.8a2.91,2.91,0,0,0,2.07.6h.34M149.06,62h0a19.13,19.13,0,0,0-7.73,2.18,16.63,16.63,0,0,0-6.64,5.61c-2.08,3.22-1.42,5.5-.5,6.84,1.24,1.8,3.44,2.7,6.53,2.7.31,0,.61,0,.91,0a19.94,19.94,0,0,0,7.73-2.17A16.45,16.45,0,0,0,156,71.64c2.08-3.16,1.42-5.46.49-6.84C155.25,63,153.05,62,150,62c-.3,0-.6,0-.9,0Zm-6.69,12.68h-.24a1.66,1.66,0,0,1-1-.18c-.06,0-.08-.07-.07-.22a5.58,5.58,0,0,1,.35-1.5,9,9,0,0,1,.89-1.7,14.63,14.63,0,0,1,1.86-2.33,8.56,8.56,0,0,1,2.18-1.59,4.82,4.82,0,0,1,2-.56h.23c.89,0,1.13.19,1.14.2a4.1,4.1,0,0,1-.34,1.54,11.92,11.92,0,0,1-1,1.82,12.87,12.87,0,0,1-3.11,3.33,5.36,5.36,0,0,1-2.91,1.18Z"/>
            </g>
            <g>
              <path class="cls-2" d="M162.36,78.65c-.57,0-1.15,0-1.75,0-2.8-.08-4.76-.92-5.81-2.52-.76-1.15-1.3-3.07.45-5.72a15.32,15.32,0,0,1,6.35-5.16,18.21,18.21,0,0,1,7.56-1.87l.89,0a31.78,31.78,0,0,1,6.34,1,.93.93,0,0,1,.58.48c.21.43.12.79-.62,2.27-.52,1-.84,1.65-1,1.85a1.41,1.41,0,0,1-1.2.52,3.24,3.24,0,0,1-1.39-.27.86.86,0,0,1-.41-1,1.29,1.29,0,0,0,0-.48,1.71,1.71,0,0,0-.24-.62,1.53,1.53,0,0,0-.77-.51,6.71,6.71,0,0,0-2-.37h-.49c-2.92,0-5.36,1.58-7.45,4.73a8,8,0,0,0-1.17,2.53,1.73,1.73,0,0,0,.32,1.58,3.27,3.27,0,0,0,2.28.74h.44a3.91,3.91,0,0,0,1.26-.2.58.58,0,0,0,.29-.25l.84-1.26c.27-.4.45-.7.57-.92l-.51,0a.94.94,0,0,1-.76-.47,1.17,1.17,0,0,1,.16-1.18,1.82,1.82,0,0,1,.79-.76.88.88,0,0,1,.32-.07l2.92.23,1.33.08c.28,0,1.59,0,3.91.1a.86.86,0,0,1,.65.32.84.84,0,0,1,.19.7,1.78,1.78,0,0,1-.32.74,1.34,1.34,0,0,1-1.07.73h-.06a6.35,6.35,0,0,0-1.47.18h0a4.46,4.46,0,0,0-1,1.18l-.78,1.15a1.33,1.33,0,0,0-.15.27,1.16,1.16,0,0,1-.17.48,2.45,2.45,0,0,1-1.5.91c-.9.22-1.59.39-2.06.48a22.52,22.52,0,0,1-2.45.32C163.63,78.6,163,78.64,162.36,78.65Z"/>
              <path class="cls-3" d="M169.16,64.25l.84,0a30.31,30.31,0,0,1,6.18,1c.08,0-.12.52-.61,1.5s-.8,1.58-.92,1.77-.22.13-.48.13H174a2,2,0,0,1-.81-.15,2.35,2.35,0,0,0,.06-.8,3,3,0,0,0-.35-.94,2.37,2.37,0,0,0-1.2-.9,7.27,7.27,0,0,0-2.32-.43h-.54c-3.2,0-5.93,1.75-8.17,5.13a8.69,8.69,0,0,0-1.3,2.83,2.54,2.54,0,0,0,.49,2.3,3.71,3.71,0,0,0,2.91,1.06h.49a4.61,4.61,0,0,0,1.56-.26,1.54,1.54,0,0,0,.71-.59l.84-1.25.09-.14a6.16,6.16,0,0,0,.83-1.55c.09-.37-.42-.57-1.53-.62q-.12,0,.09-.33a1.08,1.08,0,0,1,.37-.41l1.33.11,1.52.12,1.35.08c.28,0,1.6,0,3.94.1a1.06,1.06,0,0,1-.18.4c-.15.23-.27.35-.35.35h-.18a6.66,6.66,0,0,0-1.54.22c-.38.09-.88.6-1.51,1.54l-.78,1.15a1.64,1.64,0,0,0-.27.54,1.33,1.33,0,0,1-.06.23,1.71,1.71,0,0,1-1,.53c-.88.22-1.55.38-2,.47a21.88,21.88,0,0,1-2.34.3c-.59.06-1.19.09-1.81.1s-1.12,0-1.7,0c-2.52-.07-4.23-.78-5.13-2.15s-.75-2.95.44-4.76A14.18,14.18,0,0,1,162,66a17,17,0,0,1,7.2-1.79m0-1.74h0a18.74,18.74,0,0,0-7.91,2A16.12,16.12,0,0,0,154.53,70c-2,3.06-1.36,5.32-.46,6.68,1.21,1.84,3.39,2.8,6.49,2.89.62,0,1.22,0,1.8,0s1.31-.06,1.93-.12a24.2,24.2,0,0,0,2.56-.33c.47-.09,1.18-.26,2.09-.49a3.22,3.22,0,0,0,2-1.24,2.18,2.18,0,0,0,.3-.7l0-.07.78-1.15a6.91,6.91,0,0,1,.67-.87,4.61,4.61,0,0,1,.94-.12h.18a2.2,2.2,0,0,0,1.8-1.12,2.85,2.85,0,0,0,.45-1.07,1.77,1.77,0,0,0-.37-1.4,1.71,1.71,0,0,0-.88-.57,2.05,2.05,0,0,0,1.23-.8,19.21,19.21,0,0,0,1-2c.67-1.33,1.07-2.14.62-3a1.8,1.8,0,0,0-1.24-1,32,32,0,0,0-6.41-1c-.31,0-.63,0-.94,0ZM163.28,75h-.39c-1,0-1.5-.24-1.64-.43a.86.86,0,0,1-.17-.83,7.21,7.21,0,0,1,1-2.25c1.92-2.88,4.12-4.31,6.73-4.33h.44a5.64,5.64,0,0,1,1.77.31,1.79,1.79,0,0,1,.39.21,1.11,1.11,0,0,1,.08.24.49.49,0,0,1,0,.11,1.73,1.73,0,0,0,.84,2,2.2,2.2,0,0,0,.47.19l-2.3-.05-1.3-.09-1.49-.12-1.36-.1h-.15a1.85,1.85,0,0,0-.65.14,2.67,2.67,0,0,0-1.2,1.11,2,2,0,0,0-.19,2,1.7,1.7,0,0,0,.66.67l-.72,1.07a3.3,3.3,0,0,1-.86.11Z"/>
            </g>
            <g>
              <path class="cls-2" d="M183.06,79.69c-1-.14-1.67-.22-2.16-.26s-1.26-.07-2.27-.1l-1.95,0a.89.89,0,0,1-.75-.45,1.11,1.11,0,0,1,.13-1.23c.24-.34.55-.8,1.1-.79h0a7.17,7.17,0,0,0,1-.09,2.92,2.92,0,0,0,.71-.14,11.07,11.07,0,0,0,1-1.33l2.16-3.14c0-.14,0-.4-.08-.9-.09-.78-.19-1.54-.31-2.28l-.18-1.09a2.35,2.35,0,0,0-.22-1,1.94,1.94,0,0,0-.86-.23,1,1,0,0,1-.77-.52,1.16,1.16,0,0,1,.21-1.18,1.79,1.79,0,0,1,.76-.69.84.84,0,0,1,.35-.07l2.78.33,1.25.13c.44,0,1.82.12,4.15.27a.93.93,0,0,1,.85.83,1.35,1.35,0,0,1-.4,1,1.2,1.2,0,0,1-1,.63h-.15a4.75,4.75,0,0,0-.77,0h0c.1.77.21,1.53.31,2.3l2.6-1.5.92-.55a1.06,1.06,0,0,1-.53-.47,1.15,1.15,0,0,1,.17-1.17,1.66,1.66,0,0,1,.75-.69.74.74,0,0,1,.36-.06h.09c1.65.26,2.76.44,3.34.51s1.59.15,3.28.3a.92.92,0,0,1,.66.36.89.89,0,0,1,.19.73,1.73,1.73,0,0,1-.28.66,1.24,1.24,0,0,1-1.08.66h-.09a6.19,6.19,0,0,0-1.06,0,4,4,0,0,0-1.17.31c-.8.38-2.43,1.22-4.89,2.57a38.06,38.06,0,0,0-3.71,2.17l-2,3c-.24.35-.41.62-.54.85a2,2,0,0,0,.38.11,1,1,0,0,1,.77.53,1.19,1.19,0,0,1-.24,1.23,2.91,2.91,0,0,1-.45.51.82.82,0,0,1-.57.19Z"/>
              <path class="cls-3" d="M181,65.06l1.25.15,1.45.17,1.29.14,4.17.27s-.07.18-.23.4-.26.31-.32.3h-.22a7.66,7.66,0,0,0-.81,0,1.22,1.22,0,0,0-.77.25.62.62,0,0,0-.06.45c.17,1.22.34,2.45.5,3.68a.12.12,0,0,0,.1.05.48.48,0,0,0,.21-.06c.93-.49,2.09-1.14,3.46-1.93a12.1,12.1,0,0,0,2.28-1.49c.2-.28-.32-.49-1.54-.63-.07,0,0-.12.1-.33a.89.89,0,0,1,.37-.38c1.67.27,2.79.45,3.39.52s1.6.15,3.31.3a.88.88,0,0,1-.15.35c-.16.22-.28.33-.35.32h0l-.18,0a6.24,6.24,0,0,0-1.11,0,4.31,4.31,0,0,0-1.42.38c-.81.38-2.45,1.23-4.94,2.6a30.3,30.3,0,0,0-3.9,2.32L184.75,76a6.94,6.94,0,0,0-.93,1.7c0,.1.17.22.57.38a4,4,0,0,0,.87.26c.08,0,0,.14-.14.38a1.29,1.29,0,0,1-.3.34l-1.66-.23c-1-.13-1.71-.22-2.21-.26s-1.29-.07-2.31-.09l-2,0c0-.06,0-.17.11-.33s.31-.4.37-.4h.09a8.3,8.3,0,0,0,1.08-.1,2.68,2.68,0,0,0,1-.26,9.08,9.08,0,0,0,1.28-1.57l2.27-3.31a3.93,3.93,0,0,0-.05-1.31c-.09-.79-.19-1.56-.31-2.31l-.18-1.1c-.08-.84-.27-1.36-.57-1.54a2.71,2.71,0,0,0-1.32-.42c-.07,0,0-.11.11-.32a1.13,1.13,0,0,1,.39-.4m0-1.74a1.68,1.68,0,0,0-.7.13,2.62,2.62,0,0,0-1.13,1,2,2,0,0,0-.26,2.06,1.85,1.85,0,0,0,1.51,1l.2,0c0,.08,0,.19,0,.33.07.4.13.8.2,1.21q.15,1.06.3,2.22c0,.24,0,.42.05.55l-2,2.91a10.1,10.1,0,0,1-.81,1.06l-.33,0a6.48,6.48,0,0,1-.83.08h0a2.23,2.23,0,0,0-1.9,1.15,2,2,0,0,0-.17,2.18,1.76,1.76,0,0,0,1.5.88l1.94,0c1,0,1.74.05,2.24.09s1.17.12,2.1.25l1.74.23h.12a1.67,1.67,0,0,0,1.14-.38,3.94,3.94,0,0,0,.6-.66,2.05,2.05,0,0,0,.29-2.13,1.9,1.9,0,0,0-.6-.69l1.93-2.79c.27-.17,1.08-.69,3.49-2,3-1.65,4.31-2.28,4.86-2.55a3.27,3.27,0,0,1,.91-.23,5,5,0,0,1,.8,0l.19,0a2,2,0,0,0,1.8-1,2.37,2.37,0,0,0,.41-1,1.81,1.81,0,0,0-.36-1.46,1.88,1.88,0,0,0-1.33-.74l-3.23-.29c-.56-.07-1.67-.25-3.31-.51l-.18,0a1.86,1.86,0,0,0-.71.11,2.19,2.19,0,0,0-.81.58,1.86,1.86,0,0,0-1.51-1c-2.31-.15-3.68-.23-4.12-.27s-.81-.08-1.23-.13l-.54-.06-.89-.11-1.23-.15Zm7.64,4.91h0v0Z"/>
            </g>
          </g>
        </g>
      </g>
    </g>
  </g>
</svg>
