<?xml version="1.0" encoding="UTF-8"?>
<svg xmlns="http://www.w3.org/2000/svg" xmlns:xlink="http://www.w3.org/1999/xlink" width="50pt" height="50pt" viewBox="0 0 50 50" version="1.1">
<g id="surface1">
<path style=" stroke:none;fill-rule:nonzero;fill:rgb(23.137255%,34.901961%,59.607843%);fill-opacity:1;" d="M 50 25 C 50 38.808594 38.808594 50 25 50 C 11.191406 50 0 38.808594 0 25 C 0 11.191406 11.191406 0 25 0 C 38.808594 0 50 11.191406 50 25 Z M 50 25 "/>
<path style=" stroke:none;fill-rule:nonzero;fill:rgb(100%,100%,100%);fill-opacity:1;" d="M 29.453125 14.765625 C 30.976562 14.765625 33 14.765625 33 14.765625 L 33 9.472656 C 33 9.472656 30.871094 9.472656 27.980469 9.472656 C 25.089844 9.472656 21.328125 11.328125 21.328125 16.71875 C 21.328125 17.726562 21.328125 19.199219 21.328125 20.917969 L 16.535156 20.917969 L 16.535156 26.398438 L 21.328125 26.398438 C 21.328125 33.222656 21.328125 40.65625 21.328125 40.65625 L 27.050781 40.65625 C 27.050781 40.65625 27.050781 32.960938 27.050781 26.398438 L 31.816406 26.398438 L 32.609375 20.917969 L 27.050781 20.917969 C 27.050781 19.121094 27.050781 17.8125 27.050781 17.429688 C 27.050781 15.632812 27.929688 14.765625 29.453125 14.765625 Z M 29.453125 14.765625 "/>
</g>
</svg>
