<svg id="圖層_1" data-name="圖層 1" xmlns="http://www.w3.org/2000/svg" xmlns:xlink="http://www.w3.org/1999/xlink" viewBox="0 0 512 512.02">
  <defs>
    <radialGradient id="未命名漸層_2" data-name="未命名漸層 2" cx="-99.98" cy="774.94" r="684.44" gradientTransform="matrix(0.06, -1.08, -0.92, -0.05, 767.91, 562.26)" gradientUnits="userSpaceOnUse">
      <stop offset="0" stop-color="#f7d077"/>
      <stop offset="0.26" stop-color="#e96f36"/>
      <stop offset="0.61" stop-color="#b0317a"/>
      <stop offset="1" stop-color="#485faa"/>
    </radialGradient>
  </defs>
  <g>
    <g id="Background">
      <path d="M41.5,417.4v13.8c3.6,132.4,110.2,238.7,237.1,248.7h39C445.2,669.8,550,562.6,553.5,431V417.4C550,283.5,441.6,174.9,310.9,168.2,170.3,161.1,45.4,273.9,41.5,417.4Z" transform="translate(-41.5 -167.88)" style="fill: url(#未命名漸層_2)"/>
    </g>
    <g id="Symbol">
      <g>
        <path d="M298.7,296.5c40.8,0,45.6.1,61.8.9,14.9.6,22.9,3.2,28.3,5.3a47.07,47.07,0,0,1,17.5,11.6,49.23,49.23,0,0,1,11.5,17.8c2.1,5.5,4.5,13.7,5.3,28.9.8,16.4.9,21.3.9,62.8s-.1,46.4-.9,62.8c-.6,15.1-3.1,23.4-5.3,28.9a48,48,0,0,1-11.5,17.8,47.07,47.07,0,0,1-17.5,11.6c-5.4,2.2-13.5,4.7-28.3,5.3-16.1.8-21,.9-61.8.9s-45.6-.1-61.8-.9c-14.9-.6-22.9-3.2-28.3-5.3a47.07,47.07,0,0,1-17.5-11.6,49.23,49.23,0,0,1-11.5-17.8c-2.1-5.5-4.5-13.7-5.3-28.9-.8-16.4-.9-21.3-.9-62.8s.1-46.4.9-62.8c.6-15.1,3.1-23.4,5.3-28.9a48,48,0,0,1,11.5-17.8,47.07,47.07,0,0,1,17.5-11.6c5.4-2.2,13.5-4.7,28.3-5.3,16.1-.7,21-.9,61.8-.9m0-28c-41.5,0-46.7.2-62.9,1s-27.4,3.4-37.1,7.2a73.17,73.17,0,0,0-27,18,76.21,76.21,0,0,0-17.6,27.6c-3.8,9.8-6.4,21.2-7.1,37.7s-.9,21.8-.9,64,.2,47.5.9,64,3.4,27.8,7.1,37.7a77.06,77.06,0,0,0,17.6,27.6,74.83,74.83,0,0,0,27,18c9.7,3.9,20.9,6.5,37.1,7.2s21.5,1,62.9,1,46.7-.2,62.9-1,27.4-3.4,37.1-7.2a73.17,73.17,0,0,0,27-18,76.21,76.21,0,0,0,17.6-27.6c3.8-9.8,6.4-21.2,7.1-37.7s.9-21.8.9-64-.2-47.5-.9-64-3.4-27.8-7.1-37.7a77.06,77.06,0,0,0-17.6-27.6,74.83,74.83,0,0,0-27-18c-9.7-3.9-20.9-6.5-37.1-7.2s-21.5-1-62.9-1Z" transform="translate(-41.5 -167.88)" style="fill: #fff"/>
        <path d="M298.7,344.1c-43.4,0-78.4,35.7-78.4,79.8s35.1,79.8,78.4,79.8,78.4-35.7,78.4-79.8S342,344.1,298.7,344.1Zm0,131.6c-28.1,0-50.9-23.1-50.9-51.8s22.8-51.8,50.9-51.8,50.9,23.1,50.9,51.8S326.8,475.7,298.7,475.7Z" transform="translate(-41.5 -167.88)" style="fill: #fff"/>
        <ellipse cx="338.7" cy="173.02" rx="18.3" ry="18.6" style="fill: #fff"/>
      </g>
    </g>
  </g>
</svg>
