<svg id="Layer_1" data-name="Layer 1" xmlns="http://www.w3.org/2000/svg" xmlns:xlink="http://www.w3.org/1999/xlink" viewBox="0 0 512 512.02">
  <defs>
    <style>
      .cls-1 {
        fill: url(#未命名漸層);
      }

      .cls-2 {
        fill: #fff;
      }
    </style>
    <radialGradient id="未命名漸層" cx="-139.38" cy="609.45" r="684.44" gradientTransform="matrix(0.06, -1.08, -0.92, -0.05, 576.72, 343.84)" gradientUnits="userSpaceOnUse">
      <stop offset="0" stop-color="#fed576"/>
      <stop offset="0.26" stop-color="#f47133"/>
      <stop offset="0.61" stop-color="#bc3081"/>
      <stop offset="1" stop-color="#4c63d2"/>
    </radialGradient>
  </defs>
  <g>
    <g id="Background">
      <path class="cls-1" d="M0,249.5v13.8C3.6,395.7,110.2,502,237.1,512h39C403.7,501.9,508.5,394.7,512,263.1V249.5C508.5,115.6,400.1,7,269.4.3,128.8-6.8,3.9,106,0,249.5Z" transform="translate(0 0.02)"/>
    </g>
    <g id="Symbol">
      <g>
        <path class="cls-2" d="M257.2,128.6c40.8,0,45.6.1,61.8.9,14.9.6,22.9,3.2,28.3,5.3a47.07,47.07,0,0,1,17.5,11.6,49.23,49.23,0,0,1,11.5,17.8c2.1,5.5,4.5,13.7,5.3,28.9.8,16.4.9,21.3.9,62.8s-.1,46.4-.9,62.8c-.6,15.1-3.1,23.4-5.3,28.9a48,48,0,0,1-11.5,17.8A47.07,47.07,0,0,1,347.3,377c-5.4,2.2-13.5,4.7-28.3,5.3-16.1.8-21,.9-61.8.9s-45.6-.1-61.8-.9c-14.9-.6-22.9-3.2-28.3-5.3a47.07,47.07,0,0,1-17.5-11.6,49.23,49.23,0,0,1-11.5-17.8c-2.1-5.5-4.5-13.7-5.3-28.9-.8-16.4-.9-21.3-.9-62.8s.1-46.4.9-62.8c.6-15.1,3.1-23.4,5.3-28.9a48,48,0,0,1,11.5-17.8,47.07,47.07,0,0,1,17.5-11.6c5.4-2.2,13.5-4.7,28.3-5.3,16.1-.7,21-.9,61.8-.9m0-28c-41.5,0-46.7.2-62.9,1s-27.4,3.4-37.1,7.2a73.17,73.17,0,0,0-27,18,76.21,76.21,0,0,0-17.6,27.6c-3.8,9.8-6.4,21.2-7.1,37.7s-.9,21.8-.9,64,.2,47.5.9,64,3.4,27.8,7.1,37.7a77.06,77.06,0,0,0,17.6,27.6,74.83,74.83,0,0,0,27,18c9.7,3.9,20.9,6.5,37.1,7.2s21.5,1,62.9,1,46.7-.2,62.9-1,27.4-3.4,37.1-7.2a73.17,73.17,0,0,0,27-18,76.21,76.21,0,0,0,17.6-27.6c3.8-9.8,6.4-21.2,7.1-37.7s.9-21.8.9-64-.2-47.5-.9-64-3.4-27.8-7.1-37.7a77.06,77.06,0,0,0-17.6-27.6,74.83,74.83,0,0,0-27-18c-9.7-3.9-20.9-6.5-37.1-7.2s-21.5-1-62.9-1Z" transform="translate(0 0.02)"/>
        <path class="cls-2" d="M257.2,176.2c-43.4,0-78.4,35.7-78.4,79.8s35.1,79.8,78.4,79.8,78.4-35.7,78.4-79.8S300.5,176.2,257.2,176.2Zm0,131.6c-28.1,0-50.9-23.1-50.9-51.8s22.8-51.8,50.9-51.8,50.9,23.1,50.9,51.8S285.3,307.8,257.2,307.8Z" transform="translate(0 0.02)"/>
        <ellipse class="cls-2" cx="338.7" cy="173.02" rx="18.3" ry="18.6"/>
      </g>
    </g>
  </g>
</svg>
