<?xml version="1.0" encoding="UTF-8"?>
<svg xmlns="http://www.w3.org/2000/svg" xmlns:xlink="http://www.w3.org/1999/xlink" width="50pt" height="50pt" viewBox="0 0 50 50" version="1.1">
<defs>
<radialGradient id="radial0" gradientUnits="userSpaceOnUse" cx="51.9924" cy="13.5086" fx="51.9924" fy="13.5086" r="684.4449" gradientTransform="matrix(0.00552767,-0.105469,0.0896484,0.00469855,-0.584766,50.835605)">
<stop offset="0" style="stop-color:rgb(99.607843%,83.529412%,46.27451%);stop-opacity:1;"/>
<stop offset="0.2634" style="stop-color:rgb(95.686275%,44.313725%,20%);stop-opacity:1;"/>
<stop offset="0.6091" style="stop-color:rgb(73.72549%,18.823529%,50.588235%);stop-opacity:1;"/>
<stop offset="1" style="stop-color:rgb(29.803922%,38.823529%,82.352941%);stop-opacity:1;"/>
</radialGradient>
</defs>
<g id="surface1">
<path style=" stroke:none;fill-rule:nonzero;fill:url(#radial0);" d="M 0 24.367188 L 0 25.710938 C 0.351562 38.640625 10.761719 49.023438 23.15625 50 L 26.964844 50 C 39.421875 49.015625 49.65625 38.546875 50 25.695312 L 50 24.367188 C 49.65625 11.289062 39.070312 0.683594 26.308594 0.03125 C 12.578125 -0.664062 0.382812 10.351562 0 24.367188 Z M 0 24.367188 "/>
<path style=" stroke:none;fill-rule:nonzero;fill:rgb(100%,100%,100%);fill-opacity:1;" d="M 25.117188 12.558594 C 29.101562 12.558594 29.570312 12.566406 31.152344 12.648438 C 32.609375 12.703125 33.390625 12.957031 33.914062 13.164062 C 34.609375 13.4375 35.109375 13.769531 35.625 14.296875 C 36.140625 14.824219 36.476562 15.332031 36.75 16.035156 C 36.953125 16.570312 37.1875 17.375 37.265625 18.859375 C 37.34375 20.460938 37.351562 20.9375 37.351562 24.992188 C 37.351562 29.042969 37.34375 29.523438 37.265625 31.125 C 37.207031 32.597656 36.960938 33.40625 36.75 33.945312 C 36.476562 34.648438 36.152344 35.15625 35.625 35.683594 C 35.109375 36.210938 34.609375 36.542969 33.914062 36.816406 C 33.390625 37.03125 32.597656 37.277344 31.152344 37.335938 C 29.578125 37.414062 29.101562 37.421875 25.117188 37.421875 C 21.132812 37.421875 20.664062 37.414062 19.082031 37.335938 C 17.625 37.277344 16.84375 37.023438 16.316406 36.816406 C 15.625 36.542969 15.125 36.210938 14.609375 35.683594 C 14.089844 35.15625 13.757812 34.648438 13.484375 33.945312 C 13.28125 33.40625 13.046875 32.609375 12.96875 31.125 C 12.890625 29.523438 12.878906 29.042969 12.878906 24.992188 C 12.878906 20.9375 12.890625 20.460938 12.96875 18.859375 C 13.027344 17.382812 13.269531 16.570312 13.484375 16.035156 C 13.757812 15.332031 14.082031 14.824219 14.609375 14.296875 C 15.125 13.769531 15.625 13.4375 16.316406 13.164062 C 16.84375 12.949219 17.636719 12.707031 19.082031 12.648438 C 20.65625 12.578125 21.132812 12.558594 25.117188 12.558594 M 25.117188 9.824219 C 21.0625 9.824219 20.554688 9.84375 18.976562 9.921875 C 17.390625 10 16.296875 10.253906 15.351562 10.625 C 14.367188 11.015625 13.535156 11.53125 12.714844 12.382812 C 11.882812 13.234375 11.375 14.070312 10.996094 15.078125 C 10.625 16.035156 10.371094 17.148438 10.304688 18.761719 C 10.226562 20.371094 10.214844 20.890625 10.214844 25.011719 C 10.214844 29.132812 10.234375 29.648438 10.304688 31.261719 C 10.382812 32.871094 10.632812 33.976562 10.996094 34.941406 C 11.375 35.9375 11.882812 36.789062 12.714844 37.636719 C 13.542969 38.488281 14.375 39.003906 15.351562 39.394531 C 16.296875 39.773438 17.390625 40.03125 18.976562 40.097656 C 20.566406 40.175781 21.074219 40.195312 25.117188 40.195312 C 29.160156 40.195312 29.675781 40.175781 31.257812 40.097656 C 32.839844 40.019531 33.933594 39.765625 34.882812 39.394531 C 35.867188 39.003906 36.699219 38.484375 37.519531 37.636719 C 38.351562 36.789062 38.859375 35.945312 39.238281 34.941406 C 39.609375 33.984375 39.863281 32.871094 39.929688 31.261719 C 40.011719 29.648438 40.019531 29.132812 40.019531 25.011719 C 40.019531 20.890625 40 20.371094 39.929688 18.761719 C 39.851562 17.148438 39.601562 16.046875 39.238281 15.078125 C 38.859375 14.082031 38.351562 13.234375 37.519531 12.382812 C 36.6875 11.535156 35.859375 11.015625 34.882812 10.625 C 33.9375 10.246094 32.84375 9.992188 31.257812 9.921875 C 29.675781 9.84375 29.160156 9.824219 25.117188 9.824219 Z M 25.117188 9.824219 "/>
<path style=" stroke:none;fill-rule:nonzero;fill:rgb(100%,100%,100%);fill-opacity:1;" d="M 25.117188 17.207031 C 20.878906 17.207031 17.460938 20.691406 17.460938 25 C 17.460938 29.308594 20.886719 32.792969 25.117188 32.792969 C 29.34375 32.792969 32.773438 29.308594 32.773438 25 C 32.773438 20.691406 29.34375 17.207031 25.117188 17.207031 Z M 25.117188 30.058594 C 22.375 30.058594 20.148438 27.804688 20.148438 25 C 20.148438 22.195312 22.375 19.941406 25.117188 19.941406 C 27.859375 19.941406 30.085938 22.195312 30.085938 25 C 30.089844 27.804688 27.859375 30.058594 25.117188 30.058594 Z M 25.117188 30.058594 "/>
<path style=" stroke:none;fill-rule:nonzero;fill:rgb(100%,100%,100%);fill-opacity:1;" d="M 34.863281 16.894531 C 34.863281 15.890625 34.0625 15.078125 33.078125 15.078125 C 32.089844 15.078125 31.289062 15.890625 31.289062 16.894531 C 31.289062 17.898438 32.089844 18.710938 33.078125 18.710938 C 34.0625 18.710938 34.863281 17.898438 34.863281 16.894531 Z M 34.863281 16.894531 "/>
</g>
</svg>
