<svg xmlns="http://www.w3.org/2000/svg" viewBox="0 0 468.04 62.22">
  <defs>
    <style>
      .cls-1 {
        fill: #529f6f;
      }

      .cls-2 {
        fill: #00487b;
      }

      .cls-3 {
        fill: #fff;
      }

      .cls-4 {
        fill: #b2ce8a;
      }

      .cls-5, .cls-6 {
        fill: #0086a2;
      }

      .cls-6 {
        font-size: 20.31px;
        font-family: GenWanMinTW-M, GenWanMin TW;
        letter-spacing: -0.03em;
      }

      .cls-7 {
        letter-spacing: -0.03em;
      }

      .cls-8 {
        letter-spacing: -0.1em;
      }

      .cls-9 {
        letter-spacing: -0.04em;
      }

      .cls-10 {
        letter-spacing: -0.03em;
      }

      .cls-11 {
        letter-spacing: -0.02em;
      }

      .cls-12 {
        letter-spacing: -0.05em;
      }

      .cls-13 {
        letter-spacing: -0.03em;
      }

      .cls-14 {
        letter-spacing: -0.02em;
      }

      .cls-15 {
        font-size: 27.81px;
        fill: #231815;
        font-family: GenWanMinTW-SB, GenWanMin TW;
        letter-spacing: 0.01em;
      }
    </style>
  </defs>
  <g id="圖層_2" data-name="圖層 2">
    <g id="圖層_1-2" data-name="圖層 1">
      <g>
        <text/>        <path class="cls-1" d="M41.89,49.88a34.31,34.31,0,0,1-11.09.94,40.88,40.88,0,0,0,11.39,4.91,41.41,41.41,0,0,0,51.18-32.4q.12-.61.21-1.23a27.6,27.6,0,0,1,9.49-15.76C71.18,5.87,68.86,42.76,41.89,49.88Z"/>
        <g>
          <g>
            <g>
              <path class="cls-2" d="M5.68,42.89l-1-.22c-.55-.13-1-.23-1.24-.28l-1.31-.21L.74,42l-.15-.25A.63.63,0,0,1,.66,41a.69.69,0,0,1,.62-.37h0a3.57,3.57,0,0,0,.59,0,2.53,2.53,0,0,0,.41,0A6.5,6.5,0,0,0,2.86,40c.93-1.25,1.85-2.51,2.78-3.78A5.52,5.52,0,0,0,6,35.72l-.58-.11-.16,0a2.74,2.74,0,0,0-.91.06,3.19,3.19,0,0,0-1.08.58.62.62,0,0,1-.51.12,1.16,1.16,0,0,1-.88-.46l-.21-.34c.68-.69,1.35-1.39,2-2.09l.3.12a6.66,6.66,0,0,0,1,.29l1.8.34c.72.14,1.31.25,1.77.32s1.07.15,1.83.23l1.85.22.18,0a7.73,7.73,0,0,0,1,0l.91,0c-.48.93-1,1.85-1.45,2.77l-.17.06a1.44,1.44,0,0,1-.58.06l-.43-.06-.27-.28a.53.53,0,0,1,0-.49.49.49,0,0,0,0-.36.9.9,0,0,0-.57-.22l-.62-.07a2,2,0,0,0-.61,0,5.29,5.29,0,0,0-.69.82Q7.43,39.11,6,41c-.11.16-.2.29-.26.4A.79.79,0,0,0,6,41.5l.28,0,.15.28a.63.63,0,0,1-.13.7,1.43,1.43,0,0,1-.26.28l-.15.11Z"/>
              <path class="cls-3" d="M3.84,34a5.64,5.64,0,0,0,1,.31l1.79.35c.73.14,1.32.25,1.79.32s1.07.15,1.83.23l1.84.22.21,0c.26,0,.6,0,1,0-.32.6-.63,1.21-.95,1.82a1.09,1.09,0,0,1-.39,0l-.14,0c-.1,0-.15,0-.13-.08.23-.75-.1-1.18-1-1.3-.24,0-.46-.06-.64-.08-.5,0-.8,0-.9.07a4.51,4.51,0,0,0-.81.93L5.62,40.68a3,3,0,0,0-.49.88s.09.13.33.24A1.61,1.61,0,0,0,6,42s0,.08-.08.22a1,1,0,0,1-.17.18l-1-.21c-.57-.14-1-.23-1.28-.29l-1.33-.21L1,41.51s0-.1.06-.18.18-.21.21-.21h.06a4.57,4.57,0,0,0,.62,0,1.33,1.33,0,0,0,.6-.08,3.9,3.9,0,0,0,.71-.77l2.79-3.79c.4-.54.59-.88.57-1a.22.22,0,0,0,0-.1s-.12-.07-.31-.13a7.59,7.59,0,0,0-.88-.19l-.19,0a3,3,0,0,0-1.09.07,3.5,3.5,0,0,0-1.24.66.19.19,0,0,1-.16,0H2.69c-.24,0-.38-.1-.42-.16.52-.55,1-1.09,1.57-1.63m-.36-1.18-.41.43L1.51,34.91c-.17.16-.33.33-.49.5l.41.69a1.69,1.69,0,0,0,1.21.72h.1a1,1,0,0,0,.87-.23,2.45,2.45,0,0,1,.89-.48,1.81,1.81,0,0,1,.57-.06q-1.31,1.8-2.63,3.56a3.54,3.54,0,0,1-.43.51h-.2a4.24,4.24,0,0,1-.47,0h0a1.11,1.11,0,0,0-1.09.51,1.13,1.13,0,0,0-.06,1.3l.29.49.54.08.85.13.27,0c.57.09,1,.15,1.28.21s.69.14,1.22.27l.19,0,.84.19.4.06.3-.22a1.69,1.69,0,0,0,.34-.36,1.13,1.13,0,0,0,.17-1.21c-.08-.19-.17-.37-.26-.55l2.62-3.6a4.4,4.4,0,0,1,.53-.66l.35,0,.59.07h.06l-.13.3.28.5a1.23,1.23,0,0,0,.92.58l.2,0a1.9,1.9,0,0,0,.78-.08l.34-.12.17-.32L14.26,36l.83-1.59-1.83.07a9,9,0,0,1-.91,0l-.15,0-1.87-.22C9.58,34.17,9,34.09,8.52,34s-1-.17-1.75-.31L5,33.36a5.29,5.29,0,0,1-.86-.26l-.61-.24Z"/>
            </g>
            <g>
              <path class="cls-2" d="M17.45,44.46c-.56-.06-1.45-.16-2.67-.32l-2.94-.39-2.7-.3L9,43.23a.64.64,0,0,1,.06-.76.74.74,0,0,1,.64-.39h.61a1.82,1.82,0,0,0,.39,0s.22-.24.62-.81q1.45-2,2.91-4.1c.12-.17.21-.3.27-.4a.93.93,0,0,0-.28-.09l-.28,0-.15-.27a.67.67,0,0,1,.12-.7.84.84,0,0,1,.43-.37l.11,0,.12,0c.85.14,1.64.24,2.37.32.48.05,1.34.13,2.57.22l2.8.2.78.06-.36.68c0,.1-.26.66-.64,1.65l-.07.2-.19.08a1.32,1.32,0,0,1-.48.07h-.17a.63.63,0,0,1-.65-.64h0s0-.16-.29-.37a1.52,1.52,0,0,0-.84-.32l-.63-.06-.5,0c-.19,0-.3,0-.35,0a6.51,6.51,0,0,0-.56.73l-.74,1.05.7.08.87.07h.1l.13-.16c.12-.13.24-.24.37-.36a.81.81,0,0,1,.58-.17,1,1,0,0,1,.79.31l.21.29-1.74,2.51-.13.05a1,1,0,0,1-.43.06l-.18,0a.76.76,0,0,1-.54-.25l-.14-.17v-.26l.05-.23c-.14,0-.39-.06-.82-.11l-.75-.06h-.18l-1.07,1.53-.17.24a2.78,2.78,0,0,0,.37,0l.42.05.36,0A6.2,6.2,0,0,0,17,42.45a4.78,4.78,0,0,0,.8-.27,5,5,0,0,0,.89-.52.73.73,0,0,1,.52-.15c.5.05.77.12.93.35l.26.39-.36.28a27,27,0,0,0-2.16,1.78l-.16.17Z"/>
              <path class="cls-3" d="M14.51,35.75c.86.14,1.65.25,2.39.33.48.05,1.34.13,2.58.22l2.79.2c0,.08-.25.65-.66,1.7a.53.53,0,0,1-.27,0H21.2c-.13,0-.18,0-.18-.1a1.12,1.12,0,0,0-.49-.81,2.12,2.12,0,0,0-1.11-.42l-.63-.06-.53,0a1.16,1.16,0,0,0-.65.07,6.08,6.08,0,0,0-.68.86l-1.19,1.69s.2.1.67.15l.87.09.9.07h.26c.08,0,.19-.12.35-.31a3.26,3.26,0,0,1,.33-.31.35.35,0,0,1,.24-.06h.06c.19,0,.29,0,.32.08-.48.71-1,1.41-1.45,2.1a.5.5,0,0,1-.23,0h-.15c-.14,0-.21,0-.2-.11l.07-.28c0-.07,0-.13,0-.17v-.11a.16.16,0,0,0,0-.06s0,0,0,0l0,0a4.56,4.56,0,0,0-1.23-.22l-.77-.06c-.29,0-.46,0-.48,0L14,41.88a2.26,2.26,0,0,0-.41.79c0,.13.3.23,1,.31L15,43l.39,0A6.66,6.66,0,0,0,17.09,43a5.09,5.09,0,0,0,.9-.31,6.15,6.15,0,0,0,1-.57s.1-.06.21,0h.07c.26,0,.41.06.45.11-1.25,1-2,1.58-2.22,1.83l-2.66-.31-3-.39L9.41,43s0-.1.06-.19.17-.21.22-.21h.08a3.51,3.51,0,0,0,.59,0,1.25,1.25,0,0,0,.59-.1,5.66,5.66,0,0,0,.78-.93q1.45-2,2.91-4.11a3.43,3.43,0,0,0,.49-.87c0-.06-.1-.14-.34-.25a1.84,1.84,0,0,0-.54-.18c-.05,0,0-.07.07-.21a.6.6,0,0,1,.19-.2m-.14-1-.23.08a1.31,1.31,0,0,0-.65.54,1.12,1.12,0,0,0-.16,1.2l.26.54h0c-.91,1.3-1.82,2.58-2.73,3.86-.25.34-.41.53-.51.65h-.7a1.17,1.17,0,0,0-1,.57,1.12,1.12,0,0,0-.06,1.33c.1.15.2.29.29.44l.51.06,2.45.28,2.92.38c1.22.16,2.11.26,2.67.32l.48,0,.33-.34a23.52,23.52,0,0,1,2.1-1.73l.72-.56-.53-.78a1.25,1.25,0,0,0-.87-.52l.93-1.34.36-.53.2,0h.2a1.73,1.73,0,0,0,.68-.11L22.4,39l.15-.39c.21-.56.57-1.5.63-1.63l.59-1.32-1.44-.13-2.81-.2c-1.23-.09-2.08-.17-2.56-.22-.73-.08-1.52-.18-2.34-.32l-.25,0Zm3.79,3.09h.1l.47,0,.63.06a1,1,0,0,1,.57.21l.06,0a2,2,0,0,0-.51-.1h-.12a1.28,1.28,0,0,0-.94.31c-.13.12-.26.24-.38.37l-.52,0,.24-.34a5,5,0,0,1,.4-.53Zm-3,4.23.61-.87.63.06.28,0,0,.17.3.39.08.09-.2.05a5.67,5.67,0,0,1-1.42.1l-.26,0Z"/>
            </g>
            <g>
              <path class="cls-2" d="M25.31,45.13c-.3,0-.6,0-.89,0a4.09,4.09,0,0,1-3.37-1.61,2.74,2.74,0,0,1,.22-3.28,8.58,8.58,0,0,1,3.65-2.8,10.77,10.77,0,0,1,4.36-1h.54a20.27,20.27,0,0,1,3.66.49.52.52,0,0,1,.34.26c.12.26,0,.5-.33,1.23a9.66,9.66,0,0,1-.53,1,1,1,0,0,1-.87.39H32l-.25,0a.54.54,0,0,1-.36-.23.51.51,0,0,1-.09-.4.63.63,0,0,0,0-.24.73.73,0,0,0-.15-.31,1,1,0,0,0-.5-.29,4.09,4.09,0,0,0-1.2-.2h-.28a5.21,5.21,0,0,0-4.3,2.68,2.68,2.68,0,0,0-.63,2c0,.17.16.67,1.45.76h.24A5.15,5.15,0,0,0,28,43.08a2.94,2.94,0,0,0,.57-.34c.22-.15.39-.29.53-.4s.34-.28.54-.29c.62,0,.87.1,1,.29a.58.58,0,0,1,.14.4.5.5,0,0,1-.09.23,7,7,0,0,1-.92,1c-.73.69-1,.85-1.2.89A18.08,18.08,0,0,1,25.31,45.13Z"/>
              <path class="cls-3" d="M29.28,36.91h.52a19.53,19.53,0,0,1,3.56.48s-.06.27-.32.78-.42.83-.49.94a.54.54,0,0,1-.46.16H32l-.25,0a1,1,0,0,0,0-.45,1.22,1.22,0,0,0-.23-.52,1.44,1.44,0,0,0-.73-.47,4.5,4.5,0,0,0-1.35-.23h-.31a5.7,5.7,0,0,0-4.71,2.9,3.12,3.12,0,0,0-.71,2.44c.17.68.81,1.07,1.92,1.14h.26a5.46,5.46,0,0,0,2.27-.5,3.65,3.65,0,0,0,.66-.39l.55-.42c.14-.12.22-.17.23-.18h0c.45,0,.67.07.67.15a8.66,8.66,0,0,1-.86.89,3.66,3.66,0,0,1-.94.76,18,18,0,0,1-3.17.28c-.3,0-.58,0-.87,0a3.62,3.62,0,0,1-3-1.38,2.28,2.28,0,0,1,.23-2.72,8,8,0,0,1,3.43-2.63,10.37,10.37,0,0,1,4.16-1m0-1a11.45,11.45,0,0,0-4.57,1,9.06,9.06,0,0,0-3.85,3,3.22,3.22,0,0,0-.23,3.84,4.57,4.57,0,0,0,3.76,1.84c.3,0,.61,0,.92,0a18.68,18.68,0,0,0,3.33-.29c.39-.08.73-.32,1.47-1a6.89,6.89,0,0,0,1-1.07,1,1,0,0,0,.16-.46A1.07,1.07,0,0,0,31,42a1.83,1.83,0,0,0-1.35-.45h0a1.32,1.32,0,0,0-.91.41l-.51.38a2.2,2.2,0,0,1-.48.28A4.63,4.63,0,0,1,25.9,43h-.21c-.21,0-.93-.08-1-.36A2.38,2.38,0,0,1,25.26,41a4.75,4.75,0,0,1,3.88-2.46h.25a3.9,3.9,0,0,1,1.06.17,1,1,0,0,1,.28.14l.05.09a1,1,0,0,0,.76,1.25,3,3,0,0,0,.36.06h.19a1.45,1.45,0,0,0,1.29-.62,9.37,9.37,0,0,0,.56-1c.34-.67.58-1.15.33-1.67a1,1,0,0,0-.72-.53,20.24,20.24,0,0,0-3.7-.49Z"/>
            </g>
            <g>
              <path class="cls-2" d="M40.74,45.64l-1-.06q-.78-.06-1.2-.06c-.29,0-.74,0-1.35,0l-1.39,0-.18-.24a.75.75,0,0,1,.12-.8.84.84,0,0,1,.61-.41h0a2.92,2.92,0,0,0,.59-.08,1.49,1.49,0,0,0,.42-.11,8.2,8.2,0,0,0,.56-.78l.83-1.26-1.08,0H36c-.37.57-.75,1.14-1.13,1.7l-.29.48a.9.9,0,0,0,.23.05l.27,0,.16.25a.67.67,0,0,1-.08.66,1.4,1.4,0,0,1-.34.4l-.14.11h-.19l-1-.08-1.33-.09H29.53l-.15-.22a.64.64,0,0,1,.07-.75c.15-.23.31-.46.61-.46h0a3.57,3.57,0,0,0,.6-.06,1.46,1.46,0,0,0,.4-.09,7.76,7.76,0,0,0,.59-.78l2.94-4.43.27-.43a1,1,0,0,0-.24,0h-.29l-.14-.26a.72.72,0,0,1,.14-.73,1,1,0,0,1,.38-.39l.12-.05,2.38.13,2.42,0h.41l.07.41a.88.88,0,0,1-.19.62.8.8,0,0,1-.6.42h0l-.57.08a2.16,2.16,0,0,0-.42.11,7.37,7.37,0,0,0-.62.83l-.63,1,1.13,0c.27,0,.83,0,1.69,0l1-1.51a4.44,4.44,0,0,0,.27-.44.87.87,0,0,0-.23,0h-.28l-.16-.26a.66.66,0,0,1,.1-.68,1.1,1.1,0,0,1,.43-.45l.12-.06,2.53.09,2.26-.07.59,0-.11.59a1,1,0,0,1-.17.41.88.88,0,0,1-.64.47h0a4.76,4.76,0,0,0-.56.09,3.32,3.32,0,0,0-.4.1,8.51,8.51,0,0,0-.63.86q-1.44,2.2-2.87,4.41a5.1,5.1,0,0,0-.29.48,1,1,0,0,0,.22,0h.29l.15.27a.71.71,0,0,1-.15.74,1.54,1.54,0,0,1-.27.31l-.16.13Z"/>
              <path class="cls-3" d="M34.93,37.16l2.25.12c.28,0,1.1,0,2.45,0,0,0,0,.13-.11.25s-.14.19-.18.19h0l-.61.09a1.61,1.61,0,0,0-.6.18,4.7,4.7,0,0,0-.78,1l-1.1,1.65v0l2,.06q.45,0,2,0l.06,0c.37-.57.74-1.14,1.12-1.71a4.25,4.25,0,0,0,.49-.93c0-.06-.1-.13-.33-.2A1.56,1.56,0,0,0,41,37.7s0-.07.05-.2a.58.58,0,0,1,.22-.24c1.49.06,2.29.08,2.41.08l2.28-.07a1,1,0,0,1-.09.21c-.1.15-.17.23-.23.23h0a5.93,5.93,0,0,0-.6.1,1.92,1.92,0,0,0-.59.18,6.37,6.37,0,0,0-.78,1l-2.88,4.41a4,4,0,0,0-.52,1c0,.05.1.12.34.18a2.09,2.09,0,0,0,.5.1c.05,0,0,.08-.09.25a1,1,0,0,1-.18.2l-1-.06c-.52,0-.93-.06-1.22-.06s-.76,0-1.37,0l-1.12,0h0s0-.12.1-.24.15-.19.2-.2h0a3.54,3.54,0,0,0,.63-.09,1.63,1.63,0,0,0,.61-.19,6.09,6.09,0,0,0,.71-.92l1.28-2v0l-1.92-.05c-1.13,0-1.8,0-2,0h-.07l0,0L34.43,43.3a4,4,0,0,0-.52,1s.1.12.33.19a2.81,2.81,0,0,0,.5.13s0,.06,0,.17a1,1,0,0,1-.21.26l-1-.08-1.33-.09H29.8s0-.1.07-.2.16-.23.18-.23h.07a4.77,4.77,0,0,0,.62-.06,1.49,1.49,0,0,0,.6-.17,4.75,4.75,0,0,0,.74-.93L35,38.84a2.88,2.88,0,0,0,.49-.91c0-.09-.11-.16-.32-.23a1.73,1.73,0,0,0-.52-.11s0-.08.09-.24.13-.18.17-.19m-.16-1-.23.1a1.49,1.49,0,0,0-.61.58,1.2,1.2,0,0,0-.17,1.23l.26.52c-.92,1.39-1.85,2.77-2.77,4.15a4.47,4.47,0,0,1-.46.62l-.19,0a3.89,3.89,0,0,1-.48,0h0a1.27,1.27,0,0,0-1.08.68A1.12,1.12,0,0,0,29,45.42l.29.44h2.86L33.4,46l1,.08h.37l.29-.23a1.07,1.07,0,0,0,.16-.14c.09.14.18.28.26.42l.57,0h0l1.13,0c.59,0,1,0,1.33,0l1.16.06,1,.06h.39l.3-.27a2.13,2.13,0,0,0,.38-.42A1.23,1.23,0,0,0,42,44.21l-.26-.51,2.73-4.18a6.07,6.07,0,0,1,.5-.69l.18,0,.46-.08h0a1.42,1.42,0,0,0,1.1-.72,1.6,1.6,0,0,0,.24-.59c.08-.4.15-.79.23-1.18l-1.19,0c-1.33.06-2.08.08-2.24.08l-2.39-.08h-.25l-.24.11a1.24,1.24,0,0,0-.29.2l-.06-.34-.82,0c-1.37,0-2.16,0-2.42,0q-1.11,0-2.22-.12Zm4.53,2.54a1.18,1.18,0,0,0,.82-.37l.2.37-.67,1H38l.15-.21a6.28,6.28,0,0,1,.48-.67l.22,0,.46-.08Zm-3.9,5,.83-1.27,1.46,0h.2c-.12.17-.23.35-.34.52s-.36.5-.45.62l-.2,0-.47.07h0a1.24,1.24,0,0,0-.84.36l-.19-.36Z"/>
            </g>
            <g>
              <path class="cls-2" d="M45.68,35.07l1.14-1.75h.28l1.07,0a4.07,4.07,0,0,0,1.16-.18,1.55,1.55,0,0,0,.78-.67,2.65,2.65,0,0,0,.22-.4,1.9,1.9,0,0,0,.11-.39l.9-3.65c.42-1.82.85-3.64,1.27-5.45q-4.86,4.56-9.72,9.05c-.21.2-.4.39-.56.57a5.13,5.13,0,0,0-.35.44c-.25.39-.22.53-.22.53s.17.19,1.11.19h1.19l-1.14,1.75c-2.67,0-5.33,0-8-.11l1.14-1.72h.42a3.22,3.22,0,0,0,1.36-.38,9.24,9.24,0,0,0,1.92-1.39c6.45-5.82,12.89-11.81,19.34-17.83l3.28-.07q-2,9.25-3.89,18.49c-.16.78-.05,1-.05,1s.23.14.6.13l.88,0L58.78,34.9C54.41,35,50.05,35.06,45.68,35.07Z"/>
              <path class="cls-3" d="M59.28,14.14l2.49-.05Q59.88,23,58,32a1.94,1.94,0,0,0,0,1.33,1.14,1.14,0,0,0,1,.32c-.16.25-.33.5-.49.76-4,.07-8,.14-11.93.15l.48-.74c.41,0,.78,0,1.09,0a4.5,4.5,0,0,0,1.32-.21,2.12,2.12,0,0,0,1.05-.89c.1-.16.18-.32.26-.48a2.38,2.38,0,0,0,.15-.5c.18-.76.37-1.52.56-2.29h0c.11-.45.21-.89.32-1.34s.17-.7.25-1.05h0c.46-2,.93-4,1.39-5.94L47.11,27h0l-.15.14-1.05,1-.36.34,0,0-3,2.75c-.23.22-.43.42-.6.61a4.63,4.63,0,0,0-.39.5c-.34.52-.4.89-.2,1.13s.69.35,1.47.35h.31l-.48.75q-3.42,0-6.84-.09l.48-.74h.17a3.59,3.59,0,0,0,1.57-.44,9.24,9.24,0,0,0,2-1.46c6.4-5.78,12.8-11.73,19.2-17.7m-.35-1-.31.28c-6.39,6-12.79,11.92-19.19,17.68a8.42,8.42,0,0,1-1.8,1.31,2.74,2.74,0,0,1-1.15.33H35.8l-.32.48-.48.73-1,1.49,1.76,0q3.42.08,6.84.09h.57l.32-.49.48-.74,1-1.52H42.9l-.46,0c.07-.09.15-.2.26-.32s.32-.35.53-.55c1-.9,2-1.82,3-2.73l.38-.36,1-1,.15-.14,4-3.73c-.22.95-.44,1.9-.67,2.86l-.24,1.05-.33,1.32c-.18.77-.37,1.53-.56,2.29a1.88,1.88,0,0,1-.1.35,2.29,2.29,0,0,1-.16.31,1,1,0,0,1-.52.45,3.37,3.37,0,0,1-1,.15c-.3,0-.64,0-1,0h-.57l-.32.49-.48.74-1,1.52h1.76q6,0,11.94-.16H59l.31-.5c.17-.25.33-.5.49-.75l1-1.54-1.77,0h-.15a2.77,2.77,0,0,1,.07-.51q1.88-9,3.77-17.91L63,13.06l-1.17,0-2.49.05Z"/>
            </g>
            <path class="cls-4" d="M81,2A39.3,39.3,0,0,1,95,4.58C81.63,6.78,71.29,17.74,64.73,27.1,61,32.46,56.49,38.52,50.34,42.71A33.41,33.41,0,0,1,36,48.48a28.19,28.19,0,0,0,5.84-12l0-.09v-.09c.07-.57.22-1.25.37-1.9.07-.32.14-.64.2-.94A39.4,39.4,0,0,1,81,2m0-2A41.41,41.41,0,0,0,40.46,33.09c-.19.95-.46,2-.59,3a26.05,26.05,0,0,1-6.19,12,27.45,27.45,0,0,1-2.88,2.74h.63A35,35,0,0,0,51.5,44.35c6.16-4.19,10.63-10,14.87-16.1C74.15,17.15,85.71,6.19,99.9,6.19c.83,0,1.66,0,2.51.11l.66,0c-.61-.38-1.21-.72-1.83-1.07a40.83,40.83,0,0,0-9.72-3.92A41.47,41.47,0,0,0,81,0Z"/>
            <g>
              <path class="cls-2" d="M51.65,45.62a.83.83,0,0,1-.76-.53l-2.46-5.18Q47.22,41.8,46,43.69l-.24.4h0a3.42,3.42,0,0,0,.6.1h.28l.15.25a.68.68,0,0,1-.11.69,1.24,1.24,0,0,1-.33.41l-.14.1h-.17l-1,0c-.52,0-.91,0-1.19,0l-1,0-1.31.07-.15-.2a.69.69,0,0,1,.08-.79.81.81,0,0,1,.61-.46h.37c.14,0,.31-.06.55-.12a1.78,1.78,0,0,0,.51-.21,2.55,2.55,0,0,0,.58-.72l3-4.65a2.38,2.38,0,0,0,.14-.23,4.5,4.5,0,0,0-.63,0h-.28L46.22,38a.69.69,0,0,1,.07-.68,1,1,0,0,1,.44-.46l.13-.06,1.15.05,1.16,0,.68,0,.95-.08.49,0,0,.49a3,3,0,0,0,.3,1c.21.5.5,1.11.87,1.85L53,41.08l1.62-2.53a2.4,2.4,0,0,0,.2-.33h-.06a1.48,1.48,0,0,0-.47-.08H54l-.16-.26a.7.7,0,0,1,.09-.67,1.06,1.06,0,0,1,.38-.44l.14-.09h.16c1,0,1.65.06,2.09.06l1.13-.07,1.35-.1.1.48a1,1,0,0,1-.16.52.94.94,0,0,1-.64.48h-.24a2.8,2.8,0,0,0-1.17.34,2,2,0,0,0-.6.7l-2.92,4.54c-.18.28-.52.84-1,1.65l-.08.14-.15.08a1.37,1.37,0,0,1-.45.1Z"/>
              <path class="cls-3" d="M46.94,37.26l1,.05c.5,0,.9,0,1.19,0l.7,0c.28,0,.61,0,1-.08a3.48,3.48,0,0,0,.34,1.16c.21.51.5,1.13.87,1.88s.66,1.36.85,1.83a2.48,2.48,0,0,0,.35-.49L55,38.8c.29-.45.4-.74.34-.85s-.2-.16-.47-.23a2.52,2.52,0,0,0-.6-.1s0-.06,0-.19a.54.54,0,0,1,.19-.25c1,0,1.68.07,2.12.06l1.15-.07h0l1-.07a.35.35,0,0,1-.08.22c-.09.15-.17.22-.22.23h-.24a3.22,3.22,0,0,0-1.39.41,2.7,2.7,0,0,0-.79.88l-2.93,4.54c-.18.29-.52.84-1,1.67a.81.81,0,0,1-.25,0h-.19q-.21,0-.33-.27c-1-2-1.89-4-2.84-6l-2.94,4.55a2.31,2.31,0,0,0-.42.84c0,.13.18.23.49.31a3.82,3.82,0,0,0,.72.11s0,.07-.07.2a.73.73,0,0,1-.19.25c-.1,0-.41,0-.94,0s-.94,0-1.22,0l-1.06,0h-.06l-.4,0-.59,0s0-.1.09-.22.16-.22.19-.22h.39a4,4,0,0,0,.64-.14,2.46,2.46,0,0,0,.67-.28,3.23,3.23,0,0,0,.72-.87l3-4.66q.39-.62.3-.84c0-.06-.18-.1-.49-.14a5.35,5.35,0,0,0-.69,0s0-.07,0-.2a.61.61,0,0,1,.21-.25m-.16-1-.25.12a1.54,1.54,0,0,0-.67.69,1.13,1.13,0,0,0-.08,1.17l.27.48h.37L43.7,42.89a2.24,2.24,0,0,1-.43.55,1.1,1.1,0,0,1-.35.15,4.64,4.64,0,0,1-.46.1h-.29a1.42,1.42,0,0,0-1.09.71A1.13,1.13,0,0,0,41,45.78l.3.39.5,0,.61,0,.4,0h0c.47,0,.8,0,1.06,0s.66,0,1.16,0,.9,0,1,0h.34l.28-.21a1.78,1.78,0,0,0,.47-.56,1.18,1.18,0,0,0,.12-1.2L47,43.69h-.43l1.79-2.75c.69,1.46,1.39,2.92,2.08,4.39a1.29,1.29,0,0,0,1.18.79h.26a1.63,1.63,0,0,0,.65-.16l.29-.14.17-.28c.47-.81.8-1.36,1-1.64l2.93-4.54a2.1,2.1,0,0,1,.41-.52,2.3,2.3,0,0,1,.94-.27h.18a1.46,1.46,0,0,0,1.12-.74,1.4,1.4,0,0,0,.24-.82c0-.32,0-.64,0-1l-1,.07h-.16l-.79.06q-.72.06-1.11.06c-.29,0-.89,0-2-.06h-.32l-.29.17a1.8,1.8,0,0,0-.57.65,1.15,1.15,0,0,0-.09,1.15l.25.48H54c-.3.48-.61,1-.92,1.44l-.14-.29c-.35-.7-.64-1.32-.86-1.83a2.63,2.63,0,0,1-.26-.83c0-.32,0-.65,0-1l-1,.1-.95.08-.65,0-1.13,0-.87,0h-.41Z"/>
            </g>
            <g>
              <path class="cls-2" d="M57.58,34.93l1.13-1.76.44,0a5,5,0,0,0,2.29-.68,6.54,6.54,0,0,0,1.92-2.08l8.4-13.07c.83-1.29.75-1.71.72-1.78s-.45-.36-1.35-.38l-.84,0,1.12-1.74c4.66-.07,9.33-.12,14-.09l-1.14,1.75H84a5.33,5.33,0,0,0-2.47.63,6.54,6.54,0,0,0-1.9,2q-4.2,6.48-8.39,13c-.83,1.29-.75,1.7-.73,1.77s.45.36,1.36.39l.83,0-1.11,1.73C66.91,34.73,62.25,34.84,57.58,34.93Z"/>
              <path class="cls-3" d="M71.66,13.89c4.28-.07,8.56-.11,12.83-.09-.16.25-.33.5-.49.76h-.12a5.5,5.5,0,0,0-2.6.71,6.88,6.88,0,0,0-2.08,2.21l-8.39,13q-1,1.57-.78,2.22t1.77.69l-.48.75-12.83.26.48-.76h.18a5.43,5.43,0,0,0,2.53-.76,7.15,7.15,0,0,0,2.1-2.26l8.39-13.06c.68-1,.94-1.79.78-2.23s-.74-.66-1.77-.69l.48-.75m-.51-1-.32.49-.48.75-.95,1.48,1.69,0a2.47,2.47,0,0,1,.9.13,5,5,0,0,1-.65,1.28Q67.14,23.59,63,30.13A6.12,6.12,0,0,1,61.2,32a4.55,4.55,0,0,1-2.05.6H59l-.55,0c-.1.16-.2.32-.31.48l-.48.75-1,1.54,1.76,0c4.28-.08,8.56-.18,12.83-.25h.57l.32-.5.48-.75c.32-.48.63-1,.94-1.45l-1.66-.05a3.12,3.12,0,0,1-.92-.14A5.08,5.08,0,0,1,71.64,31q4.2-6.52,8.4-13a5.88,5.88,0,0,1,1.72-1.87,4.52,4.52,0,0,1,2.12-.55H84l.54,0,.3-.46.49-.76,1-1.51H84.55c-4.28,0-8.55,0-12.83.09Z"/>
            </g>
            <g>
              <path class="cls-5" d="M87.23,34.52c-.7,0-1.42,0-2.16,0-4.3,0-8.6,0-12.9.08l1.22-1.88.48,0A5.29,5.29,0,0,0,76.35,32a8.22,8.22,0,0,0,2.23-2.45q4.88-7.53,9.76-15c.94-1.44.94-2,.89-2.14s-.6-.47-1.44-.52l-.84,0L88.15,10c4.45.07,8.91.22,13.37.51s7.29,1.73,8.41,4.1.42,5.37-2.08,9a23.5,23.5,0,0,1-5.52,5.61,30.64,30.64,0,0,1-7.52,4,21,21,0,0,1-4.41,1C89.4,34.38,88.33,34.47,87.23,34.52Z"/>
              <path class="cls-3" d="M88.4,10.54c4.37.07,8.73.23,13.09.51s7,1.6,8,3.8.36,5-2,8.48A23.36,23.36,0,0,1,102,28.84a30.38,30.38,0,0,1-7.38,3.89,20.77,20.77,0,0,1-4.3,1c-1,.14-2,.23-3.12.28-.69,0-1.4,0-2.13,0-4,0-8,0-12,.06l.57-.87h.22a5.75,5.75,0,0,0,2.73-.85A8.63,8.63,0,0,0,79,29.79q4.88-7.54,9.76-15c.79-1.19,1.11-2,1-2.56s-.77-.8-1.88-.86c.19-.28.37-.57.56-.86m-.51-1-.32.49c-.19.28-.37.57-.56.86-.32.47-.63.95-.94,1.43l1.67.09a2.39,2.39,0,0,1,1,.21,4.57,4.57,0,0,1-.83,1.69q-4.87,7.43-9.76,15a7.58,7.58,0,0,1-2.07,2.28,4.65,4.65,0,0,1-2.22.68h-.2l-.55,0-.3.48-.57.87-1,1.54,1.77,0q6-.09,12-.07c.75,0,1.48,0,2.19,0,1.12-.05,2.2-.14,3.23-.28A22.4,22.4,0,0,0,95,33.67a31.16,31.16,0,0,0,7.65-4,24.33,24.33,0,0,0,5.64-5.73q3.92-5.62,2.11-9.46c-1.2-2.56-4.17-4.11-8.83-4.41-4.36-.28-8.73-.44-13.09-.51Z"/>
            </g>
            <g>
              <path class="cls-2" d="M22.44,34.34l1.21-1.77h.46a7.87,7.87,0,0,0,1.69-.11,1,1,0,0,0,.6-.36,1,1,0,0,0,.14-.31,3.81,3.81,0,0,0,.08-.67c.11-2.35.21-4.7.32-7l-1,.63c-1.16,1.71-2.32,3.42-3.48,5.11-1,1.42-1,2-1,2.15s.64.45,1,.5l.8.11-1.15,1.73c-4.81-.38-9.63-.92-14.45-1.68L8.82,31,9.3,31a4.53,4.53,0,0,0,2.48-.38A6.64,6.64,0,0,0,14,28.48q4.89-6.91,9.76-14.08c.95-1.39.95-1.93.9-2.1s-.6-.5-1.44-.59l-.84-.1,1.19-1.74c4.84.34,9.68.52,14.52.6l-1.22,1.85h-.27a4.27,4.27,0,0,0-2.29.65,8.52,8.52,0,0,0-2.13,2.37Q30.45,18,28.7,20.57,33.86,17.33,39,13.91a10.62,10.62,0,0,0,1.15-.83,2.92,2.92,0,0,0,.53-.54,3.82,3.82,0,0,0-1.32-.17H38.5l1.23-1.87c3.09,0,6.17,0,9.26,0l-1.22,1.9H47.2l-.34,0a6.17,6.17,0,0,0-1.9.41,13.06,13.06,0,0,0-2.61,1.42c-2.14,1.43-4.29,2.85-6.43,4.25q-.21,6.42-.41,12.85a2.82,2.82,0,0,0,.25,1.35.8.8,0,0,0,.62.44l.73.13L36,35C31.46,34.88,27,34.68,22.44,34.34Z"/>
              <path class="cls-3" d="M23.84,10.39c4.45.31,8.9.48,13.35.56l-.57.87h-.08a4.66,4.66,0,0,0-2.49.74,8.81,8.81,0,0,0-2.27,2.51q-2.4,3.6-4.8,7.15c4.1-2.54,8.21-5.19,12.31-7.9a12.9,12.9,0,0,0,1.19-.87,3.28,3.28,0,0,0,.67-.71.39.39,0,0,0-.16-.64,3.94,3.94,0,0,0-1.58-.24L40,11q4.05,0,8.1,0l-.57.89h-.65a7.12,7.12,0,0,0-2,.45,13.14,13.14,0,0,0-2.72,1.48c-2.22,1.48-4.44,3-6.67,4.39L35,31.34A3.44,3.44,0,0,0,35.32,33a1.26,1.26,0,0,0,1,.67l-.56.85c-4.13-.09-8.25-.27-12.37-.57l.56-.82h.2A7.5,7.5,0,0,0,25.92,33a1.42,1.42,0,0,0,.89-.55,1.33,1.33,0,0,0,.21-.47,3.6,3.6,0,0,0,.1-.77c.12-2.67.24-5.33.37-8l-1.93,1.18L22,29.53A4.5,4.5,0,0,0,20.93,32c.06.51.53.83,1.42,1l-.55.83q-6.63-.52-13.28-1.52l.56-.78.22,0A4.94,4.94,0,0,0,12,31.08a7,7,0,0,0,2.4-2.29q4.88-6.93,9.76-14.11c.79-1.15,1.11-2,1-2.51s-.77-.83-1.87-1l.56-.82m-.51-1L23,9.81c-.19.28-.38.55-.56.83-.32.45-.63.91-.95,1.37l1.68.2a2.21,2.21,0,0,1,1,.26,4.22,4.22,0,0,1-.82,1.64q-4.89,7.16-9.76,14.07a6.14,6.14,0,0,1-2.07,2,4.12,4.12,0,0,1-2.23.34l-.19,0-.55-.07-.31.42-.56.78L6.7,33l1.76.28c4.36.67,8.71,1.16,13.07,1.51h0l.49,0,.3,0,1,.07c4.12.3,8.25.48,12.37.58h.57l.32-.48.56-.86c.28-.42.56-.84.83-1.26l-1.45-.26a.34.34,0,0,1-.29-.19A2.43,2.43,0,0,1,36,31.3q.2-6.27.4-12.54,3.11-2,6.21-4.11a13,13,0,0,1,2.49-1.36,5.79,5.79,0,0,1,1.75-.38H48l.32-.49.57-.89,1-1.53-1.76,0q-4.05,0-8.1,0h-.57c-.1.17-.21.33-.32.49l-.57.87-1,1.51,1.76,0h.29c-.24.19-.53.39-.87.61q-4.17,2.76-8.34,5.4c.73-1.08,1.45-2.18,2.18-3.27a7.87,7.87,0,0,1,2-2.22,3.62,3.62,0,0,1,1.95-.57h.54l.37-.47.57-.87L39,10l-1.76,0q-6.68-.12-13.35-.56l-.57,0Zm2.94,15.73L26.4,25q-.15,3.06-.28,6.11a3.78,3.78,0,0,1-.06.55.54.54,0,0,1-.08.17.55.55,0,0,1-.3.15,7,7,0,0,1-1.57.1h-.19l-.54,0,0,0L22.47,32a2.58,2.58,0,0,1-.54-.13,5.59,5.59,0,0,1,.92-1.73c1.14-1.67,2.28-3.34,3.42-5Z"/>
            </g>
            <g>
              <path class="cls-5" d="M99.5,35a.49.49,0,0,1-.38-.78l.48-.71a.5.5,0,0,1,.41-.23h.18a4.74,4.74,0,0,0,2.29-.49,5.77,5.77,0,0,0,1.92-1.91q4.2-6.12,8.4-12.07c.83-1.18.75-1.6.72-1.68s-.45-.43-1.35-.57a.51.51,0,0,1-.4-.31.48.48,0,0,1,0-.49l.48-.69a.46.46,0,0,1,.41-.19c0-.15,12.86,1.91,12.86,2.07a.61.61,0,0,1,.42.35.47.47,0,0,1,0,.49l-.49.66a.46.46,0,0,1-.42.16h0a4.66,4.66,0,0,0-2.47.16,5,5,0,0,0-1.9,1.7q-4.2,5.73-8.39,11.7c-.84,1.18-.76,1.6-.73,1.67s.45.42,1.36.57a.56.56,0,0,1,.4.32.5.5,0,0,1,0,.49l-.48.68a.49.49,0,0,1-.42.2C112.35,36,99.5,34.87,99.5,35Z"/>
              <path class="cls-3" d="M112.7,15.37c4.28.52,8.56,1.2,12.83,2.07l-.49.66-.12,0a4.89,4.89,0,0,0-2.6.21,5.34,5.34,0,0,0-2.08,1.84l-.41.57q-4,5.48-8,11.15c-.68,1-.94,1.67-.78,2.12s.74.75,1.77.93l-.48.68c-4.28-.51-8.55-.86-12.83-1.1.16-.24.32-.48.49-.71h.17a5.27,5.27,0,0,0,2.54-.55,6.23,6.23,0,0,0,2.09-2.06l3.66-5.3q2.37-3.41,4.73-6.75c.68-1,.94-1.66.79-2.12s-.75-.77-1.78-.93l.48-.69m0-1a.93.93,0,0,0-.83.39l-.48.69a1,1,0,0,0-.08,1,1.09,1.09,0,0,0,.82.62,2.81,2.81,0,0,1,.9.25,3.86,3.86,0,0,1-.65,1.19c-1.58,2.24-3.15,4.5-4.73,6.78q-1.83,2.64-3.66,5.32a5.35,5.35,0,0,1-1.75,1.75,4.22,4.22,0,0,1-2,.43H100a1,1,0,0,0-.84.45l-.48.71a1,1,0,0,0-.07,1,1,1,0,0,0,.84.55c4.28.24,8.56.59,12.83,1.1h.06a1,1,0,0,0,.83-.39c.16-.23.32-.46.49-.68a1,1,0,0,0,.07-1,1.09,1.09,0,0,0-.8-.63,2.8,2.8,0,0,1-.92-.27,4.65,4.65,0,0,1,.65-1.18q4-5.64,8-11.1l.42-.57a4.48,4.48,0,0,1,1.72-1.56,4.16,4.16,0,0,1,2.12-.15l.11,0h0a.85.85,0,0,0,.83-.32l.5-.65a1,1,0,0,0,.06-1,1.2,1.2,0,0,0-.84-.68c-4.28-.88-8.55-1.56-12.83-2.08Z"/>
            </g>
            <path class="cls-3" d="M98.13,26.56c-6.61,4.78-16,5.88-16,5.89A21.78,21.78,0,0,1,90,20.12c6.6-5.08,16-5.48,16-5.44A20.59,20.59,0,0,1,98.13,26.56Z"/>
            <path class="cls-5" d="M81,32.52C86.89,28.19,92.75,24,98.6,20,93,24.33,87.41,28.89,81.82,33.56l-.79-1Z"/>
          </g>
          <g>
            <g>
              <path class="cls-2" d="M60.28,45.51l-.49,0a3.73,3.73,0,0,1-3.37-1.31c-.65-.95-.56-2.09.28-3.39a9.34,9.34,0,0,1,3.61-3.1,10.88,10.88,0,0,1,4.24-1.3l.5,0a3.74,3.74,0,0,1,3.38,1.32c.45.65.77,1.76-.28,3.39a9.27,9.27,0,0,1-3.62,3.09A10.93,10.93,0,0,1,60.28,45.51Zm3.87-7.41a3.53,3.53,0,0,0-1.34.42,5.65,5.65,0,0,0-1.39,1A8.8,8.8,0,0,0,60.28,41a5.52,5.52,0,0,0-.57,1.1,3.57,3.57,0,0,0-.23,1,.57.57,0,0,0,.18.51,1.3,1.3,0,0,0,.88.21h.16a3.74,3.74,0,0,0,2-.83A8.34,8.34,0,0,0,64.6,40.9a8.84,8.84,0,0,0,.62-1.16,3.78,3.78,0,0,0,.24-1,.47.47,0,0,0-.18-.46,1.44,1.44,0,0,0-1-.2Z"/>
              <path class="cls-3" d="M64.56,36.94l.47,0A3.31,3.31,0,0,1,68,38a2.44,2.44,0,0,1-.28,2.84,8.63,8.63,0,0,1-3.4,2.9,10.42,10.42,0,0,1-4,1.24l-.46,0a3.29,3.29,0,0,1-3-1.11c-.54-.77-.44-1.72.27-2.83a8.73,8.73,0,0,1,3.41-2.9,10.35,10.35,0,0,1,4-1.25M60.7,44.35A4.22,4.22,0,0,0,63,43.41,8.74,8.74,0,0,0,65,41.15a8.59,8.59,0,0,0,.67-1.25A3.8,3.8,0,0,0,66,38.76a1,1,0,0,0-.35-.87,2,2,0,0,0-1.26-.3h-.2a3.69,3.69,0,0,0-1.55.49,5.88,5.88,0,0,0-1.53,1.14,10.41,10.41,0,0,0-1.21,1.54,6.87,6.87,0,0,0-.62,1.2A3.87,3.87,0,0,0,59,43.13a1,1,0,0,0,.34.9,1.68,1.68,0,0,0,1.19.33h.19m3.86-8.41h0a11.51,11.51,0,0,0-4.45,1.36,9.92,9.92,0,0,0-3.83,3.29c-1.19,1.86-.81,3.17-.28,3.94.71,1,2,1.54,3.76,1.51a4.53,4.53,0,0,0,.52,0,11.51,11.51,0,0,0,4.45-1.36,9.85,9.85,0,0,0,3.84-3.28c1.2-1.87.81-3.18.28-3.95a4.16,4.16,0,0,0-3.77-1.51,4.53,4.53,0,0,0-.52,0Zm-3.86,7.4h-.13c-.43,0-.55-.09-.55-.09s-.05,0,0-.13a2.81,2.81,0,0,1,.2-.86,5.26,5.26,0,0,1,.51-1,9.42,9.42,0,0,1,1.07-1.37A5.45,5.45,0,0,1,63,39a2.68,2.68,0,0,1,1.13-.35h.14c.51,0,.65.09.65.1a2.26,2.26,0,0,1-.19.89,7.55,7.55,0,0,1-.57,1.07,7.71,7.71,0,0,1-1.8,2,3.1,3.1,0,0,1-1.68.71Z"/>
            </g>
            <g>
              <path class="cls-2" d="M74.17,45.17l-2.93,0-2.69,0-2.7.13-.15-.21a.64.64,0,0,1,.07-.76c.11-.16.3-.47.64-.49h0A4.32,4.32,0,0,0,67,43.8a2.23,2.23,0,0,0,.38-.1c0-.05.24-.3.63-.9L71,38.22c.1-.16.18-.28.23-.38l-.24,0h-.29l-.15-.26a.73.73,0,0,1,.12-.7,1.05,1.05,0,0,1,.42-.44l.11-.06,2.46,0,2.33-.1.6,0-.12.59a1.1,1.1,0,0,1-.16.41.85.85,0,0,1-.63.47h0c-.14,0-.32.05-.58.1a2.62,2.62,0,0,0-.41.11,8.82,8.82,0,0,0-.57.8l-2.92,4.53-.17.27h.79l.36,0a5.91,5.91,0,0,0,1.54-.3,4.68,4.68,0,0,0,.8-.37,5.14,5.14,0,0,0,.89-.61.87.87,0,0,1,.54-.2c.48,0,.75,0,.91.25l.27.36-.36.32c-1.53,1.35-2,1.84-2.16,2l-.16.2Z"/>
              <path class="cls-3" d="M71.25,36.86l2.35,0,2.35-.1a.48.48,0,0,1-.09.21c-.09.15-.16.23-.21.23h0a5.15,5.15,0,0,0-.62.11,1.45,1.45,0,0,0-.59.19,5.46,5.46,0,0,0-.74,1L70.75,43a2.55,2.55,0,0,0-.43.86c0,.12.31.18,1,.17h.82a6.88,6.88,0,0,0,1.66-.33,4.7,4.7,0,0,0,.9-.41,5.48,5.48,0,0,0,1-.68.45.45,0,0,1,.23-.07h0c.27,0,.42,0,.45.07a28.57,28.57,0,0,0-2.21,2.06l-2.93,0-2.69,0-2.46.12s0-.09.07-.2.17-.24.22-.24h.08l.59-.1a1.61,1.61,0,0,0,.58-.18,6.71,6.71,0,0,0,.78-1.06l2.94-4.58a2.47,2.47,0,0,0,.45-.89c0-.06-.13-.13-.34-.19a1.89,1.89,0,0,0-.5-.09s0-.07.07-.2.15-.23.19-.24m-.16-1-.23.11a1.59,1.59,0,0,0-.63.63,1.15,1.15,0,0,0-.15,1.21l.26.51-2.73,4.24c-.24.38-.4.6-.5.73l-.15,0-.47.07h-.08a1.41,1.41,0,0,0-1,.74,1.11,1.11,0,0,0-.07,1.32l.28.41.52,0,2.46-.12,2.65,0,2.94,0h.48l.33-.39a28.27,28.27,0,0,1,2.1-1.94l.72-.64L77.23,42A1.39,1.39,0,0,0,76,41.53h-.11a1.41,1.41,0,0,0-.87.35,5.5,5.5,0,0,1-1.48.86,6.46,6.46,0,0,1-1.42.27l-.25,0q1.31-2,2.6-4a7.55,7.55,0,0,1,.45-.63l.19,0a3,3,0,0,1,.48-.08h0a1.45,1.45,0,0,0,1.08-.74,1.71,1.71,0,0,0,.24-.59c.07-.39.15-.79.22-1.18L76,35.78c-1.33.07-2.11.1-2.32.1l-2.31,0Z"/>
            </g>
            <g>
              <path class="cls-2" d="M81.64,45.19l-.5,0a3.81,3.81,0,0,1-3.37-1.36c-.45-.65-.76-1.77.28-3.39a9.1,9.1,0,0,1,3.62-3,10.65,10.65,0,0,1,4.25-1.2h.49a3.84,3.84,0,0,1,3.37,1.43c.45.67.77,1.8-.27,3.39a8.86,8.86,0,0,1-3.63,3A10.94,10.94,0,0,1,81.64,45.19Zm3.87-7.31a3.32,3.32,0,0,0-1.35.38,5.45,5.45,0,0,0-1.39,1,9.06,9.06,0,0,0-1.14,1.43,6,6,0,0,0-.57,1.09,3.51,3.51,0,0,0-.23,1,.56.56,0,0,0,.19.52,1.31,1.31,0,0,0,.87.23h.17a3.61,3.61,0,0,0,2-.78A8.07,8.07,0,0,0,86,40.69a6.89,6.89,0,0,0,.62-1.15,3,3,0,0,0,.24-1,.48.48,0,0,0-.18-.47,1.56,1.56,0,0,0-1-.23Z"/>
              <path class="cls-3" d="M85.92,36.72h.46a3.41,3.41,0,0,1,3,1.22,2.41,2.41,0,0,1-.27,2.83,8.4,8.4,0,0,1-3.41,2.79,10.7,10.7,0,0,1-4,1.14h-.47a3.36,3.36,0,0,1-3-1.15,2.43,2.43,0,0,1,.28-2.83,8.53,8.53,0,0,1,3.4-2.85,10,10,0,0,1,4-1.15M82.06,44a4.19,4.19,0,0,0,2.25-.88A8.66,8.66,0,0,0,86.37,41,7.48,7.48,0,0,0,87,39.72a3.81,3.81,0,0,0,.28-1.13,1,1,0,0,0-.35-.88,2,2,0,0,0-1.26-.34h-.19a4,4,0,0,0-1.56.44,6.16,6.16,0,0,0-1.53,1.12,10.26,10.26,0,0,0-1.21,1.51,6.72,6.72,0,0,0-.61,1.19,4.24,4.24,0,0,0-.27,1.15,1.06,1.06,0,0,0,.34.91,1.69,1.69,0,0,0,1.19.35h.2m3.86-8.31h0A11,11,0,0,0,81.46,37a9.61,9.61,0,0,0-3.82,3.23c-1.2,1.86-.82,3.17-.29,3.94a4.25,4.25,0,0,0,3.76,1.56l.53,0a11.47,11.47,0,0,0,4.45-1.25,9.36,9.36,0,0,0,3.83-3.15c1.2-1.82.82-3.14.28-3.94a4.29,4.29,0,0,0-3.76-1.64ZM82.06,43h-.14a.89.89,0,0,1-.55-.1s-.05,0,0-.13a3.22,3.22,0,0,1,.2-.86A6.14,6.14,0,0,1,82,41a8.11,8.11,0,0,1,1.08-1.34,4.82,4.82,0,0,1,1.25-.92,2.81,2.81,0,0,1,1.14-.32h.13a1.29,1.29,0,0,1,.66.12,2.46,2.46,0,0,1-.2.89,7.28,7.28,0,0,1-.56,1,7.68,7.68,0,0,1-1.8,1.92,3.1,3.1,0,0,1-1.68.68Z"/>
            </g>
            <g>
              <path class="cls-2" d="M93.58,45.34h-1a3.84,3.84,0,0,1-3.35-1.45,2.8,2.8,0,0,1,.26-3.3,8.85,8.85,0,0,1,3.66-3,10.48,10.48,0,0,1,4.35-1.08H98a18.22,18.22,0,0,1,3.65.56.59.59,0,0,1,.34.28c.12.25.06.46-.36,1.31-.3.6-.49,1-.56,1.06a.83.83,0,0,1-.7.3,1.79,1.79,0,0,1-.8-.15.5.5,0,0,1-.24-.57.62.62,0,0,0,0-.27,1,1,0,0,0-.14-.36.85.85,0,0,0-.44-.29,3.65,3.65,0,0,0-1.18-.22h-.28c-1.68,0-3.09.91-4.29,2.72a4.59,4.59,0,0,0-.68,1.46,1,1,0,0,0,.19.91,1.85,1.85,0,0,0,1.31.43h.26a2.29,2.29,0,0,0,.72-.12.31.31,0,0,0,.17-.14l.48-.73a5.38,5.38,0,0,0,.33-.53l-.29,0a.55.55,0,0,1-.44-.27.68.68,0,0,1,.09-.68,1,1,0,0,1,.46-.44.58.58,0,0,1,.18,0l1.68.13.77.05,2.26.06a.5.5,0,0,1,.48.58,1.07,1.07,0,0,1-.18.43.79.79,0,0,1-.62.42h0a3.54,3.54,0,0,0-.85.11h0a2.59,2.59,0,0,0-.57.68l-.45.66-.09.15a.7.7,0,0,1-.09.28,1.37,1.37,0,0,1-.87.52c-.52.13-.91.23-1.19.28s-.74.12-1.41.19Q94.15,45.33,93.58,45.34Z"/>
              <path class="cls-3" d="M97.5,37H98a17.24,17.24,0,0,1,3.56.55s-.07.3-.35.87-.46.91-.53,1-.13.07-.28.07h-.08a1.09,1.09,0,0,1-.47-.09,1.18,1.18,0,0,0,0-.46,1.57,1.57,0,0,0-.2-.54,1.26,1.26,0,0,0-.69-.52,4.32,4.32,0,0,0-1.34-.25h-.31q-2.76,0-4.71,3a5.26,5.26,0,0,0-.75,1.62,1.49,1.49,0,0,0,.28,1.33,2.18,2.18,0,0,0,1.68.61h.29a2.8,2.8,0,0,0,.89-.15.8.8,0,0,0,.41-.34l.49-.72,0-.08a4,4,0,0,0,.48-.89c0-.22-.25-.34-.88-.36,0,0,0-.07,0-.19a.65.65,0,0,1,.21-.24l.77.06.87.07.78.05,2.28.06a.79.79,0,0,1-.11.23c-.09.13-.15.2-.2.2h-.11a5.28,5.28,0,0,0-.89.13c-.21,0-.5.35-.87.89l-.44.66a1.12,1.12,0,0,0-.16.31.68.68,0,0,1,0,.13.89.89,0,0,1-.56.31c-.5.13-.89.22-1.16.27s-.72.11-1.35.18q-.51,0-1,.06h-1a3.4,3.4,0,0,1-3-1.24,2.34,2.34,0,0,1,.25-2.74,8.29,8.29,0,0,1,3.46-2.79,9.78,9.78,0,0,1,4.14-1m0-1h0a11,11,0,0,0-4.56,1.13,9.37,9.37,0,0,0-3.87,3.16,3.27,3.27,0,0,0-.26,3.85c.69,1.06,2,1.61,3.74,1.67h1c.39,0,.76,0,1.12-.07a11.5,11.5,0,0,0,1.47-.19c.28,0,.68-.15,1.21-.28a1.84,1.84,0,0,0,1.15-.72,1.08,1.08,0,0,0,.17-.4l0,0,.45-.66a3.48,3.48,0,0,1,.38-.5,2.62,2.62,0,0,1,.54-.07h.11a1.27,1.27,0,0,0,1-.64,1.56,1.56,0,0,0,.25-.62,1,1,0,0,0-.21-.81,1,1,0,0,0-.5-.33,1.14,1.14,0,0,0,.7-.45,11.56,11.56,0,0,0,.61-1.15c.38-.77.61-1.23.36-1.75a1,1,0,0,0-.72-.55A17.86,17.86,0,0,0,98.05,36Zm-3.38,7.18h-.23c-.57,0-.86-.14-1-.25a.48.48,0,0,1-.09-.48,4.07,4.07,0,0,1,.6-1.29c1.11-1.67,2.38-2.49,3.88-2.5h.25a3.54,3.54,0,0,1,1,.18,1,1,0,0,1,.23.12l0,.14a.23.23,0,0,1,0,.07,1,1,0,0,0,.49,1.14,1.09,1.09,0,0,0,.27.11l-1.33,0-.75-.05-.86-.07-.78-.06h-.09a1,1,0,0,0-.37.08,1.5,1.5,0,0,0-.69.64,1.14,1.14,0,0,0-.11,1.18,1,1,0,0,0,.37.39l-.41.62a2.75,2.75,0,0,1-.49.06Z"/>
            </g>
            <g>
              <path class="cls-2" d="M105.52,45.93c-.56-.08-1-.12-1.25-.15L103,45.73l-1.12,0a.51.51,0,0,1-.44-.26.65.65,0,0,1,.08-.71c.14-.2.32-.46.63-.46h0a3.5,3.5,0,0,0,.59-.05,2,2,0,0,0,.41-.08,6.88,6.88,0,0,0,.59-.76L105,41.57c0-.07,0-.23,0-.52s-.11-.88-.18-1.3l-.1-.63a1.41,1.41,0,0,0-.13-.57,1.22,1.22,0,0,0-.5-.13.58.58,0,0,1-.44-.3.67.67,0,0,1,.12-.68,1,1,0,0,1,.44-.4.45.45,0,0,1,.2,0l1.6.19.72.07c.26,0,1,.07,2.39.16a.53.53,0,0,1,.49.48.8.8,0,0,1-.23.57.73.73,0,0,1-.58.36h-.56l.18,1.33,1.5-.87.53-.32a.57.57,0,0,1-.3-.27.65.65,0,0,1,.09-.67.91.91,0,0,1,.44-.4.45.45,0,0,1,.2,0h0c1,.15,1.59.26,1.93.3l1.89.16a.54.54,0,0,1,.38.22.5.5,0,0,1,.11.42,1.14,1.14,0,0,1-.16.38.76.76,0,0,1-.63.38h-.05a3.88,3.88,0,0,0-.6,0,2.34,2.34,0,0,0-.68.18c-.46.22-1.4.7-2.82,1.48-1.78,1-2.09,1.21-2.14,1.25l-1.17,1.71a4.09,4.09,0,0,0-.31.5l.21.06a.57.57,0,0,1,.44.3.67.67,0,0,1-.13.71,1.6,1.6,0,0,1-.26.3.55.55,0,0,1-.33.11Z"/>
              <path class="cls-3" d="M104.33,37.5l.72.09.83.1.75.07c.25,0,1.05.07,2.4.16,0,0,0,.11-.13.23s-.15.18-.18.18h-.13a3.84,3.84,0,0,0-.47,0,.63.63,0,0,0-.44.15.37.37,0,0,0,0,.25c.1.71.2,1.42.29,2.12a.07.07,0,0,0,.06,0l.12,0c.54-.28,1.2-.66,2-1.11a7.27,7.27,0,0,0,1.31-.86c.11-.16-.18-.29-.89-.36,0,0,0-.07.06-.19a.49.49,0,0,1,.21-.22c1,.15,1.61.25,2,.29s.93.09,1.92.18a.88.88,0,0,1-.09.2c-.09.13-.16.19-.21.19h-.11a3.39,3.39,0,0,0-.63,0,2.9,2.9,0,0,0-.82.22c-.47.22-1.42.71-2.85,1.5A18,18,0,0,0,107.71,42l-1.22,1.77a4.19,4.19,0,0,0-.54,1c0,.06.1.13.34.22a2.22,2.22,0,0,0,.5.15s0,.08-.08.22a1.24,1.24,0,0,1-.18.2l-1-.14-1.27-.15c-.3,0-.74,0-1.33-.05l-1.13,0s0-.1.06-.19.18-.24.21-.24h.06a5.1,5.1,0,0,0,.62-.06,1.43,1.43,0,0,0,.6-.15,5.06,5.06,0,0,0,.74-.9l1.31-1.91a2.06,2.06,0,0,0,0-.76c-.06-.46-.12-.9-.18-1.33,0-.21-.07-.42-.11-.63,0-.49-.16-.79-.33-.89a1.43,1.43,0,0,0-.76-.24s0-.07.06-.19a.61.61,0,0,1,.23-.23m0-1a.89.89,0,0,0-.4.07,1.6,1.6,0,0,0-.66.58,1.14,1.14,0,0,0-.15,1.19,1.1,1.1,0,0,0,.87.58h.12a1,1,0,0,1,0,.2l.12.69c.06.41.12.84.17,1.29a2.24,2.24,0,0,1,0,.31L103.3,43.1c-.2.29-.35.48-.46.61l-.19,0a4.36,4.36,0,0,1-.48,0h0a1.29,1.29,0,0,0-1.09.67,1.15,1.15,0,0,0-.1,1.25,1,1,0,0,0,.87.51l1.12,0c.57,0,1,0,1.29.06s.67.06,1.21.14.92.13,1,.13h.07a1,1,0,0,0,.66-.22,1.83,1.83,0,0,0,.34-.38,1.18,1.18,0,0,0,.17-1.23,1.1,1.1,0,0,0-.34-.4l1.11-1.61c.15-.1.62-.39,2-1.15,1.74-.95,2.48-1.32,2.8-1.47a1.88,1.88,0,0,1,.52-.14,2.49,2.49,0,0,1,.46,0h.11a1.17,1.17,0,0,0,1-.57,1.47,1.47,0,0,0,.24-.56,1,1,0,0,0-.21-.84,1.14,1.14,0,0,0-.77-.43l-1.86-.16c-.32,0-1-.14-1.9-.3h-.11a1.14,1.14,0,0,0-.41.07,1.16,1.16,0,0,0-.46.33,1.08,1.08,0,0,0-.87-.58c-1.34-.09-2.13-.13-2.38-.16l-.71-.07-.31,0-.51-.06-.71-.08Zm4.4,2.83h0Z"/>
            </g>
          </g>
        </g>
      </g>
      <g>
        <text class="cls-6" transform="translate(132.65 53.88) scale(1 0.75)">K<tspan class="cls-7" x="14.15" y="0">ai Di R&amp;D </tspan><tspan class="cls-8" x="111.37" y="0">T</tspan><tspan class="cls-7" x="122.74" y="0">e</tspan><tspan class="cls-9" x="133.52" y="0">c</tspan><tspan class="cls-7" x="143.64" y="0">hn</tspan><tspan class="cls-10" x="169.51" y="0">o</tspan><tspan class="cls-7" x="181.04" y="0">lo</tspan><tspan class="cls-11" x="198.92" y="0">g</tspan><tspan class="cls-7" x="210.13" y="0">y C</tspan><tspan class="cls-12" x="239.23" y="0">o</tspan><tspan class="cls-7" x="250.44" y="0">., </tspan><tspan class="cls-13" x="267.47" y="0">L</tspan><tspan class="cls-14" x="279.94" y="0">td</tspan></text>
        <text class="cls-15" transform="translate(132.65 32.91) scale(1 0.9)">愷迪研發科技股份有限公司</text>
      </g>
    </g>
  </g>
</svg>
