<svg xmlns="http://www.w3.org/2000/svg" viewBox="0 0 199.68 128.67">
  <defs>
    <style>
      .cls-1 {
        fill: #529f6f;
      }

      .cls-2 {
        fill: #00487b;
      }

      .cls-3 {
        fill: #fff;
      }

      .cls-4 {
        fill: #b2ce8a;
      }

      .cls-5, .cls-6 {
        fill: #0086a2;
      }

      .cls-6 {
        font-size: 12.09px;
        font-family: GenWanMinTW-M, GenWanMin TW;
        letter-spacing: -0.03em;
      }

      .cls-7 {
        letter-spacing: -0.02em;
      }

      .cls-8 {
        letter-spacing: -0.1em;
      }

      .cls-9 {
        letter-spacing: -0.03em;
      }

      .cls-10 {
        letter-spacing: -0.04em;
      }

      .cls-11 {
        letter-spacing: -0.03em;
      }

      .cls-12 {
        letter-spacing: -0.02em;
      }

      .cls-13 {
        letter-spacing: -0.01em;
      }

      .cls-14 {
        letter-spacing: -0.05em;
      }

      .cls-15 {
        font-size: 16.56px;
        fill: #231815;
        font-family: GenWanMinTW-SB, GenWanMin TW;
        letter-spacing: 0.01em;
      }
    </style>
  </defs>
  <g id="圖層_2" data-name="圖層 2">
    <g id="圖層_1-2" data-name="圖層 1">
      <g>
        <g>
          <text/>          <path class="cls-1" d="M68.42,76.85a53.08,53.08,0,0,1-17.1,1.46,63.79,63.79,0,0,0,96.41-42.37q.18-.94.33-1.89A41,41,0,0,1,158,14.25a42.75,42.75,0,0,1,4.67-4.48C113.53,9,110,65.89,68.42,76.85Z"/>
          <g>
            <g>
              <g>
                <path class="cls-2" d="M12.62,66.08c-.12,0-.63-.13-1.53-.34s-1.48-.34-1.91-.42-1.13-.19-2-.33c-.72-.1-1.43-.21-2.15-.33l-.23-.38a1,1,0,0,1,.1-1.13,1,1,0,0,1,1-.56h0a5.77,5.77,0,0,0,.9,0,2.39,2.39,0,0,0,.63,0,7.8,7.8,0,0,0,.86-1q2.14-2.9,4.29-5.83c.23-.31.39-.54.51-.72-.24-.06-.54-.11-.89-.17l-.26,0a3.79,3.79,0,0,0-1.39.08,4.67,4.67,0,0,0-1.67.9,1,1,0,0,1-.78.18,1.81,1.81,0,0,1-1.36-.71l-.32-.53c1-1.06,2.07-2.13,3.11-3.21l.47.18a7.76,7.76,0,0,0,1.47.44c.72.14,1.65.31,2.78.54s2,.38,2.73.48,1.64.24,2.8.37l2.86.33.27,0a14.34,14.34,0,0,0,1.5,0l1.4-.05-2.22,4.27-.27.09a2.23,2.23,0,0,1-.9.08l-.66-.08-.41-.43a.82.82,0,0,1,0-.76.81.81,0,0,0,0-.56,1.46,1.46,0,0,0-.89-.33c-.36,0-.67-.09-.95-.11a3.15,3.15,0,0,0-.94,0,8.9,8.9,0,0,0-1.05,1.26q-2.14,3-4.29,5.9a6.49,6.49,0,0,0-.41.62,2.25,2.25,0,0,0,.34.13l.43.08.25.43a1,1,0,0,1-.2,1.08,1.89,1.89,0,0,1-.41.43l-.23.17Z"/>
                <path class="cls-3" d="M9.78,52.44a8.24,8.24,0,0,0,1.63.49l2.75.53c1.12.22,2,.38,2.75.49s1.66.24,2.83.37l2.84.33.32,0a15.54,15.54,0,0,0,1.56,0c-.48.94-1,1.87-1.46,2.81a1.71,1.71,0,0,1-.6,0l-.22,0c-.15,0-.22-.06-.19-.12.36-1.16-.16-1.83-1.55-2-.38-.05-.71-.09-1-.11-.77-.07-1.22,0-1.38.1A8.13,8.13,0,0,0,16.8,56.8q-2.13,3-4.28,5.88A5,5,0,0,0,11.77,64c0,.08.14.21.51.38a3.24,3.24,0,0,0,.77.29c.07,0,0,.13-.12.33a1.46,1.46,0,0,1-.27.28L11.18,65c-.87-.2-1.52-.35-2-.43s-1.14-.19-2.05-.33L5.43,64c0-.05,0-.14.09-.27s.27-.32.33-.32h0l.08,0a7.44,7.44,0,0,0,1,0,2.22,2.22,0,0,0,.93-.12,6.36,6.36,0,0,0,1.09-1.2q2.14-2.9,4.29-5.83c.62-.84.92-1.35.89-1.53a.31.31,0,0,0,0-.16,1.59,1.59,0,0,0-.47-.19,11.44,11.44,0,0,0-1.36-.29l-.3-.05a4.41,4.41,0,0,0-1.67.11,5.18,5.18,0,0,0-1.91,1,.34.34,0,0,1-.26,0H8c-.37-.07-.59-.15-.65-.25l2.41-2.51m-.55-1.81c-.21.22-.41.44-.62.65l-2.42,2.5-.75.78.64,1.06a2.6,2.6,0,0,0,1.86,1.12H8l.1,0a1.65,1.65,0,0,0,1.36-.35,3.75,3.75,0,0,1,1.36-.74,2.65,2.65,0,0,1,.89-.09L7.63,61.07a6.56,6.56,0,0,1-.67.78h-.3a4.43,4.43,0,0,1-.73,0h0a1.7,1.7,0,0,0-1.69.79,1.73,1.73,0,0,0-.1,2c.16.25.31.5.46.75l.83.13,1.3.2.42.06c.87.13,1.53.24,2,.32s1.06.22,1.89.42l.28.06c.76.18,1.19.27,1.3.29l.61.09.46-.34a2.83,2.83,0,0,0,.54-.55,1.77,1.77,0,0,0,.26-1.87l-.4-.84,4-5.55a7.77,7.77,0,0,1,.82-1l.53,0c.26,0,.57.06.91.11h.1l-.2.46.43.77a1.89,1.89,0,0,0,1.42.89l.3,0A3,3,0,0,0,23.6,59l.53-.18.26-.49c.48-.94,1-1.88,1.46-2.81L27.11,53l-2.8.11c-.59,0-1.07,0-1.41,0l-.23,0-2.89-.33c-1.15-.13-2.08-.26-2.78-.36s-1.61-.27-2.71-.49L11.5,51.4A7.11,7.11,0,0,1,10.17,51l-.94-.36Z"/>
              </g>
              <g>
                <path class="cls-2" d="M30.76,68.5q-1.31-.14-4.11-.48l-4.55-.6L18,67l-.22-.34a1,1,0,0,1,.09-1.17,1.1,1.1,0,0,1,1-.6h.06a8.4,8.4,0,0,0,.88,0,2.92,2.92,0,0,0,.59-.06s.34-.36,1-1.24q2.23-3.14,4.48-6.32c.18-.26.32-.46.41-.62a1.6,1.6,0,0,0-.42-.14l-.44-.06L25.1,56a1,1,0,0,1,.19-1.07,1.36,1.36,0,0,1,.65-.58l.18-.06.19,0c1.3.22,2.52.38,3.64.5.74.07,2.07.19,4,.33l4.31.32,1.2.09c-.18.35-.37.7-.56,1-.07.16-.39,1-1,2.54l-.11.3-.3.12a1.56,1.56,0,0,1-.73.11h-.26a1,1,0,0,1-1-1h0s0-.25-.44-.57a2.36,2.36,0,0,0-1.3-.48l-1-.09L32,57.48a3.79,3.79,0,0,0-.54,0,9.35,9.35,0,0,0-.86,1.11l-1.14,1.63,1.08.12c.6.06,1.05.09,1.34.1H32a1.76,1.76,0,0,1,.21-.24,7.53,7.53,0,0,1,.57-.56,1.14,1.14,0,0,1,.89-.26,1.49,1.49,0,0,1,1.22.48l.31.45c-.89,1.29-1.78,2.57-2.66,3.86l-.21.08a1.59,1.59,0,0,1-.66.08l-.27,0a1.21,1.21,0,0,1-.84-.38l-.21-.26v-.41l.09-.36c-.22,0-.61-.09-1.28-.16-.47,0-.85-.09-1.14-.1h-.28c-.55.78-1.1,1.57-1.66,2.35l-.25.38.56.08.66.07.55,0A10,10,0,0,0,30,65.41,5.59,5.59,0,0,0,31.24,65a7.24,7.24,0,0,0,1.38-.79,1.07,1.07,0,0,1,.8-.23c.78.07,1.19.18,1.43.54l.4.6-.55.43a42.11,42.11,0,0,0-3.32,2.74l-.25.26Z"/>
                <path class="cls-3" d="M26.23,55.09c1.32.21,2.54.38,3.68.5.74.07,2.07.19,4,.34l4.3.31c-.06.12-.4,1-1,2.62a1.13,1.13,0,0,1-.42,0h-.22c-.19,0-.28-.07-.28-.15a1.68,1.68,0,0,0-.75-1.25,3.24,3.24,0,0,0-1.72-.64l-1-.09L32,56.71q-.84,0-1,.12A8.37,8.37,0,0,0,30,58.14l-1.83,2.61c-.05.07.29.15,1,.23l1.35.14c.62.06,1.08.09,1.38.11a2,2,0,0,0,.4,0,1.75,1.75,0,0,0,.55-.48,4.45,4.45,0,0,1,.49-.48.49.49,0,0,1,.38-.09h.09c.29,0,.45.07.5.14l-2.24,3.24a.88.88,0,0,1-.36,0l-.22,0c-.23,0-.33-.08-.32-.17s.08-.31.11-.43a1.31,1.31,0,0,0,0-.27.49.49,0,0,0,0-.17.46.46,0,0,0,0-.09l-.07,0-.07-.05A6.11,6.11,0,0,0,29.24,62l-1.19-.11q-.69,0-.75.06l-1.83,2.59a3.32,3.32,0,0,0-.63,1.22c-.05.19.47.35,1.54.48l.66.07.6,0a10.08,10.08,0,0,0,2.56-.18,6.73,6.73,0,0,0,1.38-.48,7.75,7.75,0,0,0,1.52-.88.43.43,0,0,1,.32-.07h.1q.61.06.69.18c-1.92,1.5-3.05,2.43-3.41,2.81-.86-.09-2.23-.25-4.1-.48l-4.55-.6-3.79-.43s0-.15.1-.29.27-.32.34-.32h0l.12,0a6.85,6.85,0,0,0,.92,0,2.07,2.07,0,0,0,.9-.14A8.87,8.87,0,0,0,21.94,64q2.23-3.14,4.48-6.33a5.66,5.66,0,0,0,.77-1.33c0-.1-.17-.22-.54-.39a3.44,3.44,0,0,0-.83-.28c-.07,0,0-.11.11-.31a.78.78,0,0,1,.3-.31M26,53.5l-.36.12a2,2,0,0,0-1,.83,1.77,1.77,0,0,0-.24,1.85c.13.28.27.55.4.83h.07l-4.22,5.94c-.38.52-.63.82-.78,1h-.22a4.42,4.42,0,0,1-.74,0H18.8A2,2,0,0,0,17.09,67l.45.68.78.09c1.26.15,2.52.3,3.78.43l4.49.59c1.88.24,3.26.4,4.13.49l.74.07.49-.53c.14-.15.73-.69,3.24-2.67q.56-.42,1.11-.87l-.81-1.19a2,2,0,0,0-1.34-.81l1.42-2.05.57-.83.3,0h.31a2.58,2.58,0,0,0,1-.16l.59-.25c.07-.2.15-.4.23-.6.32-.86.87-2.3,1-2.51.31-.68.61-1.35.91-2l-2.21-.2L34,54.38c-1.9-.14-3.22-.26-4-.33-1.12-.12-2.33-.28-3.6-.49L26,53.5Zm5.83,4.75H32a7.06,7.06,0,0,1,.73.05l1,.09a1.59,1.59,0,0,1,.88.32.36.36,0,0,1,.09.08,2.61,2.61,0,0,0-.79-.16H33.7a1.91,1.91,0,0,0-1.44.48,6.37,6.37,0,0,0-.59.57l-.81-.07c.13-.18.25-.36.38-.53.26-.39.46-.64.6-.82Zm-4.59,6.52.93-1.33,1,.09.43,0,0,.25.45.6.13.14-.31.08a9,9,0,0,1-2.19.16l-.39,0Z"/>
              </g>
              <g>
                <path class="cls-2" d="M42.86,69.53c-.46,0-.92,0-1.37,0-2.49-.17-4.24-1-5.2-2.48C35.6,66,35.1,64.22,36.65,62a13.16,13.16,0,0,1,5.61-4.32A16.76,16.76,0,0,1,49,56.1c.27,0,.55,0,.83,0a32.17,32.17,0,0,1,5.63.76.77.77,0,0,1,.52.41c.19.39.07.75-.5,1.88-.41.83-.69,1.34-.81,1.53a1.56,1.56,0,0,1-1.34.61h-.21a2.45,2.45,0,0,1-.38-.06.86.86,0,0,1-.55-.35.82.82,0,0,1-.15-.62.86.86,0,0,0,0-.36,1.37,1.37,0,0,0-.23-.49,1.64,1.64,0,0,0-.77-.45,6.69,6.69,0,0,0-1.85-.31h-.43c-2.58,0-4.75,1.37-6.62,4.13a4.18,4.18,0,0,0-1,3.15c.07.25.25,1,2.25,1.16h.37A7.9,7.9,0,0,0,47,66.37a5.18,5.18,0,0,0,.88-.51c.33-.24.61-.45.81-.62.37-.3.54-.44.84-.45.95,0,1.34.15,1.59.44a.88.88,0,0,1,.21.62.92.92,0,0,1-.13.36,12.12,12.12,0,0,1-1.42,1.5c-1.12,1.08-1.52,1.31-1.86,1.38A28,28,0,0,1,42.86,69.53Z"/>
                <path class="cls-3" d="M49,56.87h.79a31.67,31.67,0,0,1,5.48.74c.07,0-.08.42-.48,1.21s-.64,1.27-.76,1.45a.87.87,0,0,1-.7.24h-.17l-.37-.07a1.6,1.6,0,0,0,0-.69,2.05,2.05,0,0,0-.36-.8,2.23,2.23,0,0,0-1.13-.73,7.24,7.24,0,0,0-2.08-.35h-.47c-2.83,0-5.25,1.51-7.26,4.46a4.82,4.82,0,0,0-1.1,3.76c.26,1.06,1.25,1.65,3,1.76h.41a8.41,8.41,0,0,0,3.49-.78,6.15,6.15,0,0,0,1-.59c.35-.26.64-.48.85-.66a2,2,0,0,1,.35-.26h0c.7,0,1,.1,1,.22a14.6,14.6,0,0,1-1.32,1.37,5.27,5.27,0,0,1-1.46,1.17,27.33,27.33,0,0,1-4.88.43c-.45,0-.89,0-1.33-.05-2.24-.15-3.77-.86-4.59-2.11s-.71-2.65.35-4.2a12.34,12.34,0,0,1,5.29-4A15.79,15.79,0,0,1,49,56.87m0-1.55a17.8,17.8,0,0,0-7.05,1.61A13.83,13.83,0,0,0,36,61.51c-1.8,2.6-1.18,4.65-.36,5.91,1.1,1.69,3.05,2.65,5.79,2.84.47,0,.94,0,1.42,0A29.27,29.27,0,0,0,48,69.85c.6-.11,1.12-.48,2.27-1.58a10.27,10.27,0,0,0,1.53-1.64,1.57,1.57,0,0,0,.26-.72,1.74,1.74,0,0,0-.39-1.2A2.77,2.77,0,0,0,49.58,64h0a2.07,2.07,0,0,0-1.41.63c-.19.16-.45.35-.77.59a4.57,4.57,0,0,1-.75.43,7.16,7.16,0,0,1-2.86.65h-.33c-.33,0-1.43-.13-1.53-.57a3.57,3.57,0,0,1,.87-2.53c1.72-2.53,3.67-3.77,6-3.79h.38a5.85,5.85,0,0,1,1.63.27,1.68,1.68,0,0,1,.44.21.66.66,0,0,1,.07.15,1.58,1.58,0,0,0,.17,1.22,1.51,1.51,0,0,0,1,.7c.37.07.54.09.56.09h.3a2.31,2.31,0,0,0,2-1c.13-.21.33-.56.86-1.62s.9-1.78.51-2.57a1.54,1.54,0,0,0-1.11-.82,32,32,0,0,0-5.7-.76l-.87,0Z"/>
              </g>
              <g>
                <path class="cls-2" d="M66.63,70.32l-1.49-.09c-.8-.06-1.41-.09-1.84-.1l-2.08,0-2.14.06-.29-.37a1.12,1.12,0,0,1,.2-1.22,1.24,1.24,0,0,1,.93-.63h0a6.58,6.58,0,0,0,.91-.13,2.59,2.59,0,0,0,.64-.17c0-.07.35-.41.87-1.19s.85-1.3,1.28-2l-1.66,0-2.69,0-1.73,2.63a7.37,7.37,0,0,0-.45.74,2.2,2.2,0,0,0,.34.08l.42,0c.08.13.16.26.25.39a1,1,0,0,1-.13,1,2.14,2.14,0,0,1-.51.61l-.23.18H57L55.45,70c-1-.08-1.61-.13-2.05-.14s-1.07,0-1.93,0h-2.1l-.23-.34a1,1,0,0,1,.11-1.16c.23-.35.47-.7.93-.7h0a7.29,7.29,0,0,0,.92-.1,4,4,0,0,0,.62-.13,11.25,11.25,0,0,0,.9-1.21l4.53-6.82c.2-.29.33-.51.42-.67a1.4,1.4,0,0,0-.36-.07H56.8l-.23-.42a1.14,1.14,0,0,1,.22-1.12,1.44,1.44,0,0,1,.59-.59l.18-.08,3.67.2c.4,0,1.65,0,3.72-.06h.64l.11.62a1.34,1.34,0,0,1-.3,1,1.24,1.24,0,0,1-.92.66h0a6.3,6.3,0,0,0-.87.13,4,4,0,0,0-.64.15,10.64,10.64,0,0,0-1,1.29c-.33.49-.65,1-1,1.48l1.74,0h2.6l1.53-2.33c.18-.28.31-.5.41-.68a1,1,0,0,0-.35-.06h-.44l-.24-.39a1.08,1.08,0,0,1,.15-1.06,1.68,1.68,0,0,1,.67-.68l.18-.09,3.91.13c.24,0,1.4,0,3.47-.11l.91,0-.17.91a1.69,1.69,0,0,1-.26.63,1.37,1.37,0,0,1-1,.72h0a8.24,8.24,0,0,0-.87.14c-.46.1-.59.16-.61.16a13.49,13.49,0,0,0-1,1.32l-4.43,6.79a7,7,0,0,0-.44.74,1.64,1.64,0,0,0,.34.06h.44l.24.4a1.14,1.14,0,0,1-.23,1.15,2.12,2.12,0,0,1-.43.48l-.23.2Z"/>
                <path class="cls-3" d="M57.69,57.25l3.46.19c.44,0,1.7,0,3.79-.06,0,.07,0,.19-.18.39s-.22.28-.28.29h-.06a7.18,7.18,0,0,0-.94.13,2.89,2.89,0,0,0-.92.27A7.51,7.51,0,0,0,61.35,60l-1.68,2.55v.05l3,.1h3l.1-.07L67.53,60a6,6,0,0,0,.75-1.43c0-.1-.15-.21-.49-.32a2.93,2.93,0,0,0-.8-.17c-.07,0,0-.1.08-.3a1.13,1.13,0,0,1,.33-.37l3.73.13,3.5-.12a.94.94,0,0,1-.14.33c-.14.23-.26.35-.35.35h-.06a8.15,8.15,0,0,0-.93.15,2.46,2.46,0,0,0-.9.29A9.42,9.42,0,0,0,71,60.09l-4.43,6.79a6.28,6.28,0,0,0-.81,1.55c0,.08.16.17.53.27a3.75,3.75,0,0,0,.78.16c.07,0,0,.12-.15.38a1.5,1.5,0,0,1-.28.31l-1.45-.09c-.82-.06-1.44-.09-1.89-.1s-1.16,0-2.11,0l-1.72,0h-.06c0-.06,0-.18.16-.38s.24-.29.31-.29H60a7.09,7.09,0,0,0,1-.14,2.54,2.54,0,0,0,.94-.3A9,9,0,0,0,63,66.91l2-3v-.07L62,63.75q-2.61,0-3.09,0h-.1l0,0-2,2.94a6.14,6.14,0,0,0-.79,1.51c0,.08.15.19.51.3a2.64,2.64,0,0,0,.77.19q.1,0-.06.27a1.34,1.34,0,0,1-.33.39l-1.51-.11c-.93-.08-1.61-.13-2-.14s-1.1,0-2,0H49.79c0-.06,0-.15.1-.31s.25-.35.29-.35h.1a8.17,8.17,0,0,0,1-.1,2.25,2.25,0,0,0,.92-.26,7.69,7.69,0,0,0,1.14-1.43l4.53-6.83a4.64,4.64,0,0,0,.75-1.4c0-.14-.16-.25-.49-.36a2.94,2.94,0,0,0-.8-.16c-.06,0,0-.13.14-.37s.2-.28.26-.3m-.25-1.57-.35.16a2.37,2.37,0,0,0-.94.88,1.87,1.87,0,0,0-.27,1.91c.14.26.27.53.4.79L52,65.83a8.81,8.81,0,0,1-.71,1l-.29,0a5.37,5.37,0,0,1-.74.08h0a2,2,0,0,0-1.66,1,1.74,1.74,0,0,0-.11,2l.45.67h2.52c.83,0,1.46,0,1.88,0s1.09.06,2,.14l1.6.12.56,0,.45-.35.25-.22.41.64.87,0h0l1.74,0c.92,0,1.61,0,2,0s1,0,1.79.09l1.54.09h.6l.47-.4a3.52,3.52,0,0,0,.58-.66,1.89,1.89,0,0,0,.28-1.93c-.14-.26-.27-.52-.4-.78q2.1-3.21,4.2-6.45a11.39,11.39,0,0,1,.78-1.05l.27-.06c.35-.07.58-.11.71-.12h0a2.2,2.2,0,0,0,1.69-1.12,2.5,2.5,0,0,0,.37-.91c.12-.61.23-1.21.35-1.82l-1.83.07L71.22,56l-3.68-.13h-.4l-.37.18a2,2,0,0,0-.44.29l-.09-.51-1.27,0c-2.1,0-3.32.06-3.73,0l-3.42-.18-.38,0Zm7,3.92A1.8,1.8,0,0,0,65.68,59c.11.18.21.37.31.56l-1,1.56H62.41l.22-.33a8.41,8.41,0,0,1,.75-1l.33-.07c.33-.06.57-.1.71-.11Zm-6,7.62,1.29-2,2.25,0h.3l-.52.8a9.79,9.79,0,0,1-.69,1l-.3.06a5.46,5.46,0,0,1-.73.11h0a1.89,1.89,0,0,0-1.28.56l-.31-.56Z"/>
              </g>
              <g>
                <path class="cls-2" d="M74.25,54,76,51.33h.44c.62,0,1.16,0,1.64,0A6.67,6.67,0,0,0,79.87,51a2.39,2.39,0,0,0,1.21-1,3.69,3.69,0,0,0,.33-.62,3.32,3.32,0,0,0,.18-.59L83,43.12q1-4.2,2-8.39-7.49,7-15,13.94c-.33.31-.62.61-.86.88a7.92,7.92,0,0,0-.54.68c-.39.6-.34.81-.34.82s.26.28,1.71.29h1.83c-.58.9-1.16,1.8-1.75,2.69q-6.16,0-12.33-.17c.59-.88,1.17-1.77,1.75-2.65h.66a5.21,5.21,0,0,0,2.09-.6,13.86,13.86,0,0,0,3-2.13c9.93-9,19.87-18.2,29.8-27.48l5-.1L94,49.4c-.24,1.2-.06,1.48-.06,1.48s.34.21.91.2l1.35,0c-.58.91-1.16,1.82-1.75,2.73C87.71,53.91,81,54,74.25,54Z"/>
                <path class="cls-3" d="M95.2,21.78,99,21.7q-2.91,13.8-5.81,27.6a3,3,0,0,0,0,2.05c.24.35.74.52,1.51.5-.24.39-.49.77-.74,1.16-6.13.12-12.26.22-18.39.25l.75-1.15q.94,0,1.68-.06a7.67,7.67,0,0,0,2-.32,3.33,3.33,0,0,0,1.62-1.38,4.85,4.85,0,0,0,.4-.74,4.5,4.5,0,0,0,.23-.77c.29-1.17.57-2.35.86-3.52h0l.51-2.06c.12-.54.25-1.07.37-1.61h0c.72-3.05,1.43-6.1,2.15-9.15l-9.79,9.15h0l-.23.21-1.61,1.49-.56.52,0,0c-1.53,1.42-3,2.83-4.58,4.23-.36.35-.66.66-.91.94a9.94,9.94,0,0,0-.62.78c-.51.8-.61,1.37-.3,1.73s1.06.55,2.27.55h.47l-.74,1.14c-3.51,0-7-.06-10.54-.14L59.82,52h.26a5.81,5.81,0,0,0,2.42-.68,14.82,14.82,0,0,0,3.13-2.26C75.49,40.15,85.34,31,95.2,21.78m-.54-1.54-.47.44C84.34,29.89,74.48,39,64.62,47.92a13.66,13.66,0,0,1-2.77,2,4.46,4.46,0,0,1-1.77.5h-.17l-.88,0-.49.74-.75,1.13-1.52,2.3,2.72.07c3.51.08,7,.12,10.53.14h.88l.49-.76.74-1.14,1.53-2.34H70a6.16,6.16,0,0,1-.7,0c.1-.14.24-.3.4-.48s.5-.54.82-.85L75,45l.6-.56,1.6-1.49.23-.21L83.62,37c-.34,1.46-.69,2.93-1,4.4-.13.54-.25,1.08-.38,1.62s-.33,1.36-.5,2c-.29,1.18-.57,2.35-.86,3.53a3.5,3.5,0,0,1-.15.53,3.77,3.77,0,0,1-.26.48,1.62,1.62,0,0,1-.79.7,6,6,0,0,1-1.57.23c-.47,0-1,0-1.59.05h-.88c-.17.25-.33.51-.49.76l-.75,1.15-1.52,2.34h2.71c6.13,0,12.26-.12,18.39-.24l.88,0,.49-.76.74-1.16,1.53-2.37-2.72,0h-.24a4.15,4.15,0,0,1,.11-.79q2.91-13.8,5.81-27.59c.12-.6.25-1.2.37-1.79l-1.8,0-3.83.08Z"/>
              </g>
              <path class="cls-4" d="M128.71,3.09a61.1,61.1,0,0,1,21.6,4c-20.68,3.4-36.61,20.29-46.71,34.71-5.76,8.25-12.7,17.6-22.12,24l0,0,0,0A51.53,51.53,0,0,1,59.32,74.7a43.24,43.24,0,0,0,9-18.45l0-.14,0-.13c.12-.89.35-1.93.57-2.94.11-.49.22-1,.31-1.43A60.72,60.72,0,0,1,128.71,3.09m0-3.09a63.8,63.8,0,0,0-62.5,51c-.29,1.45-.72,3.12-.91,4.58a40.15,40.15,0,0,1-9.54,18.51,41.09,41.09,0,0,1-4.44,4.23h1a53.9,53.9,0,0,0,30.92-10c9.48-6.46,16.38-15.45,22.91-24.81,12-17.1,29.8-34,51.66-34,1.28,0,2.56.06,3.86.18l1,.06c-.93-.59-1.85-1.11-2.81-1.65A63.73,63.73,0,0,0,128.71,0Z"/>
              <g>
                <path class="cls-2" d="M83.45,70.29a1.29,1.29,0,0,1-1.17-.82c-1.26-2.65-2.53-5.31-3.79-8l-3.77,5.83a6.18,6.18,0,0,0-.37.61l.07,0a4.42,4.42,0,0,0,.93.15h.43l.23.38a1,1,0,0,1-.17,1.07,2.24,2.24,0,0,1-.5.63l-.22.16h-.26c-.16,0-.66,0-1.5-.07s-1.41-.07-1.84-.08l-1.58.06-2,.1L67.68,70a1.06,1.06,0,0,1,.13-1.21,1.28,1.28,0,0,1,.94-.72H69l.33,0a5.39,5.39,0,0,0,.84-.18,2.5,2.5,0,0,0,.78-.33,3.89,3.89,0,0,0,.89-1.1q2.34-3.57,4.66-7.17c.09-.14.16-.26.21-.35a7.23,7.23,0,0,0-1-.08h-.43l-.24-.38a1.06,1.06,0,0,1,.12-1.05,1.66,1.66,0,0,1,.67-.71l.19-.1,1.77.09c.76,0,1.36.05,1.79,0,.28,0,.63,0,1,0s.91-.07,1.47-.13l.76-.07c0,.25,0,.5,0,.75a5,5,0,0,0,.46,1.54c.33.77.77,1.72,1.34,2.85.3.6.56,1.15.78,1.63Q86.78,61.36,88,59.4q.21-.33.3-.51l-.09,0a3.54,3.54,0,0,0-.73-.13h-.44l-.24-.4a1.08,1.08,0,0,1,.12-1,2,2,0,0,1,.59-.69l.22-.13H88c1.47.07,2.55.1,3.21.09.41,0,1,0,1.74-.1l2.09-.16.15.74a1.36,1.36,0,0,1-.24.8,1.41,1.41,0,0,1-1,.74l-.37,0a4.25,4.25,0,0,0-1.8.53,3.32,3.32,0,0,0-.92,1.07c-1.5,2.33-3,4.67-4.51,7-.28.44-.79,1.29-1.54,2.55l-.12.21-.22.11a1.72,1.72,0,0,1-.7.16Z"/>
                <path class="cls-3" d="M76.18,57.41l1.57.08c.77,0,1.38,0,1.82,0s.66,0,1.1,0l1.49-.12a5.89,5.89,0,0,0,.53,1.79c.33.77.78,1.74,1.35,2.89s1,2.08,1.31,2.82a4.45,4.45,0,0,0,.53-.75l2.79-4.33c.45-.7.63-1.14.53-1.32s-.31-.25-.72-.35a3.44,3.44,0,0,0-.93-.15c-.07,0,0-.11.07-.31a1.23,1.23,0,0,1,.29-.38c1.5.08,2.59.11,3.27.1.42,0,1-.05,1.77-.1h0l1.46-.1a.61.61,0,0,1-.11.33c-.15.22-.27.34-.35.35h0l-.36,0a5.08,5.08,0,0,0-2.14.63,4,4,0,0,0-1.22,1.35q-2.25,3.51-4.51,7c-.28.44-.8,1.3-1.55,2.58a1.23,1.23,0,0,1-.39.07h-.3q-.3,0-.51-.42-2.17-4.57-4.36-9.18l-4.54,7a3.31,3.31,0,0,0-.64,1.3c0,.21.27.36.75.48a5.65,5.65,0,0,0,1.11.17s0,.11-.11.31a1.45,1.45,0,0,1-.29.38c-.15,0-.64,0-1.45-.06s-1.45-.08-1.88-.08-1,0-1.64.06h-.09l-.61,0-.92,0s0-.15.14-.33.25-.34.3-.35h0a2.08,2.08,0,0,0,.25,0l.36,0a6,6,0,0,0,1-.2,3.54,3.54,0,0,0,1-.45,4.7,4.7,0,0,0,1.12-1.33q2.34-3.59,4.66-7.18c.41-.63.57-1.07.46-1.3s-.27-.16-.74-.21a7.19,7.19,0,0,0-1.07-.08c-.06,0,0-.11.07-.31a1,1,0,0,1,.32-.38m-.24-1.56-.37.19a2.44,2.44,0,0,0-1,1.06,1.78,1.78,0,0,0-.12,1.8l.42.74h.56q-2.09,3.22-4.18,6.44a4.64,4.64,0,0,1-.66.86,2.19,2.19,0,0,1-.54.22,5.53,5.53,0,0,1-.71.15l-.29,0h-.16a2.09,2.09,0,0,0-1.67,1.09,1.71,1.71,0,0,0-.11,2.1l.46.6.77,0,.94,0,.61,0h0c.72,0,1.23-.06,1.63-.06s1,0,1.79.07,1.38.07,1.55.07h.52l.44-.32a3,3,0,0,0,.72-.87,1.84,1.84,0,0,0,.19-1.85l-.42-.76h-.66c.92-1.42,1.84-2.83,2.75-4.25,1.07,2.26,2.14,4.51,3.22,6.77a2,2,0,0,0,1.81,1.22l.4,0a2.45,2.45,0,0,0,1-.24l.45-.22.25-.44c.74-1.24,1.25-2.08,1.52-2.51q2.26-3.5,4.51-7a2.63,2.63,0,0,1,.64-.79,3.38,3.38,0,0,1,1.44-.42h.28a2.26,2.26,0,0,0,1.72-1.14A2.13,2.13,0,0,0,96,57c0-.49,0-1,0-1.48l-1.49.11-.25,0L93,55.73c-.74.05-1.31.09-1.71.1s-1.37,0-3.16-.09l-.49,0-.44.27a2.62,2.62,0,0,0-.88,1,1.76,1.76,0,0,0-.15,1.77l.39.73.55,0-1.43,2.22-.22-.44c-.53-1.08-1-2-1.31-2.82a4.36,4.36,0,0,1-.41-1.28c0-.5,0-1-.08-1.51l-1.51.15L80.67,56c-.4,0-.74,0-1,0s-1,0-1.74-.05l-1.34-.06h-.23l-.41,0Z"/>
              </g>
              <g>
                <path class="cls-2" d="M92.59,53.81l1.74-2.71.68,0a7.77,7.77,0,0,0,3.53-1,10.44,10.44,0,0,0,3-3.22l12.93-20.13c1.28-2,1.15-2.63,1.11-2.74-.09-.27-.69-.56-2.07-.59l-1.3,0c.58-.89,1.15-1.78,1.72-2.67,7.19-.12,14.38-.2,21.57-.14l-1.76,2.68-.43,0a8.11,8.11,0,0,0-3.8,1,10,10,0,0,0-2.93,3.14q-6.47,10-12.93,20c-1.28,2-1.16,2.62-1.12,2.73s.69.56,2.09.6l1.28,0-1.71,2.66C107,53.51,99.77,53.68,92.59,53.81Z"/>
                <path class="cls-3" d="M114.29,21.4c6.58-.1,13.17-.17,19.76-.14-.25.39-.5.78-.76,1.17h-.18a8.55,8.55,0,0,0-4,1.08,10.74,10.74,0,0,0-3.2,3.41q-6.47,10-12.93,20c-1,1.62-1.44,2.77-1.21,3.43s1.15,1,2.74,1.06c-.25.39-.5.77-.74,1.16-6.59.11-13.18.26-19.77.39.25-.39.5-.77.74-1.16l.28,0a8.54,8.54,0,0,0,3.9-1.16,11.05,11.05,0,0,0,3.23-3.49l12.93-20.13c1-1.62,1.44-2.76,1.2-3.43s-1.15-1-2.73-1.06l.75-1.16m-.79-1.53c-.17.25-.33.51-.49.76l-.75,1.16-1.46,2.27,2.6.05a4.13,4.13,0,0,1,1.39.2,7.27,7.27,0,0,1-1,2q-6.47,10-12.93,20.14a9.5,9.5,0,0,1-2.7,2.95,6.89,6.89,0,0,1-3.15.92h-.24l-.84.05-.48.73c-.24.39-.49.78-.74,1.16-.51.79-1,1.58-1.52,2.37l2.71,0c6.59-.13,13.18-.28,19.77-.39h.87l.5-.77.74-1.16L117.22,50l-2.56-.08a4.18,4.18,0,0,1-1.41-.21,8.07,8.07,0,0,1,1-2q6.47-10.05,12.93-20a9.05,9.05,0,0,1,2.67-2.87,6.89,6.89,0,0,1,3.26-.86h.16l.84,0,.46-.71c.26-.39.51-.78.76-1.17l1.53-2.32-2.72,0c-6.59,0-13.18,0-19.77.14Z"/>
              </g>
              <g>
                <path class="cls-5" d="M138.27,53.19c-1.08.05-2.19.07-3.32.06-6.63,0-13.25,0-19.88.12l1.87-2.89.74,0a8.08,8.08,0,0,0,3.82-1.17,12.59,12.59,0,0,0,3.43-3.77q7.53-11.61,15-23.07c1.46-2.22,1.45-3.05,1.38-3.3-.12-.43-.93-.72-2.22-.79l-1.29-.07,1.84-2.8c6.87.1,13.74.34,20.61.78s11.23,2.68,13,6.32.64,8.28-3.21,13.83a36.36,36.36,0,0,1-8.5,8.66A48,48,0,0,1,150,51.16a33.74,33.74,0,0,1-6.79,1.6C141.61,53,140,53.12,138.27,53.19Z"/>
                <path class="cls-3" d="M140.07,16.25c6.73.1,13.45.34,20.17.77S171,19.5,172.55,22.88s.56,7.72-3.15,13.07a35.63,35.63,0,0,1-8.33,8.48,45.93,45.93,0,0,1-11.37,6A31.59,31.59,0,0,1,143.08,52c-1.53.21-3.14.35-4.81.43-1.07,0-2.16.06-3.28.06-6.17,0-12.34,0-18.52.1l.87-1.35.34,0a8.75,8.75,0,0,0,4.21-1.3,13.56,13.56,0,0,0,3.69-4q7.52-11.61,15-23c1.21-1.84,1.71-3.16,1.49-3.94s-1.19-1.24-2.89-1.33c.29-.44.58-.88.86-1.32m-.78-1.56c-.17.25-.33.5-.5.74-.28.45-.57.89-.86,1.33L136.47,19l2.59.14a3.63,3.63,0,0,1,1.55.32,7.33,7.33,0,0,1-1.28,2.6q-7.52,11.45-15,23.08a11.6,11.6,0,0,1-3.18,3.51,7.19,7.19,0,0,1-3.43,1.05h-.3l-.85,0c-.15.25-.31.49-.47.74l-.87,1.35-1.52,2.36,2.72,0c6.17-.1,12.34-.15,18.51-.11,1.15,0,2.28,0,3.37-.06,1.72-.07,3.39-.22,5-.44a33.44,33.44,0,0,0,7-1.64,48.32,48.32,0,0,0,11.8-6.2,37.24,37.24,0,0,0,8.68-8.82c4-5.78,5.12-10.65,3.26-14.59s-6.43-6.33-13.61-6.79c-6.72-.43-13.44-.67-20.17-.78Z"/>
              </g>
              <g>
                <path class="cls-2" d="M38.44,52.91l1.86-2.72H41A11.43,11.43,0,0,0,43.62,50a1.42,1.42,0,0,0,.92-.54,1.47,1.47,0,0,0,.22-.49,4.81,4.81,0,0,0,.12-1c.17-3.62.33-7.25.5-10.87l-1.58,1Q41.11,42,38.43,46c-1.49,2.18-1.58,3-1.55,3.3.06.5,1,.7,1.51.78l1.24.17-1.77,2.66C30.44,52.28,23,51.45,15.6,50.27l1.86-2.58.74.08A7,7,0,0,0,22,47.19a10.21,10.21,0,0,0,3.44-3.3Q33,33.23,40.5,22.18C42,20,42,19.21,41.88,19c-.12-.43-.93-.76-2.22-.91l-1.29-.15,1.84-2.69c7.45.53,14.91.81,22.36.93L60.7,19h-.43a6.66,6.66,0,0,0-3.53,1,13,13,0,0,0-3.27,3.65q-2.69,4-5.37,8,7.95-5,15.89-10.26a17.85,17.85,0,0,0,1.77-1.27,5.22,5.22,0,0,0,.82-.84,6.11,6.11,0,0,0-2-.26l-1.36,0,1.89-2.88c4.76.06,9.52.05,14.27,0l-1.89,2.92h-1.4a10.29,10.29,0,0,0-2.92.64,19.5,19.5,0,0,0-4,2.19q-5,3.31-9.92,6.55l-.63,19.79A4.52,4.52,0,0,0,59,50.37a1.28,1.28,0,0,0,1,.67l1.12.2L59.29,53.9C52.34,53.74,45.39,53.44,38.44,52.91Z"/>
                <path class="cls-3" d="M40.6,16c6.86.48,13.71.75,20.57.88l-.88,1.34h-.12a7.24,7.24,0,0,0-3.84,1.14,13.9,13.9,0,0,0-3.5,3.87q-3.69,5.55-7.39,11c6.32-3.91,12.64-8,19-12.18a19.48,19.48,0,0,0,1.85-1.33,5.47,5.47,0,0,0,1-1.09.6.6,0,0,0-.25-1,6,6,0,0,0-2.43-.36c.3-.45.59-.9.88-1.35Q71.71,17,78,17l-.88,1.37h-.43l-.58,0a10.81,10.81,0,0,0-3.15.69,20.57,20.57,0,0,0-4.19,2.27q-5.14,3.43-10.27,6.78-.33,10.1-.65,20.2a5.29,5.29,0,0,0,.48,2.48,2,2,0,0,0,1.49,1l-.87,1.32c-6.35-.15-12.7-.43-19.06-.88L40.71,51H41a12.35,12.35,0,0,0,2.8-.19,2.22,2.22,0,0,0,1.37-.87,2.18,2.18,0,0,0,.32-.71A5,5,0,0,0,45.65,48l.57-12.33-3,1.82q-2.73,4-5.46,8c-1.21,1.77-1.77,3-1.68,3.82s.82,1.28,2.19,1.47l-.84,1.27c-6.82-.54-13.64-1.3-20.46-2.35l.87-1.2.34,0a7.63,7.63,0,0,0,4.2-.67,10.56,10.56,0,0,0,3.69-3.52q7.51-10.68,15-21.74Q43,20,42.62,18.75c-.22-.8-1.18-1.28-2.89-1.48L40.6,16m-.79-1.6-.49.72-.87,1.27L37,18.51l2.58.3a3.62,3.62,0,0,1,1.55.4,6.48,6.48,0,0,1-1.27,2.53q-7.53,11-15,21.67a9.54,9.54,0,0,1-3.18,3.08,6.3,6.3,0,0,1-3.43.51l-.3,0-.85-.1-.48.65-.86,1.2L14.2,50.81l2.71.44c6.71,1,13.42,1.78,20.13,2.32h0l.76.06.47,0,1.49.11c6.35.46,12.7.73,19.05.88l.88,0,.49-.74.87-1.32,1.28-1.95-2.24-.39a.53.53,0,0,1-.45-.3,3.68,3.68,0,0,1-.29-1.75q.3-9.66.62-19.32,4.77-3.14,9.56-6.33a19,19,0,0,1,3.85-2.11,9.28,9.28,0,0,1,2.68-.58l.49,0h1.31l.49-.76.88-1.36,1.53-2.36-2.72,0q-6.24,0-12.48,0h-.88c-.16.25-.32.5-.49.75l-.88,1.35c-.51.77-1,1.54-1.52,2.31l2.71.05h.44c-.37.28-.81.6-1.34.94Q57.18,25,50.75,29.11l3.36-5a12.47,12.47,0,0,1,3-3.43,5.68,5.68,0,0,1,3-.87l.84,0,.56-.72.88-1.34c.51-.77,1-1.54,1.52-2.32l-2.71,0c-6.86-.13-13.72-.39-20.57-.87l-.88-.06Zm4.53,24.24.2-.12c-.14,3.14-.29,6.28-.43,9.42a4.52,4.52,0,0,1-.09.84,1,1,0,0,1-.12.27.85.85,0,0,1-.46.22,10.46,10.46,0,0,1-2.43.16h-.29l-.83,0,0,.05-1.37-.19a2.9,2.9,0,0,1-.83-.21,8.71,8.71,0,0,1,1.42-2.66q2.63-3.86,5.26-7.75Z"/>
              </g>
              <g>
                <path class="cls-5" d="M157.18,53.9a.78.78,0,0,1-.65-.43.78.78,0,0,1,.05-.77l.75-1.11a.77.77,0,0,1,.64-.34h.27a7.41,7.41,0,0,0,3.53-.75,9.11,9.11,0,0,0,3-2.94q6.47-9.43,12.93-18.6c1.28-1.82,1.16-2.47,1.12-2.59-.1-.28-.69-.66-2.08-.87a.85.85,0,0,1-.62-.48.76.76,0,0,1,0-.76l.75-1.06a.71.71,0,0,1,.64-.3c0-.23,19.81,2.94,19.81,3.2a.92.92,0,0,1,.65.52.78.78,0,0,1,0,.77l-.77,1a.66.66,0,0,1-.64.25h0a7.13,7.13,0,0,0-3.79.25,7.45,7.45,0,0,0-2.93,2.61q-6.47,8.85-12.93,18c-1.29,1.82-1.16,2.48-1.13,2.59.1.27.7.64,2.1.88a.84.84,0,0,1,.62.48.76.76,0,0,1-.07.76l-.74,1a.73.73,0,0,1-.64.3C177,55.4,157.18,53.72,157.18,53.9Z"/>
                <path class="cls-3" d="M177.52,23.68c6.59.8,13.18,1.84,19.77,3.19l-.76,1-.19,0a7.48,7.48,0,0,0-4,.33,8.06,8.06,0,0,0-3.2,2.83c-.22.29-.43.58-.64.88q-6.15,8.43-12.3,17.17c-1,1.48-1.44,2.58-1.21,3.27s1.15,1.16,2.74,1.43L177,54.83c-6.59-.79-13.18-1.33-19.77-1.7L158,52h.27a8.16,8.16,0,0,0,3.9-.84A9.72,9.72,0,0,0,165.37,48q2.82-4.11,5.64-8.17,3.65-5.25,7.29-10.41c1-1.47,1.45-2.56,1.21-3.26s-1.15-1.19-2.74-1.44l.75-1.06m0-1.54a1.42,1.42,0,0,0-1.28.6l-.75,1.06a1.52,1.52,0,0,0-.11,1.52,1.66,1.66,0,0,0,1.25.95,4.55,4.55,0,0,1,1.39.39,6,6,0,0,1-1,1.83q-3.65,5.18-7.29,10.45-2.82,4.06-5.64,8.18a8.31,8.31,0,0,1-2.69,2.71,6.65,6.65,0,0,1-3.16.65H158a1.51,1.51,0,0,0-1.28.68l-.75,1.11a1.54,1.54,0,0,0-.1,1.55,1.52,1.52,0,0,0,1.29.85c6.59.37,13.18.91,19.77,1.69H177a1.46,1.46,0,0,0,1.28-.59l.74-1.06a1.51,1.51,0,0,0,.12-1.51,1.7,1.7,0,0,0-1.24-1,5.1,5.1,0,0,1-1.41-.4,6.62,6.62,0,0,1,1-1.82q6.13-8.72,12.29-17.12l.64-.87a7,7,0,0,1,2.66-2.4,6.31,6.31,0,0,1,3.26-.23l.17,0h0a1.33,1.33,0,0,0,1.28-.49l.76-1a1.49,1.49,0,0,0,.1-1.53,1.9,1.9,0,0,0-1.3-1.06C190.78,24,184.2,23,177.61,22.15Z"/>
              </g>
              <path class="cls-3" d="M155.06,40.92C144.88,48.29,130.35,50,130.35,50A33.65,33.65,0,0,1,142.5,31c10.18-7.83,24.71-8.44,24.71-8.38A31.76,31.76,0,0,1,155.06,40.92Z"/>
              <path class="cls-5" d="M128.72,50.11c9-6.67,18.05-13.18,27.07-19.36-8.62,6.73-17.24,13.76-25.86,21l-1.21-1.59Z"/>
            </g>
            <g>
              <g>
                <path class="cls-2" d="M96.75,70.12l-.76,0c-2.49,0-4.24-.63-5.2-2s-.85-3.21.44-5.22a14.44,14.44,0,0,1,5.56-4.77,17.09,17.09,0,0,1,6.54-2l.77,0c2.49-.05,4.24.63,5.2,2,.69,1,1.18,2.72-.43,5.23a14.26,14.26,0,0,1-5.58,4.76A16.84,16.84,0,0,1,96.75,70.12Zm6-11.41a5.22,5.22,0,0,0-2.07.64A8.74,8.74,0,0,0,98.5,61a13.63,13.63,0,0,0-1.76,2.23,9.46,9.46,0,0,0-.87,1.7,5.41,5.41,0,0,0-.36,1.55.85.85,0,0,0,.29.79,2,2,0,0,0,1.35.33h.24a5.63,5.63,0,0,0,3-1.28,12.74,12.74,0,0,0,3-3.26,11.61,11.61,0,0,0,.95-1.79,5.23,5.23,0,0,0,.38-1.51.75.75,0,0,0-.28-.71A2.27,2.27,0,0,0,103,58.7Z"/>
                <path class="cls-3" d="M103.33,56.92c.25,0,.49,0,.73,0,2.23-.05,3.77.53,4.59,1.72s.69,2.65-.42,4.37A13.34,13.34,0,0,1,103,67.44a16.22,16.22,0,0,1-6.23,1.91q-.36,0-.72,0-3.36.08-4.59-1.71c-.82-1.19-.68-2.64.43-4.37a13.54,13.54,0,0,1,5.24-4.47,16,16,0,0,1,6.22-1.91M97.4,68.33a6.46,6.46,0,0,0,3.46-1.45A13.71,13.71,0,0,0,104,63.41a12.56,12.56,0,0,0,1-1.93,6,6,0,0,0,.44-1.76,1.47,1.47,0,0,0-.55-1.34,3,3,0,0,0-1.94-.46l-.29,0a5.91,5.91,0,0,0-2.4.74A9.54,9.54,0,0,0,98,60.45a16,16,0,0,0-1.86,2.37,10.16,10.16,0,0,0-.95,1.85,6.26,6.26,0,0,0-.41,1.78,1.58,1.58,0,0,0,.52,1.39,2.63,2.63,0,0,0,1.84.5h.3m5.93-13h0a17.76,17.76,0,0,0-6.85,2.1,15.29,15.29,0,0,0-5.89,5.06c-1.85,2.88-1.26,4.89-.44,6.08,1.1,1.6,3,2.38,5.8,2.32a7.26,7.26,0,0,0,.8,0,17.78,17.78,0,0,0,6.86-2.09,15.15,15.15,0,0,0,5.9-5.06c1.85-2.87,1.26-4.9.43-6.09-1.1-1.59-3-2.38-5.79-2.32l-.82,0ZM97.4,66.78h-.21c-.67,0-.84-.13-.85-.14s-.07-.06-.06-.2a4.63,4.63,0,0,1,.31-1.33,8.28,8.28,0,0,1,.79-1.53A14.14,14.14,0,0,1,99,61.48,7.87,7.87,0,0,1,101,60a4.59,4.59,0,0,1,1.76-.55h.2a1.81,1.81,0,0,1,1,.15,3.6,3.6,0,0,1-.3,1.38,10.3,10.3,0,0,1-.88,1.64,12,12,0,0,1-2.76,3,4.91,4.91,0,0,1-2.59,1.1Z"/>
              </g>
              <g>
                <path class="cls-2" d="M118.14,69.6l-4.51,0-4.14,0-4.17.2-.22-.32a1,1,0,0,1,.11-1.17,1.39,1.39,0,0,1,1-.76h.07c.29,0,.55-.07.88-.13a3.08,3.08,0,0,0,.59-.16c0-.07.37-.47,1-1.39l4.53-7c.16-.25.28-.44.36-.59a2.06,2.06,0,0,0-.36-.06h-.45l-.23-.4a1.1,1.1,0,0,1,.18-1.08,1.77,1.77,0,0,1,.64-.68l.17-.08,3.79.05c.33,0,1.53-.06,3.6-.15l.92,0-.18.91a1.68,1.68,0,0,1-.26.62,1.3,1.3,0,0,1-1,.74h0a5.59,5.59,0,0,0-.89.15,4,4,0,0,0-.63.16,12.64,12.64,0,0,0-.88,1.24l-4.5,7-.26.43c.15,0,1.22,0,1.22,0l.55,0a10.53,10.53,0,0,0,2.38-.46,7.34,7.34,0,0,0,1.23-.58,8,8,0,0,0,1.37-.94,1.32,1.32,0,0,1,.83-.31c.73,0,1.16,0,1.4.39l.42.56-.56.49a44.33,44.33,0,0,0-3.32,3.08l-.25.3Z"/>
                <path class="cls-3" d="M113.64,56.79l3.62.05,3.63-.16a.91.91,0,0,1-.13.33c-.15.23-.26.35-.33.35h-.06a7.55,7.55,0,0,0-1,.16,2.78,2.78,0,0,0-.92.29,9.79,9.79,0,0,0-1.13,1.48l-4.49,7a4.22,4.22,0,0,0-.65,1.32c0,.2.47.29,1.54.27h.66q.3,0,.6,0a11,11,0,0,0,2.56-.5A7.64,7.64,0,0,0,119,66.7a9.66,9.66,0,0,0,1.52-1,.54.54,0,0,1,.35-.12h.08c.4,0,.64,0,.69.11q-2.88,2.53-3.41,3.17l-4.51,0-4.15,0-3.78.19s0-.15.1-.31.26-.37.33-.38h.13c.21,0,.51-.07.91-.14a2.58,2.58,0,0,0,.9-.29,10.5,10.5,0,0,0,1.2-1.63l4.53-7a3.45,3.45,0,0,0,.68-1.38c0-.1-.19-.19-.51-.29a2.68,2.68,0,0,0-.77-.14c-.06,0,0-.11.11-.31a1.3,1.3,0,0,1,.28-.37m-.24-1.56-.35.17a2.53,2.53,0,0,0-1,1,1.78,1.78,0,0,0-.24,1.87l.4.77L108,65.56a13.08,13.08,0,0,1-.78,1.12l-.22,0a6.54,6.54,0,0,1-.73.11h-.13A2.19,2.19,0,0,0,104.57,68a1.73,1.73,0,0,0-.11,2l.44.64.8,0,3.79-.19,4.09,0,4.52,0h.74c.17-.2.34-.39.5-.59s.8-.84,3.24-3l1.12-1-.84-1.12A2.16,2.16,0,0,0,121,64h-.17a2.15,2.15,0,0,0-1.34.54,7.13,7.13,0,0,1-1.2.81,6.36,6.36,0,0,1-1.08.51,9.87,9.87,0,0,1-2.19.43l-.39,0,4-6.24a8.32,8.32,0,0,1,.69-1l.28-.06a7.37,7.37,0,0,1,.75-.14h0A2.18,2.18,0,0,0,122,57.78a2.43,2.43,0,0,0,.37-.91c.12-.61.23-1.21.35-1.82l-1.83.08-3.59.16-3.56,0Z"/>
              </g>
              <g>
                <path class="cls-2" d="M129.65,69.63l-.76,0c-2.49,0-4.24-.69-5.2-2.09-.69-1-1.17-2.73.44-5.22a14,14,0,0,1,5.57-4.68,16.21,16.21,0,0,1,6.55-1.85c.25,0,.5,0,.75,0,2.49,0,4.24.78,5.2,2.21.69,1,1.18,2.77-.43,5.21a13.73,13.73,0,0,1-5.57,4.57A17.05,17.05,0,0,1,129.65,69.63Zm6-11.27a5,5,0,0,0-2.08.59,8.41,8.41,0,0,0-2.15,1.56,13.87,13.87,0,0,0-1.75,2.2,8.69,8.69,0,0,0-.87,1.68,5.7,5.7,0,0,0-.36,1.54.87.87,0,0,0,.29.8,2,2,0,0,0,1.34.35h.27a5.56,5.56,0,0,0,3-1.21,12.35,12.35,0,0,0,3.92-4.93,5.23,5.23,0,0,0,.38-1.51.76.76,0,0,0-.28-.71,2.33,2.33,0,0,0-1.48-.36Z"/>
                <path class="cls-3" d="M136.25,56.58c.24,0,.47,0,.71,0q3.36,0,4.6,1.88t-.43,4.36a12.81,12.81,0,0,1-5.25,4.28,16.18,16.18,0,0,1-6.23,1.77l-.72,0c-2.24,0-3.77-.59-4.59-1.79s-.67-2.65.43-4.36A13.15,13.15,0,0,1,130,58.35a15.55,15.55,0,0,1,6.24-1.77m-5.94,11.27a6.5,6.5,0,0,0,3.46-1.37,13.34,13.34,0,0,0,3.17-3.39,11.83,11.83,0,0,0,1-1.89,5.84,5.84,0,0,0,.44-1.75,1.49,1.49,0,0,0-.55-1.35,3.06,3.06,0,0,0-1.94-.52h-.29a5.85,5.85,0,0,0-2.4.68A9.3,9.3,0,0,0,130.86,60,14.72,14.72,0,0,0,129,62.32a9.41,9.41,0,0,0-.95,1.83,6.12,6.12,0,0,0-.41,1.77,1.6,1.6,0,0,0,.52,1.4,2.63,2.63,0,0,0,1.84.53h.31M136.25,55h0A17.1,17.1,0,0,0,129.38,57a14.8,14.8,0,0,0-5.89,5c-1.85,2.86-1.26,4.88-.44,6.08,1.1,1.6,3,2.4,5.79,2.4q.41,0,.81,0a17.83,17.83,0,0,0,6.86-1.93,14.47,14.47,0,0,0,5.9-4.85c1.85-2.8,1.26-4.84.44-6.07-1.11-1.64-3.06-2.5-5.8-2.53ZM130.31,66.3h-.22a1.48,1.48,0,0,1-.85-.16c-.05-.05-.07-.07-.06-.2a4.9,4.9,0,0,1,.31-1.33,8.44,8.44,0,0,1,.79-1.51A12.82,12.82,0,0,1,131.93,61a7.5,7.5,0,0,1,1.94-1.41,4.39,4.39,0,0,1,1.75-.5h.21c.79,0,1,.17,1,.18a3.4,3.4,0,0,1-.3,1.36,10.44,10.44,0,0,1-.87,1.62,11.53,11.53,0,0,1-2.77,3,4.78,4.78,0,0,1-2.58,1Z"/>
              </g>
              <g>
                <path class="cls-2" d="M148.06,69.85c-.51,0-1,0-1.55,0-2.49-.07-4.23-.82-5.16-2.24-.68-1-1.16-2.73.4-5.08A13.43,13.43,0,0,1,147.39,58a15.94,15.94,0,0,1,6.71-1.66h.79a28.42,28.42,0,0,1,5.63.87.84.84,0,0,1,.52.42c.19.39.1.71-.55,2-.46.93-.76,1.48-.87,1.65a1.27,1.27,0,0,1-1.07.46,2.63,2.63,0,0,1-1.23-.24.75.75,0,0,1-.37-.87,1.53,1.53,0,0,0,0-.43,1.63,1.63,0,0,0-.22-.54c0-.08-.2-.26-.68-.46a6,6,0,0,0-1.81-.33h-.44c-2.59,0-4.76,1.41-6.61,4.21a6.76,6.76,0,0,0-1,2.25,1.51,1.51,0,0,0,.28,1.4,2.87,2.87,0,0,0,2,.65h.39a3.45,3.45,0,0,0,1.12-.18.62.62,0,0,0,.25-.22l.75-1.12c.24-.36.4-.63.51-.82l-.46,0a.84.84,0,0,1-.67-.41,1.06,1.06,0,0,1,.14-1.05,1.59,1.59,0,0,1,.7-.68.94.94,0,0,1,.29-.06l2.59.2,1.18.08,3.48.08a.76.76,0,0,1,.57.29.74.74,0,0,1,.17.62,1.71,1.71,0,0,1-.28.66,1.23,1.23,0,0,1-.95.64h-.05a5.48,5.48,0,0,0-1.31.17h0a3.71,3.71,0,0,0-.88,1c-.23.34-.46.68-.68,1a.87.87,0,0,0-.14.23,1.17,1.17,0,0,1-.15.43,2.15,2.15,0,0,1-1.34.81c-.79.2-1.4.34-1.82.43s-1.16.18-2.18.28C149.19,69.81,148.63,69.84,148.06,69.85Z"/>
                <path class="cls-3" d="M154.1,57.06c.25,0,.5,0,.75,0a26.91,26.91,0,0,1,5.48.84c.08,0-.1.46-.53,1.34s-.71,1.4-.83,1.56-.19.12-.42.12h-.13a2,2,0,0,1-.73-.13,1.87,1.87,0,0,0,.06-.71,2.45,2.45,0,0,0-.31-.83,2,2,0,0,0-1.07-.8,6.34,6.34,0,0,0-2.06-.39h-.48c-2.84,0-5.26,1.56-7.25,4.56a7.81,7.81,0,0,0-1.16,2.51,2.32,2.32,0,0,0,.43,2.05,3.37,3.37,0,0,0,2.59.94h.44a4.13,4.13,0,0,0,1.38-.23,1.33,1.33,0,0,0,.63-.52l.75-1.12.08-.13a5.44,5.44,0,0,0,.74-1.37c.07-.32-.38-.51-1.36-.55-.07,0,0-.1.08-.3a.86.86,0,0,1,.33-.35l1.18.09c.49,0,.93.08,1.35.1s.8.06,1.19.08,1.42,0,3.51.09a1,1,0,0,1-.16.35c-.14.21-.24.31-.31.31h-.16a6.16,6.16,0,0,0-1.38.19c-.33.08-.78.53-1.34,1.37l-.68,1a1.37,1.37,0,0,0-.25.48,1.34,1.34,0,0,1-.05.2,1.47,1.47,0,0,1-.87.47c-.78.2-1.38.34-1.79.42s-1.11.17-2.08.27c-.52.05-1.06.08-1.61.09s-1,0-1.51,0c-2.24-.07-3.76-.69-4.55-1.91s-.67-2.62.39-4.23a12.64,12.64,0,0,1,5.32-4.29,15.05,15.05,0,0,1,6.39-1.59m0-1.54h0a16.51,16.51,0,0,0-7,1.74,14.37,14.37,0,0,0-6,4.86c-1.78,2.72-1.2,4.73-.4,5.94,1.07,1.63,3,2.48,5.76,2.56.55,0,1.08,0,1.6,0s1.16,0,1.72-.1c1.08-.11,1.8-.2,2.27-.3s1-.23,1.85-.43a2.83,2.83,0,0,0,1.78-1.11,1.61,1.61,0,0,0,.26-.62l0-.06.69-1a5.27,5.27,0,0,1,.6-.77,4.16,4.16,0,0,1,.84-.11h.16a2,2,0,0,0,1.6-1,2.48,2.48,0,0,0,.39-.94,1.55,1.55,0,0,0-1.11-1.76,1.8,1.8,0,0,0,1.09-.7c.13-.2.32-.53.94-1.76s.94-1.9.55-2.7a1.6,1.6,0,0,0-1.1-.86,28.71,28.71,0,0,0-5.7-.87c-.27,0-.55,0-.83,0Zm-5.22,11c-.11,0-.23,0-.35,0-.88,0-1.33-.21-1.46-.38a.75.75,0,0,1-.14-.74,6,6,0,0,1,.93-2c1.7-2.57,3.65-3.83,6-3.85h.39a5.4,5.4,0,0,1,1.57.28.42.42,0,0,1,.42.4.38.38,0,0,1,0,.1,1.55,1.55,0,0,0,.75,1.77,3.33,3.33,0,0,0,.42.17l-2.05,0-1.15-.08-1.32-.1-1.21-.1h-.13a1.43,1.43,0,0,0-.58.12,2.39,2.39,0,0,0-1.06,1,1.74,1.74,0,0,0-.17,1.82,1.52,1.52,0,0,0,.58.6l-.64,1a3.28,3.28,0,0,1-.76.09Z"/>
              </g>
              <g>
                <path class="cls-2" d="M166.44,70.77c-.85-.12-1.48-.19-1.92-.23s-1.12-.06-2-.08l-1.73,0a.77.77,0,0,1-.67-.39,1,1,0,0,1,.12-1.1c.21-.3.48-.71,1-.7h0a6.88,6.88,0,0,0,.9-.08,2.81,2.81,0,0,0,.63-.12,10.74,10.74,0,0,0,.91-1.18l1.92-2.8c0-.11,0-.35-.07-.8-.08-.68-.17-1.36-.27-2-.06-.33-.11-.65-.16-1a2,2,0,0,0-.2-.87,1.74,1.74,0,0,0-.77-.21.85.85,0,0,1-.67-.46,1,1,0,0,1,.18-1,1.57,1.57,0,0,1,.67-.61.57.57,0,0,1,.31-.06s2.47.29,2.47.29l1.12.11c.38,0,1.61.11,3.68.24a.82.82,0,0,1,.75.75,1.24,1.24,0,0,1-.35.87,1.1,1.1,0,0,1-.9.55h-.14a4.85,4.85,0,0,0-.68,0h0c.09.68.19,1.36.28,2,.6-.37,1.4-.82,2.3-1.34l.82-.49a.92.92,0,0,1-.47-.42,1,1,0,0,1,.15-1,1.49,1.49,0,0,1,.67-.62.7.7,0,0,1,.32-.05h.08c1.46.23,2.45.39,3,.45s1.4.14,2.91.26a.84.84,0,0,1,.75,1,1.48,1.48,0,0,1-.25.58,1.11,1.11,0,0,1-1,.59H180a5.62,5.62,0,0,0-.93,0,3.13,3.13,0,0,0-1,.28c-.71.33-2.16,1.08-4.35,2.28a35,35,0,0,0-3.3,1.92l-1.8,2.64a7.8,7.8,0,0,0-.48.75,1.66,1.66,0,0,0,.33.1.89.89,0,0,1,.68.47,1,1,0,0,1-.2,1.09,2.75,2.75,0,0,1-.4.46A.82.82,0,0,1,168,71Z"/>
                <path class="cls-3" d="M164.61,57.78l1.12.14,1.28.15,1.14.11c.39,0,1.63.11,3.71.25,0,0-.06.16-.2.35s-.23.27-.28.27h-.2a6.09,6.09,0,0,0-.72,0,1.1,1.1,0,0,0-.68.22.5.5,0,0,0-.06.4l.45,3.26a.11.11,0,0,0,.09.05.38.38,0,0,0,.18-.05c.83-.44,1.85-1,3.08-1.72a10.58,10.58,0,0,0,2-1.32c.18-.25-.28-.44-1.37-.55-.06,0,0-.11.08-.3a.89.89,0,0,1,.34-.34c1.48.24,2.48.4,3,.46s1.43.14,2.95.27a.71.71,0,0,1-.14.31c-.13.2-.24.29-.31.29h0l-.17,0a5.63,5.63,0,0,0-1,0,3.9,3.9,0,0,0-1.26.34c-.72.34-2.18,1.09-4.39,2.31a26.79,26.79,0,0,0-3.46,2.06c-.63.9-1.26,1.81-1.88,2.72a5.77,5.77,0,0,0-.83,1.52q0,.12.51.33a3.19,3.19,0,0,0,.77.23c.07,0,0,.12-.12.34a1.8,1.8,0,0,1-.27.31L166.53,70c-.87-.12-1.52-.19-2-.23l-2-.09-1.74,0c0-.05,0-.15.09-.29s.28-.36.33-.36h.09a8.07,8.07,0,0,0,1-.09,2.65,2.65,0,0,0,.93-.23,7.67,7.67,0,0,0,1.14-1.4l2-2.94a3.56,3.56,0,0,0,0-1.17c-.09-.7-.18-1.38-.28-2,0-.33-.1-.65-.16-1-.07-.75-.24-1.21-.5-1.37a2.46,2.46,0,0,0-1.18-.37c-.07,0,0-.1.1-.29a.94.94,0,0,1,.34-.35m0-1.55a1.67,1.67,0,0,0-.62.12,2.4,2.4,0,0,0-1,.89,1.71,1.71,0,0,0-.23,1.83,1.62,1.62,0,0,0,1.34.89l.17,0a1.68,1.68,0,0,1,0,.29l.18,1.07c.09.64.18,1.3.26,2,0,.22,0,.37.05.49L163,66.4a8.75,8.75,0,0,1-.71.94l-.3,0a5.83,5.83,0,0,1-.73.07h0a2,2,0,0,0-1.68,1,1.76,1.76,0,0,0-.16,1.93,1.59,1.59,0,0,0,1.34.79l1.72,0c.88,0,1.54,0,2,.08s1,.11,1.87.22l1.54.21H168a1.54,1.54,0,0,0,1-.34,3.13,3.13,0,0,0,.53-.59,1.81,1.81,0,0,0,.26-1.88,1.67,1.67,0,0,0-.53-.62L171,65.84c.24-.15,1-.61,3.1-1.78,2.68-1.47,3.83-2,4.32-2.26a2.41,2.41,0,0,1,.8-.21,3.64,3.64,0,0,1,.71,0h.17a1.8,1.8,0,0,0,1.6-.87,2.27,2.27,0,0,0,.37-.86,1.62,1.62,0,0,0-.32-1.3,1.7,1.7,0,0,0-1.19-.66c-1.53-.13-2.47-.2-2.86-.26s-1.49-.21-2.94-.45h-.16a1.39,1.39,0,0,0-.64.1,1.91,1.91,0,0,0-.71.51,1.66,1.66,0,0,0-1.34-.9c-2.06-.13-3.28-.2-3.66-.24l-1.09-.11-.49-.06-.79-.09-1.09-.13-.17,0Zm6.79,4.37h0l0,0v0Z"/>
              </g>
            </g>
          </g>
        </g>
        <g>
          <text class="cls-6" transform="translate(10.83 123.7) scale(1 0.75)">K<tspan class="cls-7" x="8.43" y="0">ai Di R&amp;D </tspan><tspan class="cls-8" x="66.3" y="0">T</tspan><tspan class="cls-9" x="73.08" y="0">e</tspan><tspan class="cls-10" x="79.5" y="0">c</tspan><tspan class="cls-7" x="85.52" y="0">hn</tspan><tspan class="cls-11" x="100.92" y="0">o</tspan><tspan class="cls-12" x="107.79" y="0">lo</tspan><tspan class="cls-13" x="118.43" y="0">g</tspan><tspan class="cls-9" x="125.1" y="0">y C</tspan><tspan class="cls-14" x="142.43" y="0">o</tspan><tspan class="cls-9" x="149.1" y="0">., </tspan><tspan x="159.25" y="0">L</tspan><tspan class="cls-12" x="166.67" y="0">td</tspan></text>
          <text class="cls-15" transform="translate(0 111.21) scale(1 0.9)">愷迪研發科技股份有限公司</text>
        </g>
      </g>
    </g>
  </g>
</svg>
